<svg id="Capa_1" data-name="Capa 1" xmlns="http://www.w3.org/2000/svg" xmlns:xlink="http://www.w3.org/1999/xlink" viewBox="0 0 261 261"><defs><style>.cls-1{fill:none;}.cls-2{fill:#fff;}.cls-3{clip-path:url(#clip-path);}.cls-4{clip-path:url(#clip-path-2);}.cls-5{clip-path:url(#clip-path-3);}.cls-6{clip-path:url(#clip-path-4);}</style><clipPath id="clip-path"><circle class="cls-1" cx="130.5" cy="125.5" r="124.5"/></clipPath><clipPath id="clip-path-2"><circle class="cls-2" cx="135" cy="130" r="129"/></clipPath><clipPath id="clip-path-3"><rect class="cls-2" x="-120" y="-48.558" width="567" height="144.117"/></clipPath><clipPath id="clip-path-4"><rect class="cls-2" x="-140" y="104.424" width="638" height="195.153"/></clipPath></defs><title>anteojos-casa-dibujo02</title><g class="cls-3"><circle class="cls-2" cx="135" cy="130" r="129"/><g class="cls-4"><rect class="cls-2" x="-120" y="-48.558" width="567" height="144.117"/><g class="cls-5"><path class="cls-2" d="M-77.813,260.026V-15.806H361.872V260.026ZM62.792,71.975c-.373.313-.662.54-.935.786-1.21,1.086-2.452,2.14-3.612,3.278a2.38,2.38,0,0,0-.007,3.483,2.821,2.821,0,0,0,4.227-.148L65.9,75.69c1.46,1.022,2.822,2.105,4.307,2.979a30.829,30.829,0,0,0,4.773,2.346A37.528,37.528,0,0,0,92.732,82.9,29.931,29.931,0,0,0,112.54,72.833a25.866,25.866,0,0,0,5.166-8.611,8.979,8.979,0,0,1,.506-1.353,3.324,3.324,0,0,1,.681-.68,7.727,7.727,0,0,1-.243,3.011,1.418,1.418,0,0,0,.83,1.891c.8.4,1.364-.174,1.714-.818a22.855,22.855,0,0,0,2.514-9.241c.073-.91-.15-1.771-1.23-1.934-1.045-.158-1.535.532-1.816,1.427-.187.6-.384,1.189-.576,1.784l-.368-.057c0-.412-.005-.823,0-1.234.03-1.962.187-3.932.046-5.881-.077-1.065.215-1.6,1.14-1.913a6.421,6.421,0,0,1,1.055-.334,76.274,76.274,0,0,1,7.683-1.1,26.476,26.476,0,0,1,11.575,1.693,1.119,1.119,0,0,1,.8,1.319c-.07,2.142.02,4.29.039,6.435,0,.357-.037.713-.057,1.07l-.327.053a16.016,16.016,0,0,0-1.051-2.234,2.121,2.121,0,0,0-1.3-.972c-.378-.028-.852.548-1.2.932-.641.708-.145,1.47.022,2.19.536,2.309,1.088,4.615,1.686,6.908a2.878,2.878,0,0,0,.759,1.452,1.35,1.35,0,0,0,2.429-.874,5.014,5.014,0,0,0-.189-1.639c-.088-.622-.179-1.243-.269-1.864l.366-.114a5.429,5.429,0,0,1,.438.752,34.393,34.393,0,0,0,4.838,8.762,28.033,28.033,0,0,0,7.994,7.09,33.057,33.057,0,0,0,16.233,4.409c7.3.176,14.257-1.024,20.372-5.371.948-.674,1.869-1.386,2.652-1.969.611.51,1.213.944,1.729,1.463.547.551.965,1.234,1.529,1.764a6.118,6.118,0,0,0,1.7,1.178,2.968,2.968,0,0,0,3.434-1.125,2.28,2.28,0,0,0-.378-3.042c-1.3-1.2-2.656-2.337-4.02-3.461-.522-.43-.71-.793-.2-1.359,2.075-2.326,2.953-5.283,3.941-8.109A32.522,32.522,0,0,0,204.3,52.976c1.759,0,3.277.065,4.785-.032a2.5,2.5,0,0,0,1.736-.7,2.292,2.292,0,0,0-1.993-3.532c-1.41,0-2.821-.03-4.229.019-.643.023-.85-.249-1.1-.807-1.092-2.453-2.233-4.838-4.365-6.679a23,23,0,0,0-9.551-4.743,58.889,58.889,0,0,0-15.452-1.587c-7.934.086-15.81.645-23.1,4.23a15.857,15.857,0,0,0-8.053,7.895,7.342,7.342,0,0,1-.354.659,33.485,33.485,0,0,0-23.552-.035c-.345-.584-.7-1.265-1.13-1.891a18.555,18.555,0,0,0-2.368-3.2c-3.721-3.452-8.3-5.221-13.18-6.241A77.4,77.4,0,0,0,79.8,35.225a37.058,37.058,0,0,0-11.685,2.554c-4.741,2.05-8.474,5.083-9.966,10.3a1.265,1.265,0,0,1-.964.614c-1.294.071-2.595.025-3.894.026-2.288,0-2.346.151-2.463,2.441-.067,1.3.421,1.721,1.845,1.794,1.259.065,2.522.1,3.782.087.715-.008.95.228.957.965.017,1.629.073,3.265.246,4.884A27.625,27.625,0,0,0,62.792,71.975Zm68.1,143.715,16.944-16.716c-.147-.62-.3-1.112-.378-1.616q-1.551-10.381-3.082-20.764c-1.108-7.472-2.246-14.939-3.314-22.416-.881-6.169-1.677-12.351-2.515-18.526-.165-1.211-.273-2.438-.55-3.624-.439-1.885-.958-3.575.311-5.53,1.781-2.745,3.081-5.8,4.611-8.71.616-1.172,1.308-2.3,1.942-3.466.2-.369.33-.778.54-1.285H116.209c1.01,1.781,1.914,3.287,2.734,4.838q2.49,4.706,4.884,9.461a3.227,3.227,0,0,1,.313,1.779c-.808,5.79-1.665,11.574-2.523,17.357q-1.651,11.153-3.324,22.3-1.667,11.207-3.322,22.416c-.331,2.238-.6,4.487-.976,6.717a2.138,2.138,0,0,0,.778,2.132q3.956,3.7,7.831,7.49c1.772,1.73,3.474,3.532,5.23,5.279C128.771,213.739,129.756,214.623,130.891,215.69Z"/><path d="M62.792,71.975A27.625,27.625,0,0,1,57.66,58.893c-.173-1.619-.229-3.255-.246-4.884-.007-.737-.242-.973-.957-.965-1.26.014-2.523-.022-3.782-.087-1.424-.073-1.912-.5-1.845-1.794.117-2.29.175-2.44,2.463-2.441,1.3,0,2.6.045,3.894-.026a1.265,1.265,0,0,0,.964-.614c1.492-5.22,5.225-8.253,9.966-10.3A37.058,37.058,0,0,1,79.8,35.225,77.4,77.4,0,0,1,102.4,36.331c4.881,1.02,9.459,2.789,13.18,6.241a18.555,18.555,0,0,1,2.368,3.2c.432.626.785,1.307,1.13,1.891a33.485,33.485,0,0,1,23.552.035,7.342,7.342,0,0,0,.354-.659,15.857,15.857,0,0,1,8.053-7.895c7.287-3.585,15.163-4.144,23.1-4.23a58.889,58.889,0,0,1,15.452,1.587,23,23,0,0,1,9.551,4.743c2.132,1.841,3.273,4.226,4.365,6.679.248.558.455.83,1.1.807,1.408-.049,2.819-.014,4.229-.019a2.292,2.292,0,0,1,1.993,3.532,2.5,2.5,0,0,1-1.736.7c-1.508.1-3.026.032-4.785.032a32.522,32.522,0,0,1-1.111,10.148c-.988,2.826-1.866,5.783-3.941,8.109-.5.566-.317.929.2,1.359,1.364,1.124,2.72,2.264,4.02,3.461a2.28,2.28,0,0,1,.378,3.042,2.968,2.968,0,0,1-3.434,1.125,6.118,6.118,0,0,1-1.7-1.178c-.564-.53-.982-1.213-1.529-1.764-.516-.519-1.118-.953-1.729-1.463-.783.583-1.7,1.3-2.652,1.969-6.115,4.347-13.072,5.547-20.372,5.371A33.057,33.057,0,0,1,156.2,78.746a28.033,28.033,0,0,1-7.994-7.09,34.393,34.393,0,0,1-4.838-8.762,5.429,5.429,0,0,0-.438-.752l-.366.114c.09.621.181,1.242.269,1.864a5.014,5.014,0,0,1,.189,1.639,1.35,1.35,0,0,1-2.429.874,2.878,2.878,0,0,1-.759-1.452c-.6-2.293-1.15-4.6-1.686-6.908-.167-.72-.663-1.482-.022-2.19.347-.384.821-.96,1.2-.932a2.121,2.121,0,0,1,1.3.972,16.016,16.016,0,0,1,1.051,2.234L142,58.3c.02-.357.06-.713.057-1.07-.019-2.145-.109-4.293-.039-6.435a1.119,1.119,0,0,0-.8-1.319,26.476,26.476,0,0,0-11.575-1.693,76.274,76.274,0,0,0-7.683,1.1,6.421,6.421,0,0,0-1.055.334c-.925.315-1.217.848-1.14,1.913.141,1.949-.016,3.919-.046,5.881-.006.411,0,.822,0,1.234l.368.057c.192-.595.389-1.188.576-1.784.281-.895.771-1.585,1.816-1.427,1.08.163,1.3,1.024,1.23,1.934a22.855,22.855,0,0,1-2.514,9.241c-.35.644-.919,1.214-1.714.818a1.418,1.418,0,0,1-.83-1.891,7.727,7.727,0,0,0,.243-3.011,3.324,3.324,0,0,0-.681.68,8.979,8.979,0,0,0-.506,1.353,25.866,25.866,0,0,1-5.166,8.611A29.931,29.931,0,0,1,92.732,82.9a37.528,37.528,0,0,1-17.753-1.883,30.829,30.829,0,0,1-4.773-2.346c-1.485-.874-2.847-1.957-4.307-2.979l-3.434,3.684a2.821,2.821,0,0,1-4.227.148,2.38,2.38,0,0,1,.007-3.483c1.16-1.138,2.4-2.192,3.612-3.278C62.13,72.515,62.419,72.288,62.792,71.975ZM85.605,35.356c-5.594.15-12.532.395-18.944,3.571a15.864,15.864,0,0,0-7.1,6.758,7.576,7.576,0,0,0-.95,4.106c.058,1.153-.727,2.331-.768,3.51-.242,7.1,1.494,13.586,6.021,19.245a27.568,27.568,0,0,0,5.563,5.206,20.166,20.166,0,0,0,3.365,1.928,34.493,34.493,0,0,0,11.912,2.955c7.583.547,14.788-.72,21.329-4.756a27.634,27.634,0,0,0,9.7-10.429,30,30,0,0,0,3.562-10.667c.73-5.756-.385-10.886-5.087-14.793a23.647,23.647,0,0,0-8.44-4.327C99.64,35.816,93.327,35.33,85.605,35.356Zm87.6-.021c-7.084.2-14.926.679-22.165,4.292-3.242,1.618-6.043,3.856-7.433,7.279a18.28,18.28,0,0,0-1.281,6.148,25.887,25.887,0,0,0,2.537,12.141,31.876,31.876,0,0,0,6.867,9.686,26.672,26.672,0,0,0,8.488,5.365,36.674,36.674,0,0,0,15.36,2.476,33.663,33.663,0,0,0,14.626-3.748,23.566,23.566,0,0,0,9.728-9.592,37.52,37.52,0,0,0,3.424-9.194c.659-2.752,1.138-5.66-.017-8.553-.422-1.057.125-2.5-.306-3.553a15.97,15.97,0,0,0-3.9-6.2,22.479,22.479,0,0,0-9.461-4.889C184.543,35.611,179.285,35.4,173.207,35.335Zm25.685,37.323c-.96.792-1.853,1.491-2.685,2.257-.124.114-.062.626.09.808.537.646,1.14,1.239,1.736,1.833a19,19,0,0,0,2.22,2.107,2.421,2.421,0,0,0,3.1-.631,1.938,1.938,0,0,0-.046-2.546C201.755,75.092,200.158,73.752,198.892,72.658ZM65.612,75.346c-.736-.917-1.333-1.673-1.944-2.416-.323-.393-.641-.694-1.17-.2C61.262,73.9,59.966,75,58.735,76.164a2.008,2.008,0,0,0-.224,3.04,2.358,2.358,0,0,0,3.31.187C63.127,78.1,64.339,76.713,65.612,75.346Zm76.965-27.054c-.46-.217-.813-.418-1.19-.556a29.724,29.724,0,0,0-10.8-1.716,30.024,30.024,0,0,0-10.461,1.765c-.846.325-1.118.769-.645,1.433a32.864,32.864,0,0,1,22.76.137ZM123.532,57c-.381-.5-.673-1.286-1.162-1.438-.873-.27-1.174.593-1.328,1.282-.273,1.222-.416,2.473-.691,3.694-.371,1.645-.87,3.263-1.19,4.917-.073.378.359.854.558,1.285.375-.241.937-.4,1.1-.738A31.672,31.672,0,0,0,123.532,57Zm17.307,2.24.291-.089a18.122,18.122,0,0,0-.79-2.5c-.215-.457-.749-.764-1.14-1.138-.237.491-.753,1.038-.668,1.464.587,2.924,1.3,5.824,1.976,8.729a.774.774,0,0,0,.267.474c.4.215.887.572,1.233.478a1.283,1.283,0,0,0,.569-1.107,34.349,34.349,0,0,0-.871-3.617C141.453,61.033,141.13,60.143,140.839,59.244ZM58.173,49.778h-5.1v2.063h4.954Zm145.39-.012a10.72,10.72,0,0,0,.156,1.57c.053.218.334.534.52.54,1.387.046,2.777.025,4.279.025a8.439,8.439,0,0,0-.027-1.553.855.855,0,0,0-.585-.556C206.513,49.742,205.117,49.766,203.563,49.766Zm6.868-.244c-.594.192-1.286.234-1.368.479a2.669,2.669,0,0,0,.039,1.712c.092.237.8.231,1.329.358ZM51.345,51.972c1.212-.022,1.311-.2,1.222-1.6-.061-.952-.644-.635-1.222-.647ZM142.266,58.8c-.768,1.126-.312,1.947-.081,2.76.027.095.3.122.454.18.067-.187.218-.389.186-.557C142.69,60.471,142.5,59.771,142.266,58.8Zm-22.822.224-.618,2.665C119.82,61.21,120.048,60.214,119.444,59.022Z"/><path d="M130.891,215.69c-1.135-1.067-2.12-1.951-3.057-2.883-1.756-1.747-3.458-3.549-5.23-5.279q-3.876-3.785-7.831-7.49a2.138,2.138,0,0,1-.778-2.132c.379-2.23.645-4.479.976-6.717q1.653-11.209,3.322-22.416,1.659-11.151,3.324-22.3c.858-5.783,1.715-11.567,2.523-17.357a3.227,3.227,0,0,0-.313-1.779q-2.383-4.76-4.884-9.461c-.82-1.551-1.724-3.057-2.734-4.838H145.4c-.21.507-.339.916-.54,1.285-.634,1.162-1.326,2.294-1.942,3.466-1.53,2.91-2.83,5.965-4.611,8.71-1.269,1.955-.75,3.645-.311,5.53.277,1.186.385,2.413.55,3.624.838,6.175,1.634,12.357,2.515,18.526,1.068,7.477,2.206,14.944,3.314,22.416q1.539,10.381,3.082,20.764c.075.5.231,1,.378,1.616Zm-.032-.66c1.5-1.445,2.973-2.83,4.412-4.247,3.763-3.706,7.506-7.433,11.275-11.133a1.711,1.711,0,0,0,.57-1.662q-1.407-8.994-2.739-18-1.694-11.371-3.352-22.747-2.015-13.911-3.966-27.832c-.1-.731-.317-1.018-1.089-1.011q-5.174.043-10.349-.016c-.71-.008-.955.234-1.053.924q-1.435,10.117-2.928,20.226c-1.1,7.473-2.225,14.942-3.325,22.414-.361,2.459-.653,4.927-1.021,7.385-.93,6.222-1.9,12.439-2.8,18.664a1.97,1.97,0,0,0,.4,1.469c1.337,1.364,2.806,2.6,4.168,3.941,2.894,2.852,5.744,5.747,8.627,8.61C128.678,213,129.713,213.944,130.859,215.03Zm13.765-101.586H116.932c.813,1.4,1.556,2.576,2.2,3.8,1.749,3.341,3.443,6.712,5.2,10.047a1.387,1.387,0,0,0,.99.652c3.636.048,7.272.044,10.908.009a1.465,1.465,0,0,0,.967-.522,9.9,9.9,0,0,0,1.043-1.672C140.359,121.7,142.459,117.628,144.624,113.444Z"/><path class="cls-2" d="M85.605,35.356c7.722-.026,14.035.46,20.162,2.307a23.647,23.647,0,0,1,8.44,4.327c4.7,3.907,5.817,9.037,5.087,14.793a30,30,0,0,1-3.562,10.667,27.634,27.634,0,0,1-9.7,10.429c-6.541,4.036-13.746,5.3-21.329,4.756A34.493,34.493,0,0,1,72.794,79.68a20.166,20.166,0,0,1-3.365-1.928,27.568,27.568,0,0,1-5.563-5.206C59.339,66.887,57.6,60.4,57.845,53.3c.041-1.179.826-2.357.768-3.51a7.576,7.576,0,0,1,.95-4.106,15.864,15.864,0,0,1,7.1-6.758C73.073,35.751,80.011,35.506,85.605,35.356Zm.761,1.188c-6.135.292-13.164.37-19.6,3.792a13.285,13.285,0,0,0-6.917,8.253,24.523,24.523,0,0,0,.594,14.74,24.789,24.789,0,0,0,7.163,11.253,28.3,28.3,0,0,0,5.153,3.612,30.27,30.27,0,0,0,12.277,3.2c7.521.487,14.646-.824,21-5.058a26.688,26.688,0,0,0,9.75-12.064,30.922,30.922,0,0,0,2.053-7.929c.654-4.913-.013-9.543-4.086-13.072a25.172,25.172,0,0,0-11.169-5.177A71.153,71.153,0,0,0,86.366,36.544Z"/><path class="cls-2" d="M173.207,35.335c6.078.063,11.336.276,16.468,1.653a22.479,22.479,0,0,1,9.461,4.889,15.97,15.97,0,0,1,3.9,6.2c.431,1.049-.116,2.5.306,3.553,1.155,2.893.676,5.8.017,8.553a37.52,37.52,0,0,1-3.424,9.194,23.566,23.566,0,0,1-9.728,9.592,33.663,33.663,0,0,1-14.626,3.748,36.674,36.674,0,0,1-15.36-2.476,26.672,26.672,0,0,1-8.488-5.365,31.876,31.876,0,0,1-6.867-9.686,25.887,25.887,0,0,1-2.537-12.141,18.28,18.28,0,0,1,1.281-6.148c1.39-3.423,4.191-5.661,7.433-7.279C158.281,36.014,166.123,35.536,173.207,35.335Zm1.957,1.228c-8.641-.024-14.051.782-20.975,3.057a16.969,16.969,0,0,0-7.026,4.314,12.138,12.138,0,0,0-3.616,8.351,23.8,23.8,0,0,0,.293,5.312,30.932,30.932,0,0,0,4.773,11.7,32.36,32.36,0,0,0,5.03,5.583,20.642,20.642,0,0,0,3.627,2.538,34.588,34.588,0,0,0,19.873,3.939,28.357,28.357,0,0,0,16.35-6.185,24.262,24.262,0,0,0,6.538-8.692,27.947,27.947,0,0,0,2.114-15.989,12.706,12.706,0,0,0-2.905-6.59,18.528,18.528,0,0,0-9.506-5.592A58.16,58.16,0,0,0,175.164,36.563Z"/><path class="cls-2" d="M198.892,72.658c1.266,1.094,2.863,2.434,4.411,3.828a1.938,1.938,0,0,1,.046,2.546,2.421,2.421,0,0,1-3.1.631,19,19,0,0,1-2.22-2.107c-.6-.594-1.2-1.187-1.736-1.833-.152-.182-.214-.694-.09-.808C197.039,74.149,197.932,73.45,198.892,72.658Z"/><path class="cls-2" d="M65.612,75.346c-1.273,1.367-2.485,2.753-3.791,4.045a2.358,2.358,0,0,1-3.31-.187,2.008,2.008,0,0,1,.224-3.04C59.966,75,61.262,73.9,62.5,72.733c.529-.5.847-.2,1.17.2C64.279,73.673,64.876,74.429,65.612,75.346Z"/><path class="cls-2" d="M142.577,48.292l-.338,1.063a32.864,32.864,0,0,0-22.76-.137c-.473-.664-.2-1.108.645-1.433a30.024,30.024,0,0,1,10.461-1.765,29.724,29.724,0,0,1,10.8,1.716C141.764,47.874,142.117,48.075,142.577,48.292Z"/><path class="cls-2" d="M123.532,57a31.672,31.672,0,0,1-2.716,9c-.16.342-.722.5-1.1.738-.2-.431-.631-.907-.558-1.285.32-1.654.819-3.272,1.19-4.917.275-1.221.418-2.472.691-3.694.154-.689.455-1.552,1.328-1.282C122.859,55.718,123.151,56.5,123.532,57Z"/><path class="cls-2" d="M140.839,59.244c.291.9.614,1.789.867,2.7a34.349,34.349,0,0,1,.871,3.617,1.283,1.283,0,0,1-.569,1.107c-.346.094-.835-.263-1.233-.478a.774.774,0,0,1-.267-.474c-.68-2.905-1.389-5.8-1.976-8.729-.085-.426.431-.973.668-1.464.391.374.925.681,1.14,1.138a18.122,18.122,0,0,1,.79,2.5Z"/><path class="cls-2" d="M58.173,49.778l-.144,2.063H53.075V49.778Z"/><path class="cls-2" d="M203.563,49.766c1.554,0,2.95-.024,4.343.026a.855.855,0,0,1,.585.556,8.439,8.439,0,0,1,.027,1.553c-1.5,0-2.892.021-4.279-.025-.186-.006-.467-.322-.52-.54A10.72,10.72,0,0,1,203.563,49.766Z"/><path class="cls-2" d="M210.431,49.522v2.549c-.525-.127-1.237-.121-1.329-.358A2.669,2.669,0,0,1,209.063,50C209.145,49.756,209.837,49.714,210.431,49.522Z"/><path class="cls-2" d="M51.345,51.972V49.721c.578.012,1.161-.3,1.222.647C52.656,51.771,52.557,51.95,51.345,51.972Z"/><path class="cls-2" d="M142.266,58.8c.234.973.424,1.673.559,2.383.032.168-.119.37-.186.557-.157-.058-.427-.085-.454-.18C141.954,60.745,141.5,59.924,142.266,58.8Z"/><path class="cls-2" d="M119.444,59.022c.6,1.192.376,2.188-.618,2.665Z"/><path class="cls-2" d="M130.859,215.03c-1.146-1.086-2.181-2.029-3.174-3.015-2.883-2.863-5.733-5.758-8.627-8.61-1.362-1.342-2.831-2.577-4.168-3.941a1.97,1.97,0,0,1-.4-1.469c.905-6.225,1.873-12.442,2.8-18.664.368-2.458.66-4.926,1.021-7.385,1.1-7.472,2.226-14.941,3.325-22.414q1.488-10.11,2.928-20.226c.1-.69.343-.932,1.053-.924q5.175.057,10.349.016c.772-.007.987.28,1.089,1.011q1.95,13.922,3.966,27.832,1.647,11.377,3.352,22.747,1.341,9,2.739,18a1.711,1.711,0,0,1-.57,1.662c-3.769,3.7-7.512,7.427-11.275,11.133C133.832,212.2,132.362,213.585,130.859,215.03Z"/><path class="cls-2" d="M144.624,113.444c-2.165,4.184-4.265,8.255-6.38,12.318a9.9,9.9,0,0,1-1.043,1.672,1.465,1.465,0,0,1-.967.522c-3.636.035-7.272.039-10.908-.009a1.387,1.387,0,0,1-.99-.652c-1.761-3.335-3.455-6.706-5.2-10.047-.644-1.228-1.387-2.405-2.2-3.8Z"/><path d="M86.366,36.544a71.153,71.153,0,0,1,16.22,1.55,25.172,25.172,0,0,1,11.169,5.177c4.073,3.529,4.74,8.159,4.086,13.072a30.922,30.922,0,0,1-2.053,7.929,26.688,26.688,0,0,1-9.75,12.064c-6.355,4.234-13.48,5.545-21,5.058a30.27,30.27,0,0,1-12.277-3.2,28.3,28.3,0,0,1-5.153-3.612,24.789,24.789,0,0,1-7.163-11.253,24.523,24.523,0,0,1-.594-14.74,13.285,13.285,0,0,1,6.917-8.253C73.2,36.914,80.231,36.836,86.366,36.544ZM67.482,73.829a17.41,17.41,0,0,0,5.345,3.92A30.663,30.663,0,0,0,84.89,80.925c7.566.52,14.758-.726,21.09-5.1a27.514,27.514,0,0,0,10.226-13.852,21,21,0,0,0,.929-3.744c.264-1.664.372-3.353.55-5.058a5.038,5.038,0,0,0-.662-.109c-9.309.237-18.621.452-27.84,1.939a14.335,14.335,0,0,0-7.205,3.257,82.178,82.178,0,0,0-6.051,5.989c-1.892,2.025-3.643,4.18-5.461,6.275-.142.164-.338.281-.482.444C69.159,71.9,68.342,72.842,67.482,73.829ZM59.557,51.112c19.47.683,38.611,1.094,57.792-.23a11.275,11.275,0,0,0-5.081-8.263,28.778,28.778,0,0,0-12.593-4.666,77.111,77.111,0,0,0-20.847-.5c-5.637.641-11.138,1.74-15.44,5.964C61.25,45.52,60.593,48.251,59.557,51.112Zm.057,2.021c-.769,4.885,1.711,13.628,4.915,17.177,2.006-1.723,4.031-3.426,6.014-5.176,2.548-2.247,4.987-4.624,7.617-6.768,1.9-1.55,4.042-2.813,6.078-4.2.22-.151.457-.276.932-.56Zm7.425,20.412c2.325-2.557,4.467-4.942,6.642-7.3,2.226-2.41,4.461-4.812,6.733-7.179A15.656,15.656,0,0,1,89.6,54.527c1.629-.255,3.264-.473,4.9-.708-1.649-.214-3.29-.087-4.905-.241-3.267-.312-5.953,1.017-8.4,2.88-2.14,1.626-4.115,3.469-6.153,5.229q-2.719,2.349-5.415,4.728C68,67.855,66.4,69.324,64.69,70.875ZM88.627,52.416l-.008-.236c-.52,0-1.039.01-1.558,0-8.788-.191-17.575-.391-26.363-.552-.369-.007-.744.345-1.116.53.335.177.666.5,1.005.511,18.465.444,36.932.941,55.393-.1.521-.029,1.488.434,1.484-.561,0-1.026-.976-.547-1.489-.531C106.858,51.767,97.743,52.1,88.627,52.416Z"/><path d="M175.164,36.563a58.16,58.16,0,0,1,14.57,1.742A18.528,18.528,0,0,1,199.24,43.9a12.706,12.706,0,0,1,2.905,6.59,27.947,27.947,0,0,1-2.114,15.989,24.262,24.262,0,0,1-6.538,8.692,28.357,28.357,0,0,1-16.35,6.185,34.588,34.588,0,0,1-19.873-3.939,20.642,20.642,0,0,1-3.627-2.538,32.36,32.36,0,0,1-5.03-5.583,30.932,30.932,0,0,1-4.773-11.7,23.8,23.8,0,0,1-.293-5.312,12.138,12.138,0,0,1,3.616-8.351,16.969,16.969,0,0,1,7.026-4.314C161.113,37.345,166.523,36.539,175.164,36.563ZM143.923,53.151c.13,2.162-.167,4.287,1.068,6.19a3.786,3.786,0,0,1,.347,1.267,10.311,10.311,0,0,0,.411,2.041c.743,1.676,1.563,3.321,2.421,4.943a24.055,24.055,0,0,0,8.013,8.578,26.21,26.21,0,0,0,7.738,3.538,36.934,36.934,0,0,0,16.307.8,25.16,25.16,0,0,0,12.222-5.186c1.715-1.422,1.7-1.437.194-3.106q-5.113-5.668-10.223-11.341a17.581,17.581,0,0,0-10.842-5.956,214.464,214.464,0,0,0-23.83-1.767C146.535,53.117,145.319,53.151,143.923,53.151Zm57.847-2a12.375,12.375,0,0,0-5-9.071,21.747,21.747,0,0,0-9.883-4.021,73.67,73.67,0,0,0-17.956-.867c-6.165.44-12.246,1.255-17.776,4.329a12.4,12.4,0,0,0-6.108,6.6c-.326.9-.658,1.8-1.009,2.757C163.4,52.269,182.513,51.763,201.77,51.156Zm-25.2,2.446a36.978,36.978,0,0,1,4.378,2.685c3.278,2.69,6.447,5.513,9.63,8.316,1.831,1.611,3.595,3.3,5.41,4.926a9.338,9.338,0,0,0,1.191.794c3.789-5.134,5.022-10.87,4.8-17.16Zm20.337,17.2a9.153,9.153,0,0,1-.784-.553q-5.508-4.893-11.008-9.8c-1.409-1.252-2.759-2.584-4.265-3.706a24.335,24.335,0,0,0-4.01-2.334c-3.318-1.593-6.844-.482-10.277-.678a28.345,28.345,0,0,0,3.694.583,17.523,17.523,0,0,1,10.908,4.667c2.118,2.05,4.121,4.223,6.108,6.4,1.843,2.021,3.581,4.137,5.4,6.181.579.651,1.266,1.206,1.953,1.851C195.341,72.6,196.083,71.75,196.912,70.8ZM172.941,52.27l0-.149c-4.154,0-8.311.084-12.462-.021-5.154-.131-10.3-.428-15.456-.612-.329-.012-.671.328-1.007.505.31.2.612.555.931.572,4.149.216,8.3.552,12.45.535,14.541-.061,29.081-.247,43.622-.386.148,0,.332.045.437-.024.185-.124.475-.357.446-.478a.907.907,0,0,0-.485-.565,2.493,2.493,0,0,0-.882-.021Z"/><path class="cls-2" d="M67.482,73.829c.86-.987,1.677-1.929,2.5-2.864.144-.163.34-.28.482-.444,1.818-2.095,3.569-4.25,5.461-6.275a82.178,82.178,0,0,1,6.051-5.989A14.335,14.335,0,0,1,89.183,55c9.219-1.487,18.531-1.7,27.84-1.939a5.038,5.038,0,0,1,.662.109c-.178,1.7-.286,3.394-.55,5.058a21,21,0,0,1-.929,3.744A27.514,27.514,0,0,1,105.98,75.824c-6.332,4.375-13.524,5.621-21.09,5.1a30.663,30.663,0,0,1-12.063-3.176A17.41,17.41,0,0,1,67.482,73.829Z"/><path class="cls-2" d="M59.557,51.112c1.036-2.861,1.693-5.592,3.831-7.691,4.3-4.224,9.8-5.323,15.44-5.964a77.111,77.111,0,0,1,20.847.5,28.778,28.778,0,0,1,12.593,4.666,11.275,11.275,0,0,1,5.081,8.263C98.168,52.206,79.027,51.8,59.557,51.112Z"/><path class="cls-2" d="M59.614,53.133l25.556.473c-.475.284-.712.409-.932.56-2.036,1.387-4.175,2.65-6.078,4.2-2.63,2.144-5.069,4.521-7.617,6.768-1.983,1.75-4.008,3.453-6.014,5.176C61.325,66.761,58.845,58.018,59.614,53.133Z"/><path class="cls-2" d="M67.039,73.545l-2.349-2.67c1.711-1.551,3.306-3.02,4.928-4.46q2.688-2.387,5.415-4.728c2.038-1.76,4.013-3.6,6.153-5.229,2.451-1.863,5.137-3.192,8.4-2.88,1.615.154,3.256.027,4.905.241-1.632.235-3.267.453-4.9.708a15.656,15.656,0,0,0-9.185,4.542c-2.272,2.367-4.507,4.769-6.733,7.179C71.506,68.6,69.364,70.988,67.039,73.545Z"/><path class="cls-2" d="M88.627,52.416c9.116-.32,18.231-.649,27.348-.936.513-.016,1.484-.495,1.489.531,0,.995-.963.532-1.484.561-18.461,1.037-36.928.54-55.393.1-.339-.008-.67-.334-1.005-.511.372-.185.747-.537,1.116-.53,8.788.161,17.575.361,26.363.552.519.011,1.038,0,1.558,0Z"/><path class="cls-2" d="M143.923,53.151c1.4,0,2.612-.034,3.826,0a214.464,214.464,0,0,1,23.83,1.767,17.581,17.581,0,0,1,10.842,5.956q5.1,5.679,10.223,11.341c1.506,1.669,1.521,1.684-.194,3.106a25.16,25.16,0,0,1-12.222,5.186,36.934,36.934,0,0,1-16.307-.8,26.21,26.21,0,0,1-7.738-3.538,24.055,24.055,0,0,1-8.013-8.578c-.858-1.622-1.678-3.267-2.421-4.943a10.311,10.311,0,0,1-.411-2.041,3.786,3.786,0,0,0-.347-1.267C143.756,57.438,144.053,55.313,143.923,53.151Z"/><path class="cls-2" d="M201.77,51.156c-19.257.607-38.371,1.113-57.727-.277.351-.956.683-1.856,1.009-2.757a12.4,12.4,0,0,1,6.108-6.6c5.53-3.074,11.611-3.889,17.776-4.329a73.67,73.67,0,0,1,17.956.867,21.747,21.747,0,0,1,9.883,4.021A12.375,12.375,0,0,1,201.77,51.156Z"/><path class="cls-2" d="M176.575,53.6l25.411-.439c.22,6.29-1.013,12.026-4.8,17.16a9.338,9.338,0,0,1-1.191-.794c-1.815-1.63-3.579-3.315-5.41-4.926-3.183-2.8-6.352-5.626-9.63-8.316A36.978,36.978,0,0,0,176.575,53.6Z"/><path class="cls-2" d="M196.912,70.8c-.829.95-1.571,1.8-2.282,2.618-.687-.645-1.374-1.2-1.953-1.851-1.818-2.044-3.556-4.16-5.4-6.181-1.987-2.179-3.99-4.352-6.108-6.4a17.523,17.523,0,0,0-10.908-4.667,28.345,28.345,0,0,1-3.694-.583c3.433.2,6.959-.915,10.277.678a24.335,24.335,0,0,1,4.01,2.334c1.506,1.122,2.856,2.454,4.265,3.706q5.506,4.895,11.008,9.8A9.153,9.153,0,0,0,196.912,70.8Z"/><path class="cls-2" d="M172.941,52.27l27.591-.644a2.493,2.493,0,0,1,.882.021.907.907,0,0,1,.485.565c.029.121-.261.354-.446.478-.1.069-.289.022-.437.024-14.541.139-29.081.325-43.622.386-4.15.017-8.3-.319-12.45-.535-.319-.017-.621-.373-.931-.572.336-.177.678-.517,1.007-.505,5.153.184,10.3.481,15.456.612,4.151.1,8.308.021,12.462.021Z"/></g><rect class="cls-2" x="-140" y="104.424" width="638" height="195.153"/><g class="cls-6"><path class="cls-2" d="M-116.136,291.222V-36.8H406.739V291.221ZM51.071,67.59c-.443.372-.787.643-1.112.934-1.438,1.292-2.916,2.546-4.294,3.9a2.831,2.831,0,0,0-.009,4.142,3.354,3.354,0,0,0,5.027-.176l4.084-4.381c1.736,1.216,3.355,2.5,5.121,3.543a36.779,36.779,0,0,0,5.676,2.79A44.638,44.638,0,0,0,86.677,80.58c9.308-1.083,17.343-4.855,23.555-11.969a30.776,30.776,0,0,0,6.144-10.241,10.617,10.617,0,0,1,.6-1.609,3.92,3.92,0,0,1,.809-.808,9.2,9.2,0,0,1-.288,3.58,1.686,1.686,0,0,0,.986,2.249c.945.471,1.623-.207,2.039-.973a27.172,27.172,0,0,0,2.989-10.989c.088-1.082-.177-2.106-1.462-2.3-1.243-.188-1.826.633-2.16,1.7-.223.709-.456,1.414-.685,2.121l-.438-.068c0-.489-.006-.978,0-1.467.036-2.333.223-4.676.056-6.993-.092-1.267.255-1.9,1.355-2.275a7.664,7.664,0,0,1,1.254-.4,91.288,91.288,0,0,1,9.138-1.312,31.491,31.491,0,0,1,13.764,2.014,1.33,1.33,0,0,1,.955,1.569c-.083,2.547.024,5.1.047,7.652,0,.424-.045.849-.069,1.273l-.388.063a19.054,19.054,0,0,0-1.25-2.658,2.521,2.521,0,0,0-1.543-1.155c-.45-.034-1.013.652-1.426,1.109-.762.841-.173,1.748.026,2.6.637,2.745,1.294,5.487,2.005,8.215a3.426,3.426,0,0,0,.9,1.726,1.606,1.606,0,0,0,2.889-1.038,5.95,5.95,0,0,0-.224-1.95c-.1-.739-.214-1.478-.321-2.217l.436-.135a6.382,6.382,0,0,1,.52.893,40.911,40.911,0,0,0,5.754,10.421,33.31,33.31,0,0,0,9.506,8.431,39.321,39.321,0,0,0,19.3,5.244c8.682.208,16.955-1.219,24.227-6.388,1.127-.8,2.223-1.648,3.154-2.342.726.607,1.442,1.123,2.056,1.741.651.654,1.147,1.467,1.818,2.1a7.28,7.28,0,0,0,2.019,1.4,3.528,3.528,0,0,0,4.083-1.338,2.71,2.71,0,0,0-.45-3.617c-1.545-1.424-3.157-2.779-4.78-4.117-.62-.511-.844-.942-.243-1.615,2.467-2.766,3.512-6.283,4.686-9.643A38.639,38.639,0,0,0,219.35,45c2.092,0,3.9.077,5.69-.038a2.962,2.962,0,0,0,2.065-.828,2.724,2.724,0,0,0-2.37-4.2c-1.677.005-3.355-.036-5.029.022-.765.027-1.011-.3-1.306-.959-1.3-2.918-2.655-5.754-5.191-7.944a27.335,27.335,0,0,0-11.358-5.639,70.041,70.041,0,0,0-18.375-1.888c-9.435.1-18.8.767-27.468,5.031-4.191,2.062-7.662,4.954-9.576,9.388a8.814,8.814,0,0,1-.421.784A39.816,39.816,0,0,0,118,38.684c-.411-.7-.831-1.5-1.344-2.249a22.087,22.087,0,0,0-2.817-3.812c-4.424-4.1-9.869-6.208-15.673-7.421A92.031,92.031,0,0,0,71.3,23.887a44.063,44.063,0,0,0-13.9,3.037c-5.638,2.438-10.077,6.045-11.851,12.253a1.5,1.5,0,0,1-1.146.73c-1.54.084-3.087.03-4.631.031-2.722,0-2.79.179-2.93,2.9-.079,1.543.5,2.046,2.194,2.133,1.5.078,3,.121,4.5.1.851-.01,1.129.27,1.138,1.147.02,1.937.087,3.883.293,5.808A32.844,32.844,0,0,0,51.071,67.59ZM132.055,238.5l20.15-19.88c-.175-.736-.36-1.322-.449-1.921q-1.845-12.345-3.665-24.693c-1.317-8.885-2.672-17.765-3.942-26.657-1.048-7.336-1.993-14.687-2.991-22.031-.195-1.44-.324-2.9-.653-4.31-.522-2.241-1.139-4.251.369-6.576,2.118-3.264,3.665-6.9,5.484-10.358.733-1.393,1.555-2.739,2.309-4.122.24-.439.392-.925.642-1.528H114.6c1.2,2.118,2.277,3.909,3.252,5.753q2.96,5.6,5.808,11.252a3.838,3.838,0,0,1,.372,2.115c-.961,6.886-1.98,13.764-3,20.642q-1.965,13.262-3.953,26.52-1.983,13.327-3.951,26.656c-.393,2.662-.709,5.337-1.16,7.988a2.545,2.545,0,0,0,.924,2.536q4.7,4.4,9.314,8.908c2.107,2.057,4.131,4.2,6.219,6.277C129.534,236.176,130.705,237.227,132.055,238.5Z"/><path d="M51.071,67.59a32.844,32.844,0,0,1-6.1-15.557c-.206-1.925-.273-3.871-.293-5.808-.009-.877-.287-1.157-1.138-1.147-1.5.017-3-.026-4.5-.1-1.693-.087-2.273-.59-2.194-2.133.14-2.724.208-2.9,2.93-2.9,1.544,0,3.091.053,4.631-.031a1.5,1.5,0,0,0,1.146-.73c1.774-6.208,6.213-9.815,11.851-12.253a44.063,44.063,0,0,1,13.9-3.037A92.031,92.031,0,0,1,98.169,25.2c5.8,1.213,11.249,3.317,15.673,7.421a22.087,22.087,0,0,1,2.817,3.812c.513.745.933,1.554,1.344,2.249a39.816,39.816,0,0,1,28.008.042,8.814,8.814,0,0,0,.421-.784c1.914-4.434,5.385-7.326,9.576-9.388,8.666-4.264,18.033-4.929,27.468-5.031a70.041,70.041,0,0,1,18.375,1.888,27.335,27.335,0,0,1,11.358,5.639c2.536,2.19,3.892,5.026,5.191,7.944.295.663.541.986,1.306.959,1.674-.058,3.352-.017,5.029-.022a2.724,2.724,0,0,1,2.37,4.2,2.962,2.962,0,0,1-2.065.828c-1.793.115-3.6.038-5.69.038a38.639,38.639,0,0,1-1.321,12.069c-1.174,3.36-2.219,6.877-4.686,9.643-.6.673-.377,1.1.243,1.615,1.623,1.338,3.235,2.693,4.78,4.117a2.71,2.71,0,0,1,.45,3.617,3.528,3.528,0,0,1-4.083,1.338,7.28,7.28,0,0,1-2.019-1.4c-.671-.63-1.167-1.443-1.818-2.1-.614-.618-1.33-1.134-2.056-1.741-.931.694-2.027,1.541-3.154,2.342-7.272,5.169-15.545,6.6-24.227,6.388a39.321,39.321,0,0,1-19.3-5.244,33.31,33.31,0,0,1-9.506-8.431A40.911,40.911,0,0,1,146.9,56.79a6.382,6.382,0,0,0-.52-.893l-.436.135c.107.739.216,1.478.321,2.217a5.95,5.95,0,0,1,.224,1.95,1.606,1.606,0,0,1-2.889,1.038,3.426,3.426,0,0,1-.9-1.726c-.711-2.728-1.368-5.47-2.005-8.215-.2-.856-.788-1.763-.026-2.6.413-.457.976-1.143,1.426-1.109a2.521,2.521,0,0,1,1.543,1.155,19.054,19.054,0,0,1,1.25,2.658l.388-.063c.024-.424.072-.849.069-1.273-.023-2.551-.13-5.105-.047-7.652a1.33,1.33,0,0,0-.955-1.569,31.491,31.491,0,0,0-13.764-2.014,91.288,91.288,0,0,0-9.138,1.312,7.664,7.664,0,0,0-1.254.4c-1.1.374-1.447,1.008-1.355,2.275.167,2.317-.02,4.66-.056,6.993-.007.489,0,.978,0,1.467l.438.068c.229-.707.462-1.412.685-2.121.334-1.064.917-1.885,2.16-1.7,1.285.194,1.55,1.218,1.462,2.3a27.172,27.172,0,0,1-2.989,10.989c-.416.766-1.094,1.444-2.039.973a1.686,1.686,0,0,1-.986-2.249,9.2,9.2,0,0,0,.288-3.58,3.92,3.92,0,0,0-.809.808,10.617,10.617,0,0,0-.6,1.609,30.776,30.776,0,0,1-6.144,10.241C104.02,75.725,95.985,79.5,86.677,80.58a44.638,44.638,0,0,1-21.113-2.239,36.779,36.779,0,0,1-5.676-2.79c-1.766-1.039-3.385-2.327-5.121-3.543l-4.084,4.381a3.354,3.354,0,0,1-5.027.176,2.831,2.831,0,0,1,.009-4.142c1.378-1.353,2.856-2.607,4.294-3.9C50.284,68.233,50.628,67.962,51.071,67.59ZM78.2,24.042c-6.653.179-14.9.47-22.528,4.248a18.861,18.861,0,0,0-8.441,8.036,9.021,9.021,0,0,0-1.13,4.883c.07,1.371-.865,2.772-.913,4.174-.288,8.446,1.776,16.156,7.16,22.887a32.789,32.789,0,0,0,6.616,6.19,23.908,23.908,0,0,0,4,2.293,41.03,41.03,0,0,0,14.166,3.514c9.017.65,17.586-.856,25.364-5.656a32.849,32.849,0,0,0,11.532-12.4,35.7,35.7,0,0,0,4.237-12.685c.867-6.845-.458-12.945-6.051-17.592a28.092,28.092,0,0,0-10.036-5.145C94.892,24.59,87.384,24.012,78.2,24.042Zm104.177-.024c-8.425.239-17.75.807-26.359,5.1-3.855,1.924-7.186,4.586-8.839,8.656a21.714,21.714,0,0,0-1.524,7.311,30.8,30.8,0,0,0,3.017,14.438,37.92,37.92,0,0,0,8.167,11.519,31.689,31.689,0,0,0,10.093,6.38A43.634,43.634,0,0,0,185.2,80.371a40.049,40.049,0,0,0,17.395-4.458,28.024,28.024,0,0,0,11.567-11.406,44.643,44.643,0,0,0,4.073-10.934c.783-3.273,1.352-6.731-.021-10.172-.5-1.256.149-2.977-.364-4.224-1.1-2.687-2.321-5.306-4.637-7.38a26.746,26.746,0,0,0-11.25-5.814C195.859,24.345,189.605,24.093,182.378,24.018ZM212.923,68.4c-1.142.942-2.205,1.773-3.194,2.683-.147.136-.073.745.107.961.639.769,1.356,1.474,2.065,2.18a22.493,22.493,0,0,0,2.64,2.5,2.878,2.878,0,0,0,3.682-.749,2.3,2.3,0,0,0-.055-3.028C216.327,71.3,214.428,69.7,212.923,68.4Zm-158.5,3.2c-.875-1.091-1.584-1.989-2.311-2.873-.384-.467-.763-.826-1.391-.235-1.471,1.383-3.011,2.692-4.476,4.081a2.387,2.387,0,0,0-.266,3.614,2.8,2.8,0,0,0,3.936.223C51.47,74.873,52.912,73.225,54.425,71.6Zm91.528-32.173c-.547-.258-.968-.5-1.416-.661a35.347,35.347,0,0,0-12.846-2.041,35.713,35.713,0,0,0-12.44,2.1c-1.006.387-1.329.914-.766,1.7a39.086,39.086,0,0,1,27.066.162Zm-22.648,10.36c-.454-.594-.8-1.528-1.383-1.709-1.038-.322-1.4.7-1.579,1.524-.325,1.453-.494,2.941-.822,4.392-.441,1.957-1.034,3.882-1.415,5.848-.087.45.427,1.016.664,1.529.446-.288,1.114-.471,1.3-.878A37.667,37.667,0,0,0,123.305,49.786Zm20.58,2.665.347-.106a21.547,21.547,0,0,0-.94-2.969c-.256-.543-.891-.908-1.355-1.353-.283.584-.9,1.234-.794,1.741.7,3.477,1.54,6.926,2.349,10.381a.918.918,0,0,0,.318.563c.473.256,1.054.681,1.465.569a1.528,1.528,0,0,0,.678-1.317,40.836,40.836,0,0,0-1.037-4.3C144.616,54.577,144.232,53.519,143.885,52.451ZM45.579,41.194H39.517v2.453h5.89C45.464,42.837,45.515,42.108,45.579,41.194Zm172.9-.015a13.075,13.075,0,0,0,.185,1.867c.064.259.4.635.62.642,1.649.055,3.3.03,5.088.03a9.978,9.978,0,0,0-.033-1.847,1.012,1.012,0,0,0-.695-.661C221.985,41.151,220.325,41.179,218.477,41.179Zm8.168-.29c-.707.228-1.53.278-1.627.57a3.172,3.172,0,0,0,.046,2.035c.11.282.956.275,1.581.426ZM37.459,43.8c1.441-.026,1.56-.239,1.453-1.907-.072-1.133-.765-.755-1.453-.77ZM145.583,51.92c-.913,1.339-.372,2.316-.1,3.282.033.114.354.145.541.214.079-.222.258-.463.22-.663C146.087,53.909,145.861,53.077,145.583,51.92Zm-27.141.267q-.367,1.584-.734,3.169C118.89,54.788,119.16,53.6,118.442,52.187Z"/><path d="M132.055,238.5c-1.35-1.27-2.521-2.321-3.635-3.429-2.088-2.078-4.112-4.22-6.219-6.277q-4.611-4.5-9.314-8.908a2.545,2.545,0,0,1-.924-2.536c.451-2.651.767-5.326,1.16-7.988q1.966-13.329,3.951-26.656,1.972-13.262,3.953-26.52c1.02-6.878,2.039-13.756,3-20.642a3.838,3.838,0,0,0-.372-2.115q-2.835-5.661-5.808-11.252c-.975-1.844-2.05-3.635-3.252-5.753h34.714c-.25.6-.4,1.089-.642,1.528-.754,1.383-1.576,2.729-2.309,4.122-1.819,3.46-3.366,7.094-5.484,10.358-1.508,2.325-.891,4.335-.369,6.576.329,1.411.458,2.87.653,4.31,1,7.344,1.943,14.695,2.991,22.031,1.27,8.892,2.625,17.772,3.942,26.657q1.83,12.347,3.665,24.693c.089.6.274,1.185.449,1.921Zm-.038-.785c1.788-1.719,3.536-3.366,5.247-5.051,4.475-4.408,8.926-8.839,13.408-13.239a2.034,2.034,0,0,0,.678-1.977q-1.674-10.7-3.257-21.406-2.014-13.521-3.987-27.05-2.4-16.543-4.715-33.1c-.122-.87-.378-1.211-1.295-1.2q-6.153.053-12.307-.019c-.845-.009-1.137.279-1.253,1.1q-1.707,12.031-3.482,24.054c-1.307,8.886-2.646,17.768-3.954,26.654-.43,2.924-.777,5.859-1.214,8.782-1.106,7.4-2.257,14.792-3.333,22.2a2.337,2.337,0,0,0,.474,1.746c1.59,1.623,3.337,3.091,4.956,4.687,3.442,3.391,6.832,6.835,10.26,10.24C129.423,235.3,130.654,236.42,132.017,237.712Zm16.37-120.807H115.455c.967,1.664,1.851,3.063,2.616,4.524,2.081,3.974,4.095,7.982,6.189,11.948a1.65,1.65,0,0,0,1.178.775c4.323.057,8.648.053,12.971.01a1.735,1.735,0,0,0,1.15-.62,11.711,11.711,0,0,0,1.24-1.989C143.315,126.722,145.812,121.881,148.387,116.905Z"/><path class="cls-2" d="M78.2,24.042c9.183-.03,16.691.548,23.977,2.745a28.092,28.092,0,0,1,10.036,5.145c5.593,4.647,6.918,10.747,6.051,17.592a35.7,35.7,0,0,1-4.237,12.685,32.849,32.849,0,0,1-11.532,12.4c-7.778,4.8-16.347,6.306-25.364,5.656a41.03,41.03,0,0,1-14.166-3.514,23.908,23.908,0,0,1-4-2.293,32.789,32.789,0,0,1-6.616-6.19c-5.384-6.731-7.448-14.441-7.16-22.887.048-1.4.983-2.8.913-4.174a9.021,9.021,0,0,1,1.13-4.883,18.861,18.861,0,0,1,8.441-8.036C63.3,24.512,71.548,24.221,78.2,24.042Zm.905,1.414c-7.295.346-15.655.439-23.307,4.509a15.8,15.8,0,0,0-8.226,9.814,29.17,29.17,0,0,0,.707,17.53c1.768,5.2,4.345,9.8,8.518,13.381a33.594,33.594,0,0,0,6.128,4.3,35.993,35.993,0,0,0,14.6,3.8c8.944.579,17.417-.98,24.974-6.014A31.748,31.748,0,0,0,114.1,58.43,36.825,36.825,0,0,0,116.537,49c.778-5.842-.016-11.348-4.86-15.545-3.849-3.334-8.455-5.039-13.282-6.156A84.607,84.607,0,0,0,79.106,25.456Z"/><path class="cls-2" d="M182.378,24.018c7.227.075,13.481.327,19.584,1.965a26.746,26.746,0,0,1,11.25,5.814c2.316,2.074,3.532,4.693,4.637,7.38.513,1.247-.137,2.968.364,4.224,1.373,3.441.8,6.9.021,10.172a44.643,44.643,0,0,1-4.073,10.934,28.024,28.024,0,0,1-11.567,11.406A40.049,40.049,0,0,1,185.2,80.371a43.634,43.634,0,0,1-18.266-2.945,31.689,31.689,0,0,1-10.093-6.38,37.92,37.92,0,0,1-8.167-11.519,30.8,30.8,0,0,1-3.017-14.438,21.714,21.714,0,0,1,1.524-7.311c1.653-4.07,4.984-6.732,8.839-8.656C164.628,24.825,173.953,24.257,182.378,24.018Zm2.327,1.46c-10.276-.029-16.709.93-24.944,3.636a20.176,20.176,0,0,0-8.355,5.129,14.436,14.436,0,0,0-4.3,9.932,28.283,28.283,0,0,0,.348,6.317A36.8,36.8,0,0,0,153.131,64.4a38.42,38.42,0,0,0,5.982,6.639,24.5,24.5,0,0,0,4.313,3.018c7.369,4.062,15.316,5.337,23.632,4.685,7.2-.565,13.833-2.711,19.444-7.356a28.863,28.863,0,0,0,7.775-10.336,33.235,33.235,0,0,0,2.514-19.014,15.1,15.1,0,0,0-3.455-7.837c-3.045-3.566-6.976-5.419-11.305-6.65C195.994,25.833,189.776,25.6,184.705,25.478Z"/><path class="cls-2" d="M212.923,68.4c1.5,1.3,3.4,2.894,5.245,4.552a2.3,2.3,0,0,1,.055,3.028,2.878,2.878,0,0,1-3.682.749,22.493,22.493,0,0,1-2.64-2.5c-.709-.706-1.426-1.411-2.065-2.18-.18-.216-.254-.825-.107-.961C210.718,70.176,211.781,69.345,212.923,68.4Z"/><path class="cls-2" d="M54.425,71.6c-1.513,1.626-2.955,3.274-4.508,4.81a2.8,2.8,0,0,1-3.936-.223,2.387,2.387,0,0,1,.266-3.614c1.465-1.389,3.005-2.7,4.476-4.081.628-.591,1.007-.232,1.391.235C52.841,69.61,53.55,70.508,54.425,71.6Z"/><path class="cls-2" d="M145.953,39.426l-.4,1.264a39.086,39.086,0,0,0-27.066-.162c-.563-.791-.24-1.318.766-1.7a35.713,35.713,0,0,1,12.44-2.1,35.347,35.347,0,0,1,12.846,2.041C144.985,38.929,145.406,39.168,145.953,39.426Z"/><path class="cls-2" d="M123.305,49.786a37.667,37.667,0,0,1-3.231,10.706c-.19.407-.858.59-1.3.878-.237-.513-.751-1.079-.664-1.529.381-1.966.974-3.891,1.415-5.848.328-1.451.5-2.939.822-4.392.183-.819.541-1.846,1.579-1.524C122.5,48.258,122.851,49.192,123.305,49.786Z"/><path class="cls-2" d="M143.885,52.451c.347,1.068.731,2.126,1.031,3.208a40.836,40.836,0,0,1,1.037,4.3,1.528,1.528,0,0,1-.678,1.317c-.411.112-.992-.313-1.465-.569a.918.918,0,0,1-.318-.563c-.809-3.455-1.652-6.9-2.349-10.381-.1-.507.511-1.157.794-1.741.464.445,1.1.81,1.355,1.353a21.547,21.547,0,0,1,.94,2.969Z"/><path class="cls-2" d="M45.579,41.194c-.064.914-.115,1.643-.172,2.453h-5.89V41.194Z"/><path class="cls-2" d="M218.477,41.179c1.848,0,3.508-.028,5.165.031a1.012,1.012,0,0,1,.695.661,9.978,9.978,0,0,1,.033,1.847c-1.787,0-3.439.025-5.088-.03-.222-.007-.556-.383-.62-.642A13.075,13.075,0,0,1,218.477,41.179Z"/><path class="cls-2" d="M226.645,40.889V43.92c-.625-.151-1.471-.144-1.581-.426a3.172,3.172,0,0,1-.046-2.035C225.115,41.167,225.938,41.117,226.645,40.889Z"/><path class="cls-2" d="M37.459,43.8V41.125c.688.015,1.381-.363,1.453.77C39.019,43.563,38.9,43.776,37.459,43.8Z"/><path class="cls-2" d="M145.583,51.92c.278,1.157.5,1.989.664,2.833.038.2-.141.441-.22.663-.187-.069-.508-.1-.541-.214C145.211,54.236,144.67,53.259,145.583,51.92Z"/><path class="cls-2" d="M118.442,52.187c.718,1.417.448,2.6-.734,3.169Q118.074,53.772,118.442,52.187Z"/><path class="cls-2" d="M132.017,237.712c-1.363-1.292-2.594-2.413-3.774-3.585-3.428-3.405-6.818-6.849-10.26-10.24-1.619-1.6-3.366-3.064-4.956-4.687a2.337,2.337,0,0,1-.474-1.746c1.076-7.4,2.227-14.8,3.333-22.2.437-2.923.784-5.858,1.214-8.782,1.308-8.886,2.647-17.768,3.954-26.654q1.77-12.023,3.482-24.054c.116-.82.408-1.108,1.253-1.1q6.153.067,12.307.019c.917-.008,1.173.333,1.295,1.2q2.318,16.556,4.715,33.1,1.961,13.53,3.987,27.05,1.6,10.709,3.257,21.406a2.034,2.034,0,0,1-.678,1.977c-4.482,4.4-8.933,8.831-13.408,13.239C135.553,234.346,133.805,235.993,132.017,237.712Z"/><path class="cls-2" d="M148.387,116.905c-2.575,4.976-5.072,9.817-7.588,14.648a11.711,11.711,0,0,1-1.24,1.989,1.735,1.735,0,0,1-1.15.62c-4.323.043-8.648.047-12.971-.01a1.65,1.65,0,0,1-1.178-.775c-2.094-3.966-4.108-7.974-6.189-11.948-.765-1.461-1.649-2.86-2.616-4.524Z"/><path d="M79.106,25.456A84.607,84.607,0,0,1,98.4,27.3c4.827,1.117,9.433,2.822,13.282,6.156,4.844,4.2,5.638,9.7,4.86,15.545a36.825,36.825,0,0,1-2.442,9.43A31.748,31.748,0,0,1,102.5,72.777c-7.557,5.034-16.03,6.593-24.974,6.014a35.993,35.993,0,0,1-14.6-3.8,33.594,33.594,0,0,1-6.128-4.3c-4.173-3.577-6.75-8.184-8.518-13.381a29.17,29.17,0,0,1-.707-17.53A15.8,15.8,0,0,1,55.8,29.965C63.451,25.9,71.811,25.8,79.106,25.456ZM56.649,69.8a20.717,20.717,0,0,0,6.356,4.662,36.473,36.473,0,0,0,14.346,3.777c9,.618,17.55-.864,25.08-6.067A32.716,32.716,0,0,0,114.592,55.7a25.026,25.026,0,0,0,1.105-4.452c.314-1.979.442-3.988.653-6.015a5.812,5.812,0,0,0-.787-.13c-11.069.282-22.144.537-33.107,2.3a17.044,17.044,0,0,0-8.568,3.874,97.459,97.459,0,0,0-7.2,7.121c-2.25,2.408-4.332,4.972-6.494,7.462-.17.2-.4.335-.574.529C58.643,67.5,57.672,68.621,56.649,69.8ZM47.225,42.78c23.154.812,45.916,1.3,68.726-.274-.406-4.312-2.749-7.456-6.042-9.826-4.446-3.2-9.626-4.7-14.976-5.549a91.708,91.708,0,0,0-24.791-.59c-6.7.762-13.246,2.07-18.361,7.093C49.238,36.13,48.457,39.378,47.225,42.78Zm.068,2.4c-.915,5.81,2.035,16.206,5.845,20.427,2.385-2.049,4.793-4.074,7.152-6.155,3.03-2.672,5.93-5.5,9.058-8.048,2.263-1.844,4.806-3.346,7.227-5,.262-.178.544-.328,1.108-.665Zm8.829,24.274c2.765-3.04,5.313-5.877,7.9-8.677,2.647-2.866,5.3-5.723,8.007-8.537a18.608,18.608,0,0,1,10.922-5.4c1.937-.3,3.881-.562,5.822-.841-1.961-.255-3.913-.1-5.832-.287-3.886-.371-7.081,1.21-10,3.425-2.545,1.934-4.894,4.126-7.317,6.218q-3.236,2.795-6.44,5.623c-1.928,1.712-3.825,3.46-5.86,5.3ZM81.8,44.33l-.01-.28c-.617,0-1.235.012-1.852,0-10.451-.226-20.9-.464-31.352-.656-.438-.008-.884.41-1.326.63.4.211.792.6,1.2.608,21.959.528,43.919,1.12,65.874-.114.619-.034,1.769.516,1.764-.668-.006-1.219-1.161-.65-1.771-.631C103.475,43.559,92.635,43.95,81.8,44.33Z"/><path d="M184.705,25.478c5.071.121,11.289.355,17.326,2.072,4.329,1.231,8.26,3.084,11.305,6.65a15.1,15.1,0,0,1,3.455,7.837,33.235,33.235,0,0,1-2.514,19.014A28.863,28.863,0,0,1,206.5,71.387c-5.611,4.645-12.248,6.791-19.444,7.356-8.316.652-16.263-.623-23.632-4.685a24.5,24.5,0,0,1-4.313-3.018,38.42,38.42,0,0,1-5.982-6.639,36.8,36.8,0,0,1-5.677-13.909,28.283,28.283,0,0,1-.348-6.317,14.436,14.436,0,0,1,4.3-9.932,20.176,20.176,0,0,1,8.355-5.129C168,26.408,174.429,25.449,184.705,25.478ZM147.553,45.2c.155,2.572-.2,5.1,1.27,7.362a4.5,4.5,0,0,1,.413,1.506,12.224,12.224,0,0,0,.489,2.427c.884,1.993,1.859,3.95,2.878,5.878a28.613,28.613,0,0,0,9.529,10.2,31.171,31.171,0,0,0,9.2,4.207,43.925,43.925,0,0,0,19.392.956,29.92,29.92,0,0,0,14.535-6.167c2.039-1.69,2.021-1.708.23-3.693q-6.081-6.743-12.157-13.488a20.909,20.909,0,0,0-12.894-7.082,254.678,254.678,0,0,0-28.338-2.1C150.66,45.164,149.213,45.2,147.553,45.2Zm68.792-2.372a14.716,14.716,0,0,0-5.94-10.787,25.857,25.857,0,0,0-11.752-4.782A87.636,87.636,0,0,0,177.3,26.232c-7.331.523-14.564,1.493-21.14,5.147-3.282,1.824-5.945,4.208-7.263,7.845-.388,1.072-.783,2.141-1.2,3.279C170.714,44.155,193.445,43.554,216.345,42.832Zm-29.963,2.909a43.948,43.948,0,0,1,5.208,3.193c3.9,3.2,7.666,6.555,11.452,9.889,2.176,1.916,4.275,3.92,6.432,5.858a11.09,11.09,0,0,0,1.418.945c4.5-6.106,5.971-12.927,5.71-20.408Zm24.186,20.451a10.828,10.828,0,0,1-.933-.657q-6.55-5.818-13.091-11.648c-1.674-1.489-3.28-3.074-5.071-4.407A28.961,28.961,0,0,0,186.7,46.7c-3.946-1.894-8.139-.573-12.222-.806a33.746,33.746,0,0,0,4.393.693,20.844,20.844,0,0,1,12.973,5.55c2.518,2.438,4.9,5.022,7.263,7.614,2.192,2.4,4.259,4.919,6.421,7.35.688.774,1.5,1.434,2.322,2.2ZM182.061,44.157l0-.177c-4.94,0-9.883.1-14.82-.026-6.129-.155-12.253-.508-18.38-.727-.392-.014-.8.39-1.2.6.369.237.728.661,1.108.681,4.933.257,9.87.657,14.805.636,17.292-.072,34.584-.294,51.875-.459.177,0,.4.054.52-.029.22-.147.565-.424.53-.568a1.076,1.076,0,0,0-.577-.672,2.951,2.951,0,0,0-1.048-.025Z"/><path class="cls-2" d="M56.649,69.8c1.023-1.174,1.994-2.294,2.975-3.406.171-.194.4-.333.574-.529,2.162-2.49,4.244-5.054,6.494-7.462a97.459,97.459,0,0,1,7.2-7.121A17.044,17.044,0,0,1,82.456,47.4c10.963-1.768,22.038-2.023,33.107-2.3a5.812,5.812,0,0,1,.787.13c-.211,2.027-.339,4.036-.653,6.015a25.026,25.026,0,0,1-1.105,4.452,32.716,32.716,0,0,1-12.161,16.472c-7.53,5.2-16.083,6.685-25.08,6.067a36.473,36.473,0,0,1-14.346-3.777A20.717,20.717,0,0,1,56.649,69.8Z"/><path class="cls-2" d="M47.225,42.78c1.232-3.4,2.013-6.65,4.556-9.146C56.9,28.611,63.438,27.3,70.142,26.541a91.708,91.708,0,0,1,24.791.59c5.35.848,10.53,2.35,14.976,5.549,3.293,2.37,5.636,5.514,6.042,9.826C93.141,44.081,70.379,43.592,47.225,42.78Z"/><path class="cls-2" d="M47.293,45.183l30.39.563c-.564.337-.846.487-1.108.665-2.421,1.65-4.964,3.152-7.227,5-3.128,2.549-6.028,5.376-9.058,8.048-2.359,2.081-4.767,4.106-7.152,6.155C49.328,61.389,46.378,50.993,47.293,45.183Z"/><path class="cls-2" d="M56.122,69.457l-2.793-3.175c2.035-1.844,3.932-3.592,5.86-5.3q3.2-2.838,6.44-5.623c2.423-2.092,4.772-4.284,7.317-6.218,2.914-2.215,6.109-3.8,10-3.425,1.919.184,3.871.032,5.832.287-1.941.279-3.885.538-5.822.841a18.608,18.608,0,0,0-10.922,5.4c-2.7,2.814-5.36,5.671-8.007,8.537C61.435,63.58,58.887,66.417,56.122,69.457Z"/><path class="cls-2" d="M81.8,44.33c10.84-.38,21.68-.771,32.522-1.113.61-.019,1.765-.588,1.771.631.005,1.184-1.145.634-1.764.668-21.955,1.234-43.915.642-65.874.114-.4-.01-.8-.4-1.2-.608.442-.22.888-.638,1.326-.63,10.451.192,20.9.43,31.352.656.617.014,1.235,0,1.852,0Z"/><path class="cls-2" d="M147.553,45.2c1.66,0,3.107-.04,4.55.007a254.678,254.678,0,0,1,28.338,2.1,20.909,20.909,0,0,1,12.894,7.082q6.067,6.755,12.157,13.488c1.791,1.985,1.809,2-.23,3.693a29.92,29.92,0,0,1-14.535,6.167,43.925,43.925,0,0,1-19.392-.956,31.171,31.171,0,0,1-9.2-4.207,28.613,28.613,0,0,1-9.529-10.2c-1.019-1.928-1.994-3.885-2.878-5.878a12.224,12.224,0,0,1-.489-2.427,4.5,4.5,0,0,0-.413-1.506C147.355,50.3,147.708,47.776,147.553,45.2Z"/><path class="cls-2" d="M216.345,42.832c-22.9.722-45.631,1.323-68.649-.329.417-1.138.812-2.207,1.2-3.279,1.318-3.637,3.981-6.021,7.263-7.845,6.576-3.654,13.809-4.624,21.14-5.147a87.636,87.636,0,0,1,21.354,1.031,25.857,25.857,0,0,1,11.752,4.782A14.716,14.716,0,0,1,216.345,42.832Z"/><path class="cls-2" d="M186.382,45.741l30.22-.523c.261,7.481-1.205,14.3-5.71,20.408a11.09,11.09,0,0,1-1.418-.945c-2.157-1.938-4.256-3.942-6.432-5.858-3.786-3.334-7.555-6.69-11.452-9.889A43.948,43.948,0,0,0,186.382,45.741Z"/><path class="cls-2" d="M210.568,66.192l-2.714,3.115c-.817-.768-1.634-1.428-2.322-2.2-2.162-2.431-4.229-4.947-6.421-7.35-2.363-2.592-4.745-5.176-7.263-7.614a20.844,20.844,0,0,0-12.973-5.55,33.746,33.746,0,0,1-4.393-.693c4.083.233,8.276-1.088,12.222.806a28.961,28.961,0,0,1,4.769,2.776c1.791,1.333,3.4,2.918,5.071,4.407q6.549,5.82,13.091,11.648A10.828,10.828,0,0,0,210.568,66.192Z"/><path class="cls-2" d="M182.061,44.157l32.812-.766a2.951,2.951,0,0,1,1.048.025,1.076,1.076,0,0,1,.577.672c.035.144-.31.421-.53.568-.124.083-.343.027-.52.029-17.291.165-34.583.387-51.875.459-4.935.021-9.872-.379-14.805-.636-.38-.02-.739-.444-1.108-.681.4-.21.806-.614,1.2-.6,6.127.219,12.251.572,18.38.727,4.937.125,9.88.026,14.82.026Z"/></g></g></g></svg>