<svg id="Capa_1" data-name="Capa 1" xmlns="http://www.w3.org/2000/svg" xmlns:xlink="http://www.w3.org/1999/xlink" viewBox="0 0 261 261"><defs><style>.cls-1{fill:none;}.cls-2{fill:#fff;}.cls-3{clip-path:url(#clip-path);}.cls-4{clip-path:url(#clip-path-2);}.cls-5{clip-path:url(#clip-path-3);}.cls-6{clip-path:url(#clip-path-4);}</style><clipPath id="clip-path"><circle class="cls-1" cx="130.5" cy="130.5" r="116.5"/></clipPath><clipPath id="clip-path-2"><circle class="cls-2" cx="134.711" cy="134.711" r="120.711"/></clipPath><clipPath id="clip-path-3"><rect class="cls-2" x="-103.904" y="-32.374" width="530.566" height="134.856"/></clipPath><clipPath id="clip-path-4"><rect class="cls-2" x="-122.618" y="110.778" width="597.004" height="182.613"/></clipPath></defs><title>anteojos-casa-dibujo</title><g class="cls-3"><circle class="cls-2" cx="134.711" cy="134.711" r="120.711"/><g class="cls-4"><rect class="cls-2" x="-103.904" y="-32.374" width="530.566" height="134.856"/><g class="cls-5"><path class="cls-2" d="M-64.371,256.442V-1.666H346.853V256.442ZM66.991,80.475c-.35.292-.62.505-.875.735-1.133,1.016-2.3,2-3.38,3.067a2.229,2.229,0,0,0-.006,3.26,2.638,2.638,0,0,0,3.955-.139L69.9,83.951c1.367.956,2.641,1.97,4.03,2.787a28.859,28.859,0,0,0,4.467,2.2A35.109,35.109,0,0,0,95.007,90.7a28.011,28.011,0,0,0,18.535-9.418,24.223,24.223,0,0,0,4.835-8.059,8.26,8.26,0,0,1,.473-1.265,3.072,3.072,0,0,1,.637-.636,7.263,7.263,0,0,1-.227,2.817,1.328,1.328,0,0,0,.776,1.77c.744.37,1.277-.164,1.605-.766a21.4,21.4,0,0,0,2.352-8.647c.068-.852-.14-1.657-1.151-1.81-.978-.148-1.437.5-1.7,1.335-.175.558-.359,1.113-.539,1.67l-.344-.054c0-.385,0-.77,0-1.155.028-1.835.175-3.679.043-5.5-.072-1,.2-1.5,1.066-1.79a6.052,6.052,0,0,1,.988-.313,71.647,71.647,0,0,1,7.19-1.033,24.781,24.781,0,0,1,10.83,1.585,1.048,1.048,0,0,1,.752,1.234c-.066,2.005.019,4.014.036,6.022,0,.333-.034.667-.053,1l-.305.051a15.051,15.051,0,0,0-.985-2.092,1.978,1.978,0,0,0-1.214-.909c-.354-.027-.8.513-1.122.872-.6.662-.136,1.376.021,2.049.5,2.161,1.018,4.318,1.577,6.464a2.7,2.7,0,0,0,.71,1.359,1.264,1.264,0,0,0,2.273-.818,4.662,4.662,0,0,0-.176-1.534q-.124-.871-.252-1.744l.343-.106a5.021,5.021,0,0,1,.409.7,32.194,32.194,0,0,0,4.527,8.2,26.212,26.212,0,0,0,7.48,6.634,30.93,30.93,0,0,0,15.19,4.126c6.831.165,13.341-.958,19.063-5.026.887-.63,1.749-1.3,2.587-1.92.526.5,1.048.944,1.516,1.443.5.531.9,1.158,1.427,1.654a5.752,5.752,0,0,0,1.589,1.1,2.778,2.778,0,0,0,3.213-1.053,2.132,2.132,0,0,0-.354-2.846c-1.216-1.121-2.485-2.187-3.761-3.239-.488-.4-.665-.742-.192-1.272,1.942-2.176,2.764-4.943,3.688-7.587a29.341,29.341,0,0,0,1.017-6.136,25.187,25.187,0,0,0,.022-3.077,2.325,2.325,0,0,1,.421-.171c1.352-.041,2.711-.018,4.056-.14a2.4,2.4,0,0,0,1.625-.654,2.143,2.143,0,0,0-1.865-3.3c-1.319,0-2.639-.029-3.957.017-.6.021-.795-.233-1.028-.755a16.672,16.672,0,0,0-4.084-6.25,21.513,21.513,0,0,0-8.937-4.438A55.117,55.117,0,0,0,171.175,45.8c-7.424.08-14.794.6-21.613,3.958a14.834,14.834,0,0,0-7.535,7.388c-.1.238-.246.458-.332.616a31.335,31.335,0,0,0-22.038-.033c-.324-.546-.654-1.183-1.058-1.769a17.389,17.389,0,0,0-2.216-3c-3.482-3.23-7.766-4.886-12.333-5.84a72.416,72.416,0,0,0-21.142-1.035,34.669,34.669,0,0,0-10.934,2.39c-4.437,1.918-7.93,4.757-9.326,9.641a1.178,1.178,0,0,1-.9.574c-1.211.067-2.428.024-3.643.025-2.142,0-2.2.141-2.306,2.284-.062,1.215.4,1.61,1.727,1.679,1.178.061,2.36.095,3.539.081.669-.007.889.213.9.9.015,1.525.068,3.055.23,4.571A25.848,25.848,0,0,0,66.991,80.475Zm50.358,38.385-.236.286c.8,1.4,1.631,2.776,2.381,4.2q2.422,4.59,4.758,9.225a2.308,2.308,0,0,1,.165,1.285q-1.166,8.177-2.383,16.345-1.539,10.383-3.1,20.764-1.56,10.487-3.111,20.975c-.314,2.129-.561,4.269-.926,6.389a2,2,0,0,0,.742,1.99q3.7,3.471,7.328,7.011c1.658,1.619,3.25,3.305,4.893,4.939.876.871,1.8,1.7,2.849,2.686l15.839-15.62c-.148-.713-.293-1.28-.379-1.856q-1.423-9.507-2.829-19.016c-1.046-7.06-2.114-14.117-3.124-21.183-.771-5.395-1.463-10.8-2.2-16.2-.2-1.477-.362-2.965-.665-4.421-.36-1.728-.916-3.276.258-5.082,1.65-2.538,2.854-5.365,4.27-8.056.61-1.158,1.285-2.281,1.909-3.431a13.043,13.043,0,0,0,.5-1.228Z"/><path d="M66.991,80.475a25.848,25.848,0,0,1-4.8-12.241c-.162-1.516-.215-3.046-.23-4.571-.007-.69-.227-.91-.9-.9-1.179.014-2.361-.02-3.539-.081C56.192,62.61,55.735,62.215,55.8,61c.111-2.143.164-2.283,2.306-2.284,1.215,0,2.432.042,3.643-.025a1.178,1.178,0,0,0,.9-.574c1.4-4.884,4.889-7.723,9.326-9.641a34.669,34.669,0,0,1,10.934-2.39,72.416,72.416,0,0,1,21.142,1.035c4.567.954,8.851,2.61,12.333,5.84a17.389,17.389,0,0,1,2.216,3c.4.586.734,1.223,1.058,1.769a31.335,31.335,0,0,1,22.038.033c.086-.158.229-.378.332-.616a14.834,14.834,0,0,1,7.535-7.388c6.819-3.355,14.189-3.878,21.613-3.958a55.117,55.117,0,0,1,14.459,1.485,21.513,21.513,0,0,1,8.937,4.438,16.672,16.672,0,0,1,4.084,6.25c.233.522.426.776,1.028.755,1.318-.046,2.638-.013,3.957-.017a2.143,2.143,0,0,1,1.865,3.3,2.4,2.4,0,0,1-1.625.654c-1.345.122-2.7.1-4.056.14a2.325,2.325,0,0,0-.421.171,25.187,25.187,0,0,1-.022,3.077,29.341,29.341,0,0,1-1.017,6.136c-.924,2.644-1.746,5.411-3.688,7.587-.473.53-.3.869.192,1.272,1.276,1.052,2.545,2.118,3.761,3.239a2.132,2.132,0,0,1,.354,2.846,2.778,2.778,0,0,1-3.213,1.053,5.752,5.752,0,0,1-1.589-1.1c-.527-.5-.929-1.123-1.427-1.654-.468-.5-.99-.947-1.516-1.443-.838.623-1.7,1.29-2.587,1.92-5.722,4.068-12.232,5.191-19.063,5.026A30.93,30.93,0,0,1,154.4,86.81a26.212,26.212,0,0,1-7.48-6.634,32.194,32.194,0,0,1-4.527-8.2,5.021,5.021,0,0,0-.409-.7l-.343.106q.126.871.252,1.744a4.662,4.662,0,0,1,.176,1.534,1.264,1.264,0,0,1-2.273.818,2.7,2.7,0,0,1-.71-1.359c-.559-2.146-1.076-4.3-1.577-6.464-.157-.673-.62-1.387-.021-2.049.325-.359.768-.9,1.122-.872a1.978,1.978,0,0,1,1.214.909,15.051,15.051,0,0,1,.985,2.092l.305-.051c.019-.334.056-.668.053-1-.017-2.008-.1-4.017-.036-6.022a1.048,1.048,0,0,0-.752-1.234,24.781,24.781,0,0,0-10.83-1.585,71.647,71.647,0,0,0-7.19,1.033,6.052,6.052,0,0,0-.988.313c-.865.294-1.138.793-1.066,1.79.132,1.823-.015,3.667-.043,5.5-.006.385,0,.77,0,1.155l.344.054c.18-.557.364-1.112.539-1.67.263-.837.722-1.483,1.7-1.335,1.011.153,1.219.958,1.151,1.81a21.4,21.4,0,0,1-2.352,8.647c-.328.6-.861,1.136-1.605.766a1.328,1.328,0,0,1-.776-1.77,7.263,7.263,0,0,0,.227-2.817,3.072,3.072,0,0,0-.637.636,8.26,8.26,0,0,0-.473,1.265,24.223,24.223,0,0,1-4.835,8.059A28.011,28.011,0,0,1,95.007,90.7,35.109,35.109,0,0,1,78.4,88.934a28.859,28.859,0,0,1-4.467-2.2c-1.389-.817-2.663-1.831-4.03-2.787L66.685,87.4a2.638,2.638,0,0,1-3.955.139,2.229,2.229,0,0,1,.006-3.26c1.085-1.065,2.247-2.051,3.38-3.067C66.371,80.98,66.641,80.767,66.991,80.475ZM88.382,46.207c-5.318.135-11.811.382-17.805,3.354a14.649,14.649,0,0,0-6.62,6.348,6.5,6.5,0,0,0-.836,3.431c.054,1.254-.719,2.526-.759,3.8A25.645,25.645,0,0,0,73.232,85.9a18.315,18.315,0,0,0,3.152,1.8,33.48,33.48,0,0,0,13.333,2.854,31.831,31.831,0,0,0,17.771-4.573,26.04,26.04,0,0,0,9.059-9.773,28.271,28.271,0,0,0,3.322-9.986c.775-5.969-.664-11.149-5.888-14.621a27.691,27.691,0,0,0-6.824-3.209C101.456,46.566,95.526,46.186,88.382,46.207Zm83.627,0c-7.761-.008-16.6.917-22.41,3.973a14.59,14.59,0,0,0-6.8,6.422,14.335,14.335,0,0,0-1.317,4.884,22.882,22.882,0,0,0,2.56,13.06c.882,1.631,1.828,3.233,2.839,4.787a22.743,22.743,0,0,0,6.659,6.452,26.257,26.257,0,0,0,7.832,3.52,36.316,36.316,0,0,0,18.325.2,25.364,25.364,0,0,0,10.339-5.1,20.982,20.982,0,0,0,5.18-6.135,35.638,35.638,0,0,0,3.2-8.172c.688-2.816,1.21-5.768.082-8.721-.37-.967.13-2.276-.262-3.225a15.054,15.054,0,0,0-3.635-5.816,21.122,21.122,0,0,0-8.943-4.615A55.574,55.574,0,0,0,172.009,46.207ZM194.38,81.145c-.941.754-1.764,1.376-2.529,2.063a.794.794,0,0,0,.048.756q1.164,1.374,2.426,2.666a6.321,6.321,0,0,0,1.355,1.082,2.331,2.331,0,0,0,2.881-.7,1.831,1.831,0,0,0-.136-2.38C196.985,83.365,195.519,82.125,194.38,81.145ZM69.628,83.634c-.689-.863-1.253-1.653-1.918-2.346a1.007,1.007,0,0,0-.984-.054c-1.22,1.016-2.4,2.085-3.549,3.179a1.865,1.865,0,0,0-.244,2.766,2.182,2.182,0,0,0,3.086.283C67.277,86.245,68.429,84.918,69.628,83.634Zm72.017-25.317c-.414-.2-.772-.4-1.152-.536a27.525,27.525,0,0,0-9.8-1.595,28.426,28.426,0,0,0-10,1.631c-.793.3-1.17.692-.552,1.49,4.253-2.174,14.307-2.973,21.172.041Zm-17.834,8.141c-.328-.46-.565-1.169-1-1.328-.816-.3-1.128.466-1.292,1.121-.2.8-.313,1.621-.473,2.431-.154.781-.3,1.565-.484,2.339-.271,1.131-.641,2.244-.824,3.387-.056.355.357.786.555,1.182.346-.239.859-.4,1.012-.729A29.284,29.284,0,0,0,123.811,66.458Zm16.2,2.031.308-.1c-.326-.935-.613-1.888-1-2.8a.971.971,0,0,0-.8-.475c-.247.04-.531.415-.624.7a2.24,2.24,0,0,0-.034,1.127q.808,3.639,1.685,7.263a1.622,1.622,0,0,0,.473.9,1.681,1.681,0,0,0,1.171.369c.227-.05.516-.672.462-.984-.2-1.142-.5-2.267-.81-3.386C140.6,70.226,140.292,69.362,140.013,68.489ZM62.667,59.706H57.9v1.927h4.634Zm140.579.045h-4.423c-.13,1.935-.13,1.934,1.625,1.934.449,0,.9.006,1.346,0,1.684,0,1.684,0,1.519-1.726A2.121,2.121,0,0,0,203.246,59.751Zm1.889-.216c-.5.109-1.174.1-1.251.306a2.413,2.413,0,0,0-.018,1.6c.1.251.775.274,1.269.423ZM56.269,61.769c1.088.126,1.178.011,1.139-1.546-.022-.9-.616-.56-1.139-.545Zm85.161,6.639c-.752.767-.381,1.536-.166,2.291.028.1.269.138.411.2.076-.167.238-.349.211-.5C141.763,69.735,141.587,69.074,141.43,68.408ZM119.4,70.97a1.892,1.892,0,0,0,.635-2.768Z"/><path d="M117.349,118.86h26.946a13.043,13.043,0,0,1-.5,1.228c-.624,1.15-1.3,2.273-1.909,3.431-1.416,2.691-2.62,5.518-4.27,8.056-1.174,1.806-.618,3.354-.258,5.082.3,1.456.464,2.944.665,4.421.736,5.4,1.428,10.805,2.2,16.2,1.01,7.066,2.078,14.123,3.124,21.183q1.409,9.508,2.829,19.016c.086.576.231,1.143.379,1.856l-15.839,15.62c-1.052-.989-1.973-1.815-2.849-2.686-1.643-1.634-3.235-3.32-4.893-4.939q-3.629-3.543-7.328-7.011a2,2,0,0,1-.742-1.99c.365-2.12.612-4.26.926-6.389q1.548-10.488,3.111-20.975,1.545-10.383,3.1-20.764,1.21-8.171,2.383-16.345a2.308,2.308,0,0,0-.165-1.285q-2.337-4.633-4.758-9.225c-.75-1.422-1.585-2.8-2.381-4.2Zm13.335,95.478c1.407-1.353,2.782-2.649,4.128-3.975,3.522-3.468,7.024-6.955,10.551-10.418a1.6,1.6,0,0,0,.533-1.555q-1.317-8.416-2.562-16.843-1.586-10.641-3.137-21.285-1.886-13.017-3.711-26.044c-.1-.684-.3-.952-1.019-.946q-4.842.041-9.684-.015c-.665-.008-.894.219-.986.865q-1.343,9.466-2.739,18.926c-1.029,6.993-2.082,13.982-3.111,20.974-.339,2.3-.612,4.61-.956,6.91-.87,5.822-1.776,11.639-2.623,17.465a1.836,1.836,0,0,0,.374,1.374c1.25,1.277,2.625,2.433,3.9,3.688,2.708,2.669,5.376,5.378,8.073,8.057C128.643,212.439,129.611,213.321,130.684,214.338Zm12.884-95.063H117.651c.76,1.308,1.454,2.408,2.056,3.557,1.637,3.126,3.222,6.28,4.869,9.4a1.3,1.3,0,0,0,.923.617c3.4.045,6.8.041,10.207.008a1.366,1.366,0,0,0,.908-.481,9.059,9.059,0,0,0,.976-1.565C139.571,127.01,141.537,123.2,143.568,119.275Z"/><path class="cls-2" d="M88.382,46.207c7.144-.021,13.074.359,18.775,2.185a27.691,27.691,0,0,1,6.824,3.209c5.224,3.472,6.663,8.652,5.888,14.621a28.271,28.271,0,0,1-3.322,9.986,26.04,26.04,0,0,1-9.059,9.773,31.831,31.831,0,0,1-17.771,4.573A33.48,33.48,0,0,1,76.384,87.7a18.315,18.315,0,0,1-3.152-1.8,25.645,25.645,0,0,1-10.87-22.76c.04-1.276.813-2.548.759-3.8a6.5,6.5,0,0,1,.836-3.431,14.649,14.649,0,0,1,6.62-6.348C76.571,46.589,83.064,46.342,88.382,46.207Zm1.111,43.178c8.16-.109,14.781-1.764,20.751-7.048a24.2,24.2,0,0,0,6.314-9.012,30.8,30.8,0,0,0,1.949-7.519c.622-4.644-.058-9-3.936-12.288a23.616,23.616,0,0,0-10.383-4.755,62.069,62.069,0,0,0-16.032-1.4c-6.009.226-12,.581-17.484,3.517a12.443,12.443,0,0,0-6.445,7.748,22.978,22.978,0,0,0,.549,13.694,23.363,23.363,0,0,0,6.749,10.619,25.033,25.033,0,0,0,4.738,3.322A29.178,29.178,0,0,0,89.493,89.385Z"/><path class="cls-2" d="M172.009,46.207a55.574,55.574,0,0,1,13.648,1.515,21.122,21.122,0,0,1,8.943,4.615,15.054,15.054,0,0,1,3.635,5.816c.392.949-.108,2.258.262,3.225,1.128,2.953.606,5.905-.082,8.721a35.638,35.638,0,0,1-3.2,8.172,20.982,20.982,0,0,1-5.18,6.135,25.364,25.364,0,0,1-10.339,5.1,36.316,36.316,0,0,1-18.325-.2,26.257,26.257,0,0,1-7.832-3.52,22.743,22.743,0,0,1-6.659-6.452c-1.011-1.554-1.957-3.156-2.839-4.787a22.882,22.882,0,0,1-2.56-13.06,14.335,14.335,0,0,1,1.317-4.884,14.59,14.59,0,0,1,6.8-6.422C155.41,47.124,164.248,46.2,172.009,46.207Zm-1.242,1.1c-7,.261-14.392.631-21.142,4.211a12.251,12.251,0,0,0-6.712,8.236,19.148,19.148,0,0,0,.774,10.621A25.755,25.755,0,0,0,147.73,78.5a51.523,51.523,0,0,0,4.331,4.725,15.827,15.827,0,0,0,3.3,2.319,32.428,32.428,0,0,0,18.695,3.7,26.536,26.536,0,0,0,15.205-5.759,22.546,22.546,0,0,0,6.175-8.217A26.116,26.116,0,0,0,197.325,60a11.638,11.638,0,0,0-2.695-5.846,17.311,17.311,0,0,0-8.816-5.175C181.031,47.613,176.1,47.425,170.767,47.308Z"/><path class="cls-2" d="M194.38,81.145c1.139.98,2.605,2.22,4.045,3.489a1.831,1.831,0,0,1,.136,2.38,2.331,2.331,0,0,1-2.881.7,6.321,6.321,0,0,1-1.355-1.082q-1.26-1.288-2.426-2.666a.794.794,0,0,1-.048-.756C192.616,82.521,193.439,81.9,194.38,81.145Z"/><path class="cls-2" d="M69.628,83.634c-1.2,1.284-2.351,2.611-3.609,3.828a2.182,2.182,0,0,1-3.086-.283,1.865,1.865,0,0,1,.244-2.766c1.152-1.094,2.329-2.163,3.549-3.179a1.007,1.007,0,0,1,.984.054C68.375,81.981,68.939,82.771,69.628,83.634Z"/><path class="cls-2" d="M141.645,58.317l-.331,1.031c-6.865-3.014-16.919-2.215-21.172-.041-.618-.8-.241-1.189.552-1.49a28.426,28.426,0,0,1,10-1.631,27.525,27.525,0,0,1,9.8,1.595C140.873,57.921,141.231,58.122,141.645,58.317Z"/><path class="cls-2" d="M123.811,66.458a29.284,29.284,0,0,1-2.508,8.4c-.153.329-.666.49-1.012.728-.2-.395-.611-.826-.555-1.181.183-1.143.553-2.256.824-3.387.185-.774.33-1.558.484-2.339.16-.81.273-1.631.473-2.431.164-.655.476-1.416,1.292-1.121C123.246,65.289,123.483,66,123.811,66.458Z"/><path class="cls-2" d="M140.013,68.489c.279.873.588,1.737.831,2.62.309,1.119.614,2.244.81,3.386.054.312-.235.934-.462.984a1.681,1.681,0,0,1-1.171-.369,1.622,1.622,0,0,1-.473-.9q-.873-3.624-1.685-7.263a2.24,2.24,0,0,1,.034-1.127c.093-.285.377-.66.624-.7a.971.971,0,0,1,.8.475c.392.907.679,1.86,1,2.8Z"/><path class="cls-2" d="M62.667,59.706l-.132,1.927H57.9V59.706Z"/><path class="cls-2" d="M203.246,59.751a2.121,2.121,0,0,1,.067.213c.165,1.724.165,1.724-1.519,1.726-.449,0-.9,0-1.346,0-1.755,0-1.755,0-1.625-1.934Z"/><path class="cls-2" d="M205.135,59.535v2.333c-.494-.149-1.169-.172-1.269-.423a2.413,2.413,0,0,1,.018-1.6C203.961,59.633,204.637,59.644,205.135,59.535Z"/><path class="cls-2" d="M56.269,61.769V59.678c.523-.015,1.117-.356,1.139.545C57.447,61.78,57.357,61.9,56.269,61.769Z"/><path class="cls-2" d="M141.43,68.408c.157.666.333,1.327.456,2,.027.148-.135.33-.211.5-.142-.067-.383-.106-.411-.2C141.049,69.944,140.678,69.175,141.43,68.408Z"/><path class="cls-2" d="M119.4,70.97l.635-2.768A1.892,1.892,0,0,1,119.4,70.97Z"/><path class="cls-2" d="M130.684,214.338c-1.073-1.017-2.041-1.9-2.97-2.822-2.7-2.679-5.365-5.388-8.073-8.057-1.274-1.255-2.649-2.411-3.9-3.688a1.836,1.836,0,0,1-.374-1.374c.847-5.826,1.753-11.643,2.623-17.465.344-2.3.617-4.61.956-6.91,1.029-6.992,2.082-13.981,3.111-20.974q1.392-9.459,2.739-18.926c.092-.646.321-.873.986-.865q4.842.053,9.684.015c.722-.006.923.262,1.019.946q1.824,13.026,3.711,26.044,1.54,10.647,3.137,21.285,1.254,8.425,2.562,16.843a1.6,1.6,0,0,1-.533,1.555c-3.527,3.463-7.029,6.95-10.551,10.418C133.466,211.689,132.091,212.985,130.684,214.338Z"/><path class="cls-2" d="M143.568,119.275c-2.031,3.925-4,7.735-5.978,11.537a9.059,9.059,0,0,1-.976,1.565,1.366,1.366,0,0,1-.908.481c-3.4.033-6.8.037-10.207-.008a1.3,1.3,0,0,1-.923-.617c-1.647-3.121-3.232-6.275-4.869-9.4-.6-1.149-1.3-2.249-2.056-3.557Z"/><path d="M89.493,89.385a29.178,29.178,0,0,1-13.23-3.119,25.033,25.033,0,0,1-4.738-3.322,23.363,23.363,0,0,1-6.749-10.619,22.978,22.978,0,0,1-.549-13.694,12.443,12.443,0,0,1,6.445-7.748c5.48-2.936,11.475-3.291,17.484-3.517a62.069,62.069,0,0,1,16.032,1.4,23.616,23.616,0,0,1,10.383,4.755c3.878,3.286,4.558,7.644,3.936,12.288a30.8,30.8,0,0,1-1.949,7.519,24.2,24.2,0,0,1-6.314,9.012C104.274,87.621,97.653,89.276,89.493,89.385ZM71.342,82.166a16.363,16.363,0,0,0,5.048,3.717,28.7,28.7,0,0,0,11.29,2.968c7.079.483,13.808-.686,19.732-4.78A25.75,25.75,0,0,0,116.943,71.2a20.143,20.143,0,0,0,.9-3.6c.25-1.555.347-3.135.512-4.729a5.121,5.121,0,0,0-.629-.095c-8.675.224-17.356.413-25.947,1.8a14.056,14.056,0,0,0-7.4,3.535c-1.421,1.31-2.749,2.724-4.074,4.132-1.183,1.258-2.3,2.58-3.456,3.861C75.047,78.1,73.234,80.085,71.342,82.166ZM64,60.956c18.206.632,36.112,1.022,54.046-.221a10.587,10.587,0,0,0-4.781-7.745,26.963,26.963,0,0,0-11.787-4.356,72.284,72.284,0,0,0-19.4-.469c-5.313.6-10.5,1.629-14.544,5.605C65.534,55.728,64.9,58.285,64,60.956Zm4.617,17.985c2.065-1.8,4.107-3.554,6.121-5.34,1.578-1.4,3.1-2.858,4.686-4.251,1.111-.979,2.237-1.948,3.43-2.821,1.545-1.131,3.162-2.162,4.729-3.223a.981.981,0,0,0-.275-.063q-11.3-.2-22.593-.4c-.656-.013-.822.229-.827.845a24.1,24.1,0,0,0,1.137,7.971A20.888,20.888,0,0,0,68.614,78.941ZM96.656,63.5l.017-.212c-1.558,0-3.126.115-4.672-.024-3.181-.285-5.759,1.067-8.1,2.927-2.321,1.847-4.482,3.895-6.724,5.843-1.248,1.084-2.533,2.125-3.773,3.218-1.524,1.343-3.018,2.721-4.645,4.191l2.2,2.5c2.192-2.41,4.174-4.617,6.188-6.8,2.131-2.3,4.263-4.61,6.448-6.864a14.51,14.51,0,0,1,8.33-4.115C93.5,63.905,95.082,63.717,96.656,63.5Zm-3.4-1.4c-10.843-.264-19.551-.482-28.26-.663-.334-.007-.676.342-1.015.526.325.155.646.441.974.449,17.278.415,34.558.878,51.833-.093.479-.027,1.4.425,1.356-.553-.045-.919-.935-.483-1.422-.467C108.2,61.566,99.665,61.873,93.26,62.1Z"/><path d="M170.767,47.308c5.336.117,10.264.3,15.047,1.667a17.311,17.311,0,0,1,8.816,5.175A11.638,11.638,0,0,1,197.325,60a26.116,26.116,0,0,1-1.886,15.274,22.546,22.546,0,0,1-6.175,8.217,26.536,26.536,0,0,1-15.205,5.759,32.428,32.428,0,0,1-18.695-3.7,15.827,15.827,0,0,1-3.3-2.319A51.523,51.523,0,0,1,147.73,78.5a25.755,25.755,0,0,1-4.043-8.126,19.148,19.148,0,0,1-.774-10.621,12.251,12.251,0,0,1,6.712-8.236C156.375,47.939,163.763,47.569,170.767,47.308ZM142.91,62.86c.119,2.017-.157,4,.994,5.784a3.547,3.547,0,0,1,.328,1.184,9.616,9.616,0,0,0,.383,1.911c.694,1.568,1.461,3.108,2.263,4.626a22.376,22.376,0,0,0,7.409,7.97,23.349,23.349,0,0,0,7.429,3.384c8.4,2.15,16.573,1.743,24.316-2.473a38.082,38.082,0,0,0,4.038-2.937c-.623-.635-1.111-1.1-1.563-1.6q-4.791-5.3-9.568-10.611A16.446,16.446,0,0,0,168.8,64.52a200.191,200.191,0,0,0-22.3-1.655C145.362,62.828,144.223,62.86,142.91,62.86Zm.117-2.124c18.138,1.294,36.047.834,54.012.25a11.364,11.364,0,0,0-3.6-7.513c-2.906-2.8-6.565-4.057-10.433-4.741a68.938,68.938,0,0,0-21.461-.326c-5.464.749-10.778,2-15.047,5.9C144.592,56.037,143.857,58.335,143.027,60.736Zm30.8,2.54c2.035,1.482,4.275,2.907,6.276,4.613,3.81,3.248,7.481,6.66,11.218,9.994.447.4.949.734,1.4,1.082,3.581-4.851,4.733-10.238,4.517-16.1Zm-9.728,0-.016.246c1.153.144,2.3.314,3.461.426a16.442,16.442,0,0,1,10.288,4.428c1.95,1.9,3.8,3.906,5.64,5.92,1.723,1.892,3.349,3.873,5.053,5.783.543.608,1.2,1.116,1.852,1.716l2.1-2.4c-1.336-1.149-2.625-2.233-3.887-3.347-3.315-2.927-6.586-5.905-9.943-8.782a27.105,27.105,0,0,0-4.066-2.842,7.5,7.5,0,0,0-3.11-1.1C169.02,63.169,166.554,63.278,164.1,63.278Zm5.988-1.242,0-.136c-3.853,0-7.708.079-11.558-.02-4.857-.124-9.711-.393-14.566-.6-.44-.018-1.019-.135-.93.57.025.192.523.448.814.462,4.229.2,8.461.527,12.691.51,13.26-.054,26.519-.239,39.778-.374a1.193,1.193,0,0,0,.512-.035c.153-.083.353-.285.34-.417a.709.709,0,0,0-.332-.534,2.961,2.961,0,0,0-.929-.031Q182.993,61.733,170.084,62.036Z"/><path class="cls-2" d="M71.342,82.166c1.892-2.081,3.7-4.065,5.507-6.059,1.158-1.281,2.273-2.6,3.456-3.861,1.325-1.408,2.653-2.822,4.074-4.132a14.056,14.056,0,0,1,7.4-3.535c8.591-1.39,17.272-1.579,25.947-1.8a5.121,5.121,0,0,1,.629.095c-.165,1.594-.262,3.174-.512,4.729a20.143,20.143,0,0,1-.9,3.6,25.75,25.75,0,0,1-9.531,12.868c-5.924,4.094-12.653,5.263-19.732,4.78a28.7,28.7,0,0,1-11.29-2.968A16.363,16.363,0,0,1,71.342,82.166Z"/><path class="cls-2" d="M64,60.956c.905-2.671,1.537-5.228,3.529-7.186,4.044-3.976,9.231-5.009,14.544-5.605a72.284,72.284,0,0,1,19.405.469,26.963,26.963,0,0,1,11.787,4.356,10.587,10.587,0,0,1,4.781,7.745C100.109,61.978,82.2,61.588,64,60.956Z"/><path class="cls-2" d="M68.614,78.941a20.888,20.888,0,0,1-3.592-7.286,24.1,24.1,0,0,1-1.137-7.971c.005-.616.171-.858.827-.845q11.3.221,22.593.4a.981.981,0,0,1,.275.063c-1.567,1.061-3.184,2.092-4.729,3.223-1.193.873-2.319,1.842-3.43,2.821-1.583,1.393-3.108,2.851-4.686,4.251C72.721,75.387,70.679,77.142,68.614,78.941Z"/><path class="cls-2" d="M96.656,63.5c-1.574.221-3.154.409-4.722.67a14.51,14.51,0,0,0-8.33,4.115c-2.185,2.254-4.317,4.559-6.448,6.864-2.014,2.179-4,4.386-6.188,6.8l-2.2-2.5c1.627-1.47,3.121-2.848,4.645-4.191,1.24-1.093,2.525-2.134,3.773-3.218,2.242-1.948,4.4-4,6.724-5.843,2.337-1.86,4.915-3.212,8.1-2.927,1.546.139,3.114.024,4.672.024Z"/><path class="cls-2" d="M93.26,62.1c6.405-.225,14.935-.532,23.466-.8.487-.016,1.377-.452,1.422.467.047.978-.877.526-1.356.553-17.275.971-34.555.508-51.833.093-.328-.008-.649-.294-.974-.449.339-.184.681-.533,1.015-.526C73.709,61.616,82.417,61.834,93.26,62.1Z"/><path class="cls-2" d="M142.91,62.86c1.313,0,2.452-.032,3.588.005a200.191,200.191,0,0,1,22.3,1.655A16.446,16.446,0,0,1,178.939,70.1q4.775,5.315,9.568,10.611c.452.5.94.965,1.563,1.6a38.082,38.082,0,0,1-4.038,2.937c-7.743,4.216-15.916,4.623-24.316,2.473a23.349,23.349,0,0,1-7.429-3.384,22.376,22.376,0,0,1-7.409-7.97c-.8-1.518-1.569-3.058-2.263-4.626a9.616,9.616,0,0,1-.383-1.911,3.547,3.547,0,0,0-.328-1.184C142.753,66.862,143.029,64.877,142.91,62.86Z"/><path class="cls-2" d="M143.027,60.736c.83-2.4,1.565-4.7,3.469-6.435,4.269-3.894,9.583-5.146,15.047-5.9A68.938,68.938,0,0,1,183,48.732c3.868.684,7.527,1.936,10.433,4.741a11.364,11.364,0,0,1,3.6,7.513C179.074,61.57,161.165,62.03,143.027,60.736Z"/><path class="cls-2" d="M173.824,63.276l23.415-.407c.216,5.858-.936,11.245-4.517,16.1-.455-.348-.957-.683-1.4-1.082-3.737-3.334-7.408-6.746-11.218-9.994C178.1,66.183,175.859,64.758,173.824,63.276Z"/><path class="cls-2" d="M164.1,63.278c2.458,0,4.924-.109,7.372.051a7.5,7.5,0,0,1,3.11,1.1,27.105,27.105,0,0,1,4.066,2.842c3.357,2.877,6.628,5.855,9.943,8.782,1.262,1.114,2.551,2.2,3.887,3.347l-2.1,2.4c-.654-.6-1.309-1.108-1.852-1.716-1.7-1.91-3.33-3.891-5.053-5.783-1.835-2.014-3.69-4.018-5.64-5.92a16.442,16.442,0,0,0-10.288-4.428c-1.157-.112-2.308-.282-3.461-.426Z"/><path class="cls-2" d="M170.084,62.036q12.909-.3,25.818-.6a2.961,2.961,0,0,1,.929.031.709.709,0,0,1,.332.534c.013.132-.187.334-.34.417a1.193,1.193,0,0,1-.512.035c-13.259.135-26.518.32-39.778.374-4.23.017-8.462-.309-12.691-.51-.291-.014-.789-.27-.814-.462-.089-.7.49-.588.93-.57,4.855.2,9.709.473,14.566.6,3.85.1,7.705.02,11.558.02Z"/></g><rect class="cls-2" x="-122.618" y="110.778" width="597.004" height="182.613"/><g class="cls-6"><path class="cls-2" d="M-100.333,285.684V-21.26H388.944V285.684ZM56.131,76.422c-.416.348-.737.6-1.041.875-1.346,1.208-2.729,2.381-4.019,3.647a2.65,2.65,0,0,0-.008,3.876,3.137,3.137,0,0,0,4.7-.165l3.822-4.1c1.624,1.138,3.139,2.343,4.792,3.315a34.272,34.272,0,0,0,5.311,2.611,41.766,41.766,0,0,0,19.756,2.1c8.71-1.014,16.229-4.543,22.042-11.2a28.8,28.8,0,0,0,5.749-9.583,9.9,9.9,0,0,1,.563-1.5,3.645,3.645,0,0,1,.758-.756,8.627,8.627,0,0,1-.271,3.35,1.58,1.58,0,0,0,.924,2.105c.884.44,1.518-.195,1.908-.911a25.446,25.446,0,0,0,2.8-10.283c.081-1.013-.167-1.97-1.369-2.152-1.163-.177-1.709.592-2.021,1.588-.208.663-.427,1.323-.641,1.985l-.409-.064c0-.458-.006-.915,0-1.373.033-2.183.208-4.375.051-6.544-.086-1.185.239-1.779,1.268-2.129a7.2,7.2,0,0,1,1.174-.372,85.094,85.094,0,0,1,8.55-1.227A29.462,29.462,0,0,1,143.4,51.39a1.245,1.245,0,0,1,.894,1.468c-.078,2.384.023,4.773.044,7.161,0,.4-.042.794-.064,1.191l-.363.059a17.96,17.96,0,0,0-1.17-2.487A2.354,2.354,0,0,0,141.3,57.7c-.42-.032-.947.61-1.334,1.037-.713.788-.161,1.636.025,2.437.6,2.569,1.211,5.135,1.875,7.687a3.2,3.2,0,0,0,.845,1.615,1.5,1.5,0,0,0,2.7-.971,5.559,5.559,0,0,0-.21-1.825c-.1-.692-.2-1.383-.3-2.074l.407-.127a5.98,5.98,0,0,1,.487.836,38.279,38.279,0,0,0,5.384,9.751,31.162,31.162,0,0,0,8.895,7.89,36.8,36.8,0,0,0,18.064,4.906c8.124.2,15.865-1.14,22.67-5.977,1.055-.75,2.08-1.542,2.952-2.191.679.568,1.349,1.051,1.923,1.628.609.613,1.074,1.373,1.7,1.963a6.825,6.825,0,0,0,1.89,1.311,3.3,3.3,0,0,0,3.82-1.252,2.536,2.536,0,0,0-.42-3.385c-1.447-1.332-2.955-2.6-4.473-3.852-.581-.478-.791-.881-.228-1.512,2.309-2.587,3.286-5.878,4.385-9.023A36.136,36.136,0,0,0,213.6,55.28c1.958,0,3.647.072,5.325-.035a2.776,2.776,0,0,0,1.932-.775,2.55,2.55,0,0,0-2.218-3.93c-1.569.005-3.139-.033-4.706.021-.716.025-.946-.277-1.222-.9-1.215-2.73-2.484-5.384-4.858-7.433a25.589,25.589,0,0,0-10.627-5.277,65.578,65.578,0,0,0-17.2-1.766c-8.829.095-17.593.717-25.7,4.707-3.922,1.93-7.17,4.636-8.961,8.785a7.969,7.969,0,0,1-.4.733,37.258,37.258,0,0,0-26.208-.038c-.384-.65-.777-1.408-1.258-2.105a20.7,20.7,0,0,0-2.635-3.567c-4.14-3.84-9.235-5.809-14.666-6.944a86.076,86.076,0,0,0-25.142-1.23,41.2,41.2,0,0,0-13,2.841c-5.276,2.282-9.431,5.657-11.09,11.466a1.409,1.409,0,0,1-1.073.683c-1.44.079-2.888.028-4.333.029-2.547,0-2.61.167-2.742,2.716-.074,1.445.469,1.915,2.054,2,1.4.072,2.806.112,4.208.1.8-.009,1.057.253,1.065,1.074.019,1.813.082,3.633.274,5.435A30.739,30.739,0,0,0,56.131,76.422Zm75.78,159.925,18.855-18.6c-.164-.689-.337-1.237-.421-1.8q-1.725-11.551-3.429-23.106c-1.233-8.314-2.5-16.624-3.688-24.944-.981-6.865-1.866-13.744-2.8-20.615-.183-1.348-.3-2.713-.612-4.034-.488-2.1-1.065-3.977.346-6.153,1.982-3.055,3.429-6.455,5.132-9.693.685-1.3,1.454-2.563,2.16-3.857.224-.41.367-.865.6-1.43H115.573c1.124,1.982,2.13,3.658,3.043,5.384q2.769,5.237,5.434,10.528a3.586,3.586,0,0,1,.348,1.98c-.9,6.443-1.853,12.879-2.807,19.315q-1.839,12.409-3.7,24.816-1.855,12.471-3.7,24.944c-.368,2.491-.664,4.993-1.086,7.474a2.383,2.383,0,0,0,.865,2.373q4.4,4.122,8.716,8.336c1.971,1.925,3.865,3.929,5.819,5.873C129.551,234.175,130.647,235.159,131.911,236.347Z"/><path d="M56.131,76.422A30.739,30.739,0,0,1,50.42,61.865c-.192-1.8-.255-3.622-.274-5.435-.008-.821-.269-1.083-1.065-1.074-1.4.016-2.807-.024-4.208-.1-1.585-.082-2.128-.552-2.054-2,.132-2.549.2-2.715,2.742-2.716,1.445,0,2.893.05,4.333-.029a1.409,1.409,0,0,0,1.073-.683c1.659-5.809,5.814-9.184,11.09-11.466a41.2,41.2,0,0,1,13-2.841,86.076,86.076,0,0,1,25.142,1.23c5.431,1.135,10.526,3.1,14.666,6.944a20.7,20.7,0,0,1,2.635,3.567c.481.7.874,1.455,1.258,2.105a37.258,37.258,0,0,1,26.208.038,7.969,7.969,0,0,0,.4-.733c1.791-4.149,5.039-6.855,8.961-8.785,8.109-3.99,16.873-4.612,25.7-4.707a65.578,65.578,0,0,1,17.2,1.766,25.589,25.589,0,0,1,10.627,5.277c2.374,2.049,3.643,4.7,4.858,7.433.276.621.506.923,1.222.9,1.567-.054,3.137-.016,4.706-.021a2.55,2.55,0,0,1,2.218,3.93,2.776,2.776,0,0,1-1.932.775c-1.678.107-3.367.035-5.325.035a36.136,36.136,0,0,1-1.236,11.293c-1.1,3.145-2.076,6.436-4.385,9.023-.563.631-.353,1.034.228,1.512,1.518,1.252,3.026,2.52,4.473,3.852a2.536,2.536,0,0,1,.42,3.385,3.3,3.3,0,0,1-3.82,1.252,6.825,6.825,0,0,1-1.89-1.311c-.627-.59-1.092-1.35-1.7-1.963-.574-.577-1.244-1.06-1.923-1.628-.872.649-1.9,1.441-2.952,2.191-6.805,4.837-14.546,6.173-22.67,5.977a36.8,36.8,0,0,1-18.064-4.906,31.162,31.162,0,0,1-8.895-7.89,38.279,38.279,0,0,1-5.384-9.751,5.98,5.98,0,0,0-.487-.836l-.407.127c.1.691.2,1.382.3,2.074a5.559,5.559,0,0,1,.21,1.825,1.5,1.5,0,0,1-2.7.971,3.2,3.2,0,0,1-.845-1.615c-.664-2.552-1.279-5.118-1.875-7.687-.186-.8-.738-1.649-.025-2.437.387-.427.914-1.069,1.334-1.037a2.354,2.354,0,0,1,1.445,1.081,17.96,17.96,0,0,1,1.17,2.487l.363-.059c.022-.4.067-.8.064-1.191-.021-2.388-.122-4.777-.044-7.161a1.245,1.245,0,0,0-.894-1.468,29.462,29.462,0,0,0-12.88-1.884,85.094,85.094,0,0,0-8.55,1.227,7.2,7.2,0,0,0-1.174.372c-1.029.35-1.354.944-1.268,2.129.157,2.169-.018,4.361-.051,6.544-.007.458,0,.915,0,1.373l.409.064c.214-.662.433-1.322.641-1.985.312-1,.858-1.765,2.021-1.588,1.2.182,1.45,1.139,1.369,2.152a25.446,25.446,0,0,1-2.8,10.283c-.39.716-1.024,1.351-1.908.911a1.58,1.58,0,0,1-.924-2.105,8.627,8.627,0,0,0,.271-3.35,3.645,3.645,0,0,0-.758.756,9.9,9.9,0,0,0-.563,1.5,28.8,28.8,0,0,1-5.749,9.583c-5.813,6.658-13.332,10.187-22.042,11.2a41.766,41.766,0,0,1-19.756-2.1,34.272,34.272,0,0,1-5.311-2.611c-1.653-.972-3.168-2.177-4.792-3.315l-3.822,4.1a3.137,3.137,0,0,1-4.7.165,2.65,2.65,0,0,1,.008-3.876c1.29-1.266,2.673-2.439,4.019-3.647C55.394,77.024,55.715,76.77,56.131,76.422ZM81.517,35.673c-6.225.167-13.946.44-21.08,3.974a17.648,17.648,0,0,0-7.9,7.52,8.443,8.443,0,0,0-1.058,4.569c.066,1.283-.809,2.594-.854,3.907-.269,7.9,1.662,15.117,6.7,21.415a30.687,30.687,0,0,0,6.191,5.793A22.35,22.35,0,0,0,67.261,85a38.371,38.371,0,0,0,13.256,3.288c8.438.609,16.456-.8,23.734-5.292a30.739,30.739,0,0,0,10.791-11.605,33.4,33.4,0,0,0,3.964-11.87c.812-6.405-.429-12.114-5.661-16.462a26.313,26.313,0,0,0-9.392-4.814C97.135,36.185,90.11,35.644,81.517,35.673ZM179,35.65c-7.883.223-16.61.755-24.665,4.776-3.608,1.8-6.725,4.291-8.271,8.1a20.311,20.311,0,0,0-1.427,6.841,28.832,28.832,0,0,0,2.823,13.511A35.469,35.469,0,0,0,155.1,79.656a29.654,29.654,0,0,0,9.445,5.97,40.83,40.83,0,0,0,17.092,2.756,37.467,37.467,0,0,0,16.276-4.172,26.223,26.223,0,0,0,10.825-10.673,41.768,41.768,0,0,0,3.811-10.231c.733-3.063,1.265-6.3-.02-9.518-.469-1.176.14-2.787-.34-3.953a17.767,17.767,0,0,0-4.339-6.906,25.022,25.022,0,0,0-10.528-5.44C191.614,35.956,185.763,35.72,179,35.65Zm28.582,41.533c-1.069.881-2.063,1.659-2.989,2.511-.137.127-.068.7.1.9.6.719,1.268,1.379,1.932,2.04a20.993,20.993,0,0,0,2.471,2.344,2.693,2.693,0,0,0,3.445-.7,2.156,2.156,0,0,0-.052-2.833C210.767,79.891,208.99,78.4,207.582,77.183ZM59.269,80.174c-.82-1.021-1.483-1.862-2.163-2.689-.359-.437-.713-.773-1.3-.219-1.376,1.294-2.817,2.518-4.188,3.818a2.233,2.233,0,0,0-.249,3.382,2.624,2.624,0,0,0,3.684.208C56.5,83.237,57.853,81.695,59.269,80.174Zm85.646-30.106c-.512-.242-.905-.465-1.324-.619A33.077,33.077,0,0,0,131.57,47.54,33.422,33.422,0,0,0,119.929,49.5c-.941.363-1.244.856-.717,1.6a36.573,36.573,0,0,1,25.327.152Zm-21.193,9.694c-.424-.556-.749-1.43-1.294-1.6-.971-.3-1.306.659-1.477,1.426-.3,1.36-.463,2.752-.769,4.11-.413,1.831-.968,3.632-1.324,5.472-.081.421.4.951.621,1.43.418-.268,1.042-.44,1.22-.821A35.208,35.208,0,0,0,123.722,59.762Zm19.259,2.494.324-.1a20.194,20.194,0,0,0-.88-2.779c-.239-.508-.833-.849-1.268-1.266-.264.547-.838,1.155-.743,1.629.652,3.255,1.442,6.481,2.2,9.714a.851.851,0,0,0,.3.527c.442.24.986.637,1.371.533a1.429,1.429,0,0,0,.634-1.233,38.068,38.068,0,0,0-.97-4.025C143.664,64.246,143.305,63.256,142.981,62.256ZM50.991,51.722H45.318v2.3H50.83Zm161.788-.013a12.183,12.183,0,0,0,.174,1.747c.059.242.372.593.579.6,1.544.051,3.09.028,4.762.028a9.325,9.325,0,0,0-.031-1.728.95.95,0,0,0-.651-.619C216.062,51.682,214.509,51.709,212.779,51.709Zm7.643-.273c-.661.214-1.431.261-1.522.534a2.979,2.979,0,0,0,.043,1.905c.1.263.895.257,1.479.4ZM43.393,54.163c1.348-.024,1.459-.224,1.36-1.785-.068-1.06-.717-.707-1.36-.72Zm101.176,7.6c-.855,1.253-.348,2.167-.09,3.071.03.106.33.136.5.2.075-.208.242-.434.207-.621C145.04,63.62,144.83,62.842,144.569,61.759Zm-25.4.25-.687,2.965C119.591,64.443,119.844,63.335,119.172,62.009Z"/><path d="M131.911,236.347c-1.264-1.188-2.36-2.172-3.4-3.209-1.954-1.944-3.848-3.948-5.819-5.873q-4.315-4.214-8.716-8.336a2.383,2.383,0,0,1-.865-2.373c.422-2.481.718-4.983,1.086-7.474q1.841-12.472,3.7-24.944,1.845-12.408,3.7-24.816c.954-6.436,1.908-12.872,2.807-19.315a3.586,3.586,0,0,0-.348-1.98q-2.652-5.3-5.434-10.528c-.913-1.726-1.919-3.4-3.043-5.384h32.483c-.234.565-.377,1.02-.6,1.43-.706,1.294-1.475,2.554-2.16,3.857-1.7,3.238-3.15,6.638-5.132,9.693-1.411,2.176-.834,4.056-.346,6.153.308,1.321.429,2.686.612,4.034.933,6.871,1.818,13.75,2.8,20.615,1.188,8.32,2.455,16.63,3.688,24.944q1.712,11.553,3.429,23.106c.084.561.257,1.109.421,1.8Zm-.036-.734c1.673-1.609,3.309-3.15,4.909-4.727,4.188-4.124,8.353-8.271,12.547-12.389a1.9,1.9,0,0,0,.635-1.849q-1.568-10.008-3.048-20.031-1.886-12.653-3.731-25.311-2.241-15.482-4.412-30.972c-.114-.813-.354-1.132-1.212-1.125q-5.757.049-11.516-.018c-.791-.009-1.064.261-1.173,1.029q-1.6,11.257-3.257,22.507c-1.224,8.316-2.476,16.627-3.7,24.942-.4,2.736-.728,5.483-1.137,8.217-1.034,6.924-2.111,13.842-3.119,20.77a2.185,2.185,0,0,0,.444,1.634c1.488,1.519,3.122,2.893,4.638,4.386,3.22,3.173,6.392,6.4,9.6,9.582C129.448,233.355,130.6,234.4,131.875,235.613Zm15.318-113.045H116.377c.905,1.557,1.732,2.867,2.448,4.234,1.947,3.718,3.832,7.469,5.791,11.18a1.546,1.546,0,0,0,1.1.725q6.069.079,12.139.01a1.625,1.625,0,0,0,1.075-.58,10.961,10.961,0,0,0,1.161-1.862C142.447,131.754,144.784,127.225,147.193,122.568Z"/><path class="cls-2" d="M81.517,35.673c8.593-.029,15.618.512,22.436,2.568a26.313,26.313,0,0,1,9.392,4.814c5.232,4.348,6.473,10.057,5.661,16.462a33.4,33.4,0,0,1-3.964,11.87,30.739,30.739,0,0,1-10.791,11.605c-7.278,4.491-15.3,5.9-23.734,5.292A38.371,38.371,0,0,1,67.261,85a22.35,22.35,0,0,1-3.744-2.145,30.687,30.687,0,0,1-6.191-5.793c-5.038-6.3-6.969-13.513-6.7-21.415.045-1.313.92-2.624.854-3.907a8.443,8.443,0,0,1,1.058-4.569,17.648,17.648,0,0,1,7.9-7.52C67.571,36.113,75.292,35.84,81.517,35.673Zm.847,1.322c-6.827.325-14.649.411-21.81,4.219a14.791,14.791,0,0,0-7.7,9.184,27.292,27.292,0,0,0,.662,16.4,27.583,27.583,0,0,0,7.97,12.521,31.454,31.454,0,0,0,5.735,4.02A33.657,33.657,0,0,0,80.885,86.9c8.37.542,16.3-.917,23.37-5.627A29.7,29.7,0,0,0,115.1,67.85a34.405,34.405,0,0,0,2.285-8.823c.728-5.467-.015-10.62-4.547-14.546-3.6-3.121-7.912-4.716-12.428-5.761A79.209,79.209,0,0,0,82.364,36.995Z"/><path class="cls-2" d="M179,35.65c6.763.07,12.614.306,18.325,1.839a25.022,25.022,0,0,1,10.528,5.44,17.767,17.767,0,0,1,4.339,6.906c.48,1.166-.129,2.777.34,3.953,1.285,3.219.753,6.455.02,9.518a41.768,41.768,0,0,1-3.811,10.231A26.223,26.223,0,0,1,197.916,84.21a37.467,37.467,0,0,1-16.276,4.172,40.83,40.83,0,0,1-17.092-2.756,29.654,29.654,0,0,1-9.445-5.97,35.469,35.469,0,0,1-7.643-10.778,28.832,28.832,0,0,1-2.823-13.511,20.311,20.311,0,0,1,1.427-6.841c1.546-3.809,4.663-6.3,8.271-8.1C162.39,36.405,171.117,35.873,179,35.65Zm2.177,1.366c-9.615-.027-15.635.87-23.34,3.4a18.882,18.882,0,0,0-7.819,4.8,13.511,13.511,0,0,0-4.024,9.294,26.455,26.455,0,0,0,.326,5.911,34.42,34.42,0,0,0,5.312,13.015,36.017,36.017,0,0,0,5.6,6.213,23.021,23.021,0,0,0,4.036,2.824,38.491,38.491,0,0,0,22.114,4.383c6.734-.528,12.945-2.536,18.2-6.883a27,27,0,0,0,7.275-9.672A31.1,31.1,0,0,0,211.2,52.511a14.127,14.127,0,0,0-3.234-7.333c-2.849-3.337-6.527-5.072-10.578-6.223C191.741,37.348,185.923,37.13,181.177,37.016Z"/><path class="cls-2" d="M207.582,77.183c1.408,1.216,3.185,2.708,4.908,4.259a2.156,2.156,0,0,1,.052,2.833,2.693,2.693,0,0,1-3.445.7,20.993,20.993,0,0,1-2.471-2.344c-.664-.661-1.335-1.321-1.932-2.04-.169-.2-.238-.772-.1-.9C205.519,78.842,206.513,78.064,207.582,77.183Z"/><path class="cls-2" d="M59.269,80.174c-1.416,1.521-2.765,3.063-4.218,4.5a2.624,2.624,0,0,1-3.684-.208,2.233,2.233,0,0,1,.249-3.382c1.371-1.3,2.812-2.524,4.188-3.818.589-.554.943-.218,1.3.219C57.786,78.312,58.449,79.153,59.269,80.174Z"/><path class="cls-2" d="M144.915,50.068l-.376,1.183a36.573,36.573,0,0,0-25.327-.152c-.527-.74-.224-1.233.717-1.6A33.422,33.422,0,0,1,131.57,47.54a33.077,33.077,0,0,1,12.021,1.909C144.01,49.6,144.4,49.826,144.915,50.068Z"/><path class="cls-2" d="M123.722,59.762A35.208,35.208,0,0,1,120.7,69.78c-.178.381-.8.553-1.22.821-.222-.479-.7-1.009-.621-1.43.356-1.84.911-3.641,1.324-5.472.306-1.358.465-2.75.769-4.11.171-.767.506-1.727,1.477-1.426C122.973,58.332,123.3,59.206,123.722,59.762Z"/><path class="cls-2" d="M142.981,62.256c.324,1,.683,1.99.964,3a38.068,38.068,0,0,1,.97,4.025,1.429,1.429,0,0,1-.634,1.233c-.385.1-.929-.293-1.371-.533a.851.851,0,0,1-.3-.527c-.757-3.233-1.547-6.459-2.2-9.714-.095-.474.479-1.082.743-1.629.435.417,1.029.758,1.268,1.266a20.194,20.194,0,0,1,.88,2.779Z"/><path class="cls-2" d="M50.991,51.722l-.161,2.3H45.318v-2.3Z"/><path class="cls-2" d="M212.779,51.709c1.73,0,3.283-.027,4.833.028a.95.95,0,0,1,.651.619,9.325,9.325,0,0,1,.031,1.728c-1.672,0-3.218.023-4.762-.028-.207-.007-.52-.358-.579-.6A12.183,12.183,0,0,1,212.779,51.709Z"/><path class="cls-2" d="M220.422,51.436v2.837c-.584-.141-1.376-.135-1.479-.4a2.979,2.979,0,0,1-.043-1.905C218.991,51.7,219.761,51.65,220.422,51.436Z"/><path class="cls-2" d="M43.393,54.163v-2.5c.643.013,1.292-.34,1.36.72C44.852,53.939,44.741,54.139,43.393,54.163Z"/><path class="cls-2" d="M144.569,61.759c.261,1.083.471,1.861.622,2.651.035.187-.132.413-.207.621-.175-.065-.475-.095-.5-.2C144.221,63.926,143.714,63.012,144.569,61.759Z"/><path class="cls-2" d="M119.172,62.009c.672,1.326.419,2.434-.687,2.965Z"/><path class="cls-2" d="M131.875,235.613c-1.276-1.209-2.427-2.258-3.532-3.355-3.208-3.187-6.38-6.409-9.6-9.582-1.516-1.493-3.15-2.867-4.638-4.386a2.185,2.185,0,0,1-.444-1.634c1.008-6.928,2.085-13.846,3.119-20.77.409-2.734.734-5.481,1.137-8.217,1.224-8.315,2.476-16.626,3.7-24.942q1.654-11.25,3.257-22.507c.109-.768.382-1.038,1.173-1.029q5.757.063,11.516.018c.858-.007,1.1.312,1.212,1.125q2.169,15.492,4.412,30.972,1.834,12.66,3.731,25.311,1.493,10.02,3.048,20.031a1.9,1.9,0,0,1-.635,1.849c-4.194,4.118-8.359,8.265-12.547,12.389C135.184,232.463,133.548,234,131.875,235.613Z"/><path class="cls-2" d="M147.193,122.568c-2.409,4.657-4.746,9.186-7.1,13.707a10.961,10.961,0,0,1-1.161,1.862,1.625,1.625,0,0,1-1.075.58q-6.069.06-12.139-.01a1.546,1.546,0,0,1-1.1-.725c-1.959-3.711-3.844-7.462-5.791-11.18-.716-1.367-1.543-2.677-2.448-4.234Z"/><path d="M82.364,36.995a79.209,79.209,0,0,1,18.05,1.725c4.516,1.045,8.826,2.64,12.428,5.761,4.532,3.926,5.275,9.079,4.547,14.546A34.405,34.405,0,0,1,115.1,67.85a29.7,29.7,0,0,1-10.849,13.426c-7.072,4.71-15,6.169-23.37,5.627a33.657,33.657,0,0,1-13.661-3.56,31.454,31.454,0,0,1-5.735-4.02A27.583,27.583,0,0,1,53.519,66.8a27.292,27.292,0,0,1-.662-16.4,14.791,14.791,0,0,1,7.7-9.184C67.715,37.406,75.537,37.32,82.364,36.995ZM61.35,78.485A19.368,19.368,0,0,0,67.3,82.847a34.115,34.115,0,0,0,13.424,3.535c8.42.579,16.423-.809,23.469-5.677a30.614,30.614,0,0,0,11.38-15.414,23.364,23.364,0,0,0,1.033-4.166c.294-1.852.414-3.731.612-5.628a5.43,5.43,0,0,0-.736-.122c-10.359.264-20.722.5-30.98,2.157a15.954,15.954,0,0,0-8.018,3.625,91.234,91.234,0,0,0-6.734,6.664c-2.105,2.253-4.054,4.652-6.076,6.983-.159.182-.377.313-.537.5C63.216,76.339,62.307,77.387,61.35,78.485ZM52.531,53.206c21.666.76,42.966,1.218,64.31-.256a12.547,12.547,0,0,0-5.654-9.195c-4.16-2.993-9.007-4.4-14.013-5.192a85.8,85.8,0,0,0-23.2-.552c-6.273.713-12.395,1.936-17.182,6.637C54.415,46.984,53.684,50.023,52.531,53.206Zm.064,2.249c-.857,5.437,1.9,15.165,5.469,19.115,2.232-1.918,4.485-3.813,6.693-5.76,2.835-2.5,5.548-5.146,8.476-7.531C75.35,59.553,77.73,58.148,80,56.6c.246-.167.509-.307,1.037-.622Zm8.262,22.714c2.587-2.845,4.971-5.5,7.392-8.12,2.476-2.681,4.963-5.355,7.492-7.988a17.414,17.414,0,0,1,10.22-5.055c1.813-.284,3.633-.526,5.449-.787-1.835-.239-3.662-.1-5.458-.269-3.636-.347-6.625,1.132-9.352,3.2-2.381,1.81-4.58,3.861-6.847,5.819q-3.027,2.614-6.026,5.261c-1.8,1.6-3.58,3.237-5.484,4.963ZM84.88,54.657l-.009-.262c-.578,0-1.156.011-1.734,0-9.779-.212-19.557-.435-29.337-.614-.41-.007-.827.384-1.241.59.373.2.741.559,1.119.568,20.547.5,41.1,1.048,61.64-.106.58-.032,1.656.482,1.651-.625,0-1.141-1.086-.608-1.657-.59C105.167,53.935,95.024,54.3,84.88,54.657Z"/><path d="M181.177,37.016c4.746.114,10.564.332,16.213,1.939,4.051,1.151,7.729,2.886,10.578,6.223a14.127,14.127,0,0,1,3.234,7.333A31.1,31.1,0,0,1,208.849,70.3a27,27,0,0,1-7.275,9.672c-5.25,4.347-11.461,6.355-18.2,6.883a38.491,38.491,0,0,1-22.114-4.383,23.021,23.021,0,0,1-4.036-2.824,36.017,36.017,0,0,1-5.6-6.213,34.42,34.42,0,0,1-5.312-13.015,26.455,26.455,0,0,1-.326-5.911,13.511,13.511,0,0,1,4.024-9.294,18.882,18.882,0,0,1,7.819-4.8C165.542,37.886,171.562,36.989,181.177,37.016ZM146.412,55.475c.145,2.406-.185,4.77,1.189,6.889a4.188,4.188,0,0,1,.386,1.409,11.44,11.44,0,0,0,.458,2.271c.827,1.865,1.739,3.7,2.693,5.5a26.779,26.779,0,0,0,8.917,9.546,29.184,29.184,0,0,0,8.611,3.936,41.1,41.1,0,0,0,18.146.895,28.005,28.005,0,0,0,13.6-5.77c1.908-1.583,1.891-1.6.216-3.457q-5.691-6.308-11.376-12.621a19.563,19.563,0,0,0-12.065-6.627,238.4,238.4,0,0,0-26.518-1.966C149.319,55.437,147.966,55.475,146.412,55.475Zm64.372-2.22a13.772,13.772,0,0,0-5.558-10.094,24.21,24.21,0,0,0-11-4.475,82.005,82.005,0,0,0-19.982-.964c-6.86.489-13.628,1.4-19.782,4.816-3.07,1.707-5.563,3.937-6.8,7.34-.364,1-.734,2.005-1.123,3.069C168.085,54.493,189.355,53.93,210.784,53.255Zm-28.037,2.722a41.25,41.25,0,0,1,4.873,2.988c3.646,2.993,7.174,6.134,10.716,9.253,2.036,1.793,4,3.669,6.019,5.482a10.429,10.429,0,0,0,1.326.884c4.216-5.714,5.588-12.1,5.344-19.1Zm22.631,19.137a10.174,10.174,0,0,1-.873-.615q-6.129-5.445-12.249-10.9c-1.567-1.392-3.07-2.875-4.746-4.123a27.088,27.088,0,0,0-4.462-2.6c-3.693-1.772-7.616-.536-11.437-.754a31.514,31.514,0,0,0,4.111.649,19.5,19.5,0,0,1,12.139,5.193c2.357,2.281,4.586,4.7,6.8,7.125,2.051,2.248,3.985,4.6,6.008,6.878.644.724,1.408,1.341,2.173,2.059ZM178.7,54.5l0-.166c-4.623,0-9.249.093-13.869-.024-5.735-.145-11.465-.476-17.2-.681-.366-.013-.746.366-1.12.562.345.221.681.618,1.036.637,4.616.241,9.236.615,13.854.595,16.181-.067,32.361-.275,48.542-.429.165,0,.37.05.486-.027.207-.138.529-.4.5-.531a1.012,1.012,0,0,0-.54-.63,2.765,2.765,0,0,0-.981-.023Q194.055,54.135,178.7,54.5Z"/><path class="cls-2" d="M61.35,78.485c.957-1.1,1.866-2.146,2.784-3.186.16-.182.378-.313.537-.5,2.022-2.331,3.971-4.73,6.076-6.983a91.234,91.234,0,0,1,6.734-6.664A15.954,15.954,0,0,1,85.5,57.532c10.258-1.654,20.621-1.893,30.98-2.157a5.43,5.43,0,0,1,.736.122c-.2,1.9-.318,3.776-.612,5.628a23.364,23.364,0,0,1-1.033,4.166,30.614,30.614,0,0,1-11.38,15.414c-7.046,4.868-15.049,6.256-23.469,5.677A34.115,34.115,0,0,1,67.3,82.847,19.368,19.368,0,0,1,61.35,78.485Z"/><path class="cls-2" d="M52.531,53.206c1.153-3.183,1.884-6.222,4.263-8.558,4.787-4.7,10.909-5.924,17.182-6.637a85.8,85.8,0,0,1,23.2.552c5.006.793,9.853,2.2,14.013,5.192a12.547,12.547,0,0,1,5.654,9.2C95.5,54.424,74.2,53.966,52.531,53.206Z"/><path class="cls-2" d="M52.6,55.455l28.437.527c-.528.315-.791.455-1.037.622-2.265,1.544-4.645,2.949-6.762,4.675-2.928,2.385-5.641,5.031-8.476,7.531-2.208,1.947-4.461,3.842-6.693,5.76C54.5,70.62,51.738,60.892,52.6,55.455Z"/><path class="cls-2" d="M60.857,78.169,58.243,75.2c1.9-1.726,3.679-3.361,5.484-4.963q2.991-2.655,6.026-5.261c2.267-1.958,4.466-4.009,6.847-5.819,2.727-2.073,5.716-3.552,9.352-3.2,1.8.172,3.623.03,5.458.269-1.816.261-3.636.5-5.449.787a17.414,17.414,0,0,0-10.22,5.055c-2.529,2.633-5.016,5.307-7.492,7.988C65.828,72.67,63.444,75.324,60.857,78.169Z"/><path class="cls-2" d="M84.88,54.657c10.144-.356,20.287-.722,30.432-1.041.571-.018,1.652-.551,1.657.59.005,1.107-1.071.593-1.651.625-20.544,1.154-41.093.6-61.64.106-.378-.009-.746-.371-1.119-.568.414-.206.831-.6,1.241-.59,9.78.179,19.558.4,29.337.614.578.013,1.156,0,1.734,0Z"/><path class="cls-2" d="M146.412,55.475c1.554,0,2.907-.038,4.258.006a238.4,238.4,0,0,1,26.518,1.966,19.563,19.563,0,0,1,12.065,6.627q5.678,6.32,11.376,12.621c1.675,1.857,1.692,1.874-.216,3.457a28.005,28.005,0,0,1-13.6,5.77,41.1,41.1,0,0,1-18.146-.895,29.184,29.184,0,0,1-8.611-3.936,26.779,26.779,0,0,1-8.917-9.546c-.954-1.805-1.866-3.636-2.693-5.5a11.44,11.44,0,0,1-.458-2.271,4.188,4.188,0,0,0-.386-1.409C146.227,60.245,146.557,57.881,146.412,55.475Z"/><path class="cls-2" d="M210.784,53.255c-21.429.675-42.7,1.238-64.237-.308.389-1.064.759-2.065,1.123-3.069,1.232-3.4,3.725-5.633,6.8-7.34,6.154-3.42,12.922-4.327,19.782-4.816a82.005,82.005,0,0,1,19.982.964,24.21,24.21,0,0,1,11,4.475A13.772,13.772,0,0,1,210.784,53.255Z"/><path class="cls-2" d="M182.747,55.977l28.278-.489c.244,7-1.128,13.382-5.344,19.1a10.429,10.429,0,0,1-1.326-.884c-2.019-1.813-3.983-3.689-6.019-5.482-3.542-3.119-7.07-6.26-10.716-9.253A41.25,41.25,0,0,0,182.747,55.977Z"/><path class="cls-2" d="M205.378,75.114l-2.539,2.914c-.765-.718-1.529-1.335-2.173-2.059-2.023-2.275-3.957-4.63-6.008-6.878-2.211-2.426-4.44-4.844-6.8-7.125a19.5,19.5,0,0,0-12.139-5.193,31.514,31.514,0,0,1-4.111-.649c3.821.218,7.744-1.018,11.437.754a27.088,27.088,0,0,1,4.462,2.6c1.676,1.248,3.179,2.731,4.746,4.123q6.128,5.447,12.249,10.9A10.174,10.174,0,0,0,205.378,75.114Z"/><path class="cls-2" d="M178.7,54.5q15.352-.358,30.7-.717a2.765,2.765,0,0,1,.981.023,1.012,1.012,0,0,1,.54.63c.032.134-.29.393-.5.531-.116.077-.321.025-.486.027-16.181.154-32.361.362-48.542.429-4.618.02-9.238-.354-13.854-.595-.355-.019-.691-.416-1.036-.637.374-.2.754-.575,1.12-.562,5.734.2,11.464.536,17.2.681,4.62.117,9.246.024,13.869.024Z"/></g></g></g></svg>