<svg id="Capa_1" data-name="Capa 1" xmlns="http://www.w3.org/2000/svg" xmlns:xlink="http://www.w3.org/1999/xlink" viewBox="0 0 644.991 362.281"><defs><style>.cls-1{fill:none;}.cls-2{clip-path:url(#clip-path);}.cls-3{clip-path:url(#clip-path-2);}.cls-4{fill:#fff;}.cls-5{clip-path:url(#clip-path-3);}</style><clipPath id="clip-path" transform="translate(119.991 70)"><circle class="cls-1" cx="131" cy="131" r="129"/></clipPath><clipPath id="clip-path-2" transform="translate(119.991 70)"><rect class="cls-1" x="-124" y="-47.558" width="567" height="144.117"/></clipPath><clipPath id="clip-path-3" transform="translate(119.991 70)"><rect class="cls-1" x="-144" y="105.424" width="638" height="195.153"/></clipPath></defs><title>anteojos-casa-dibujo</title><rect class="cls-1" x="29.991" width="615" height="160"/><g class="cls-2"><g class="cls-3"><path class="cls-4" d="M-81.7,260.917q0-137.916,0-275.833H357.759V260.917ZM61.836,76.754c.675.518,1.313,1.079,2.019,1.535a41.089,41.089,0,0,0,4.817,2.949,35.856,35.856,0,0,0,16.8,3.023c8.97-.368,16.8-3.408,22.853-10.2a25.673,25.673,0,0,0,5.29-8.793,7.846,7.846,0,0,1,.509-1.351c.142-.251.47-.4.948-.775a24.007,24.007,0,0,1-.527,3.138,1.44,1.44,0,0,0,.784,1.91c.854.433,1.422-.185,1.786-.865a22.892,22.892,0,0,0,2.477-9.251c.064-.875-.184-1.685-1.193-1.856-1.04-.176-1.557.483-1.841,1.386-.192.61-.389,1.218-.584,1.827l-.379-.049c0-.4-.008-.808,0-1.212.043-1.85.168-3.7.116-5.551-.051-1.783.051-2.058,1.765-2.546a32.662,32.662,0,0,1,10.455-1.2,23.719,23.719,0,0,1,9.114,1.751,1.547,1.547,0,0,1,.826,1.033c.1,2.326.1,4.656.112,6.984a3.8,3.8,0,0,1-.173.8,20.645,20.645,0,0,1-1.377-2.377,1.74,1.74,0,0,0-1.182-.812c-.4,0-.868.449-1.188.806-.642.718-.235,1.519-.048,2.292.548,2.268,1.069,4.544,1.647,6.8a2.977,2.977,0,0,0,.721,1.475,2.1,2.1,0,0,0,1.609.576,1.845,1.845,0,0,0,.9-1.4,12.05,12.05,0,0,0-.343-2.406,8.042,8.042,0,0,1-.008-1.076,1.021,1.021,0,0,1,.659.544c.55,1.2,1.117,2.393,1.618,3.613a26.663,26.663,0,0,0,4.727,7.068,25.394,25.394,0,0,0,7.461,5.856,35.065,35.065,0,0,0,18.162,3.868c6.292-.246,12.264-1.593,17.487-5.351.948-.681,1.874-1.392,2.839-2.11.521.515,1.061,1.009,1.554,1.546.526.574.956,1.244,1.523,1.769a6.359,6.359,0,0,0,1.791,1.233,2.965,2.965,0,0,0,3.4-1.213,2.3,2.3,0,0,0-.464-3.034c-1.311-1.186-2.663-2.328-4.029-3.451-.5-.414-.6-.763-.168-1.283a23.185,23.185,0,0,0,4.194-9.069,42.366,42.366,0,0,0,.92-8.036c.063-.893.294-1.151,1.148-1.118,1.073.043,2.15-.04,3.226-.058,1.936-.032,2.206-.3,2.2-2.218,0-1.676-.381-2.053-2.053-2.049-1.41,0-2.821-.026-4.229.017a1.019,1.019,0,0,1-1.128-.767c-1.1-2.488-2.252-4.911-4.426-6.769a22.932,22.932,0,0,0-9.352-4.661,58.723,58.723,0,0,0-15.671-1.617c-7.895.1-15.734.645-22.989,4.22-3.561,1.755-6.515,4.189-8.114,7.974a6.948,6.948,0,0,1-.363.657,28.839,28.839,0,0,0-11.781-2.19,29.4,29.4,0,0,0-11.707,2.171c-.509-.88-.939-1.736-1.474-2.519a15.065,15.065,0,0,0-2.1-2.718,26.39,26.39,0,0,0-12.988-6.148A75.369,75.369,0,0,0,68.8,37.373a22.087,22.087,0,0,0-10,4.583,12.507,12.507,0,0,0-4.505,6.58,1.487,1.487,0,0,1-1.855,1.321c-1.219-.085-2.448-.02-3.672-.024-1.515,0-2,.4-2.029,1.628-.059,2.206-.215,2.455,2,2.6,1.469.1,2.949.018,4.558.018A29.383,29.383,0,0,0,58.764,73.19a9.252,9.252,0,0,0-.989.662c-1.219,1.076-2.46,2.132-3.617,3.273a2.461,2.461,0,0,0,.443,3.919,2.843,2.843,0,0,0,3.8-.611C59.525,79.217,60.66,78.012,61.836,76.754Zm50.429,37.33c.225.546.331.89.5,1.2.673,1.224,1.4,2.422,2.045,3.659,1.682,3.209,3.353,6.424,4.98,9.662a2.829,2.829,0,0,1,.246,1.575q-1.224,8.683-2.525,17.357-1.653,11.153-3.326,22.3-1.668,11.207-3.324,22.415c-.33,2.238-.587,4.489-.977,6.717a2.224,2.224,0,0,0,.819,2.225q3.993,3.744,7.908,7.572c1.745,1.7,3.42,3.479,5.151,5.2.934.928,1.919,1.8,2.926,2.746a14.452,14.452,0,0,0,1.24-.97q3.174-3.09,6.318-6.211c2.7-2.682,5.365-5.4,8.087-8.055A3,3,0,0,0,143.4,198.4c-1.181-6.857-2.113-13.757-3.133-20.642-1.112-7.508-2.251-15.013-3.326-22.527-.82-5.728-1.555-11.468-2.333-17.2-.219-1.616-.351-3.254-.716-4.838-.444-1.932-.933-3.641.328-5.632,1.891-2.985,3.313-6.266,4.957-9.409.476-.91,1.051-1.768,1.544-2.67a13.085,13.085,0,0,0,.555-1.393Z" transform="translate(119.991 70)"/><path d="M61.836,76.754c-1.176,1.258-2.311,2.463-3.435,3.679a2.843,2.843,0,0,1-3.8.611,2.461,2.461,0,0,1-.443-3.919c1.157-1.141,2.4-2.2,3.617-3.273a9.252,9.252,0,0,1,.989-.662,29.383,29.383,0,0,1-5.459-19.113c-1.609,0-3.089.077-4.558-.018-2.218-.143-2.062-.392-2-2.6.032-1.23.514-1.633,2.029-1.628,1.224,0,2.453-.061,3.672.024A1.487,1.487,0,0,0,54.3,48.536a12.507,12.507,0,0,1,4.505-6.58,22.087,22.087,0,0,1,10-4.583,75.369,75.369,0,0,1,29.626.106,26.39,26.39,0,0,1,12.988,6.148,15.065,15.065,0,0,1,2.1,2.718c.535.783.965,1.639,1.474,2.519A29.4,29.4,0,0,1,126.7,46.693a28.839,28.839,0,0,1,11.781,2.19,6.948,6.948,0,0,0,.363-.657c1.6-3.785,4.553-6.219,8.114-7.974,7.255-3.575,15.094-4.118,22.989-4.22a58.723,58.723,0,0,1,15.671,1.617,22.932,22.932,0,0,1,9.352,4.661c2.174,1.858,3.322,4.281,4.426,6.769a1.019,1.019,0,0,0,1.128.767c1.408-.043,2.819-.013,4.229-.017,1.672,0,2.052.373,2.053,2.049,0,1.918-.268,2.186-2.2,2.218-1.076.018-2.153.1-3.226.058-.854-.033-1.085.225-1.148,1.118a42.366,42.366,0,0,1-.92,8.036,23.185,23.185,0,0,1-4.194,9.069c-.435.52-.336.869.168,1.283,1.366,1.123,2.718,2.265,4.029,3.451a2.3,2.3,0,0,1,.464,3.034,2.965,2.965,0,0,1-3.4,1.213,6.359,6.359,0,0,1-1.791-1.233c-.567-.525-1-1.195-1.523-1.769-.493-.537-1.033-1.031-1.554-1.546-.965.718-1.891,1.429-2.839,2.11-5.223,3.758-11.2,5.105-17.487,5.351A35.065,35.065,0,0,1,153.014,80.4a25.394,25.394,0,0,1-7.461-5.856,26.663,26.663,0,0,1-4.727-7.068c-.5-1.22-1.068-2.413-1.618-3.613a1.021,1.021,0,0,0-.659-.544,8.042,8.042,0,0,0,.008,1.076A12.05,12.05,0,0,1,138.9,66.8a1.845,1.845,0,0,1-.9,1.4,2.1,2.1,0,0,1-1.609-.576,2.977,2.977,0,0,1-.721-1.475c-.578-2.26-1.1-4.536-1.647-6.8-.187-.773-.594-1.574.048-2.292.32-.357.788-.808,1.188-.806a1.74,1.74,0,0,1,1.182.812,20.645,20.645,0,0,0,1.377,2.377,3.8,3.8,0,0,0,.173-.8c-.013-2.328-.011-4.658-.112-6.984a1.547,1.547,0,0,0-.826-1.033,23.719,23.719,0,0,0-9.114-1.751,32.662,32.662,0,0,0-10.455,1.2c-1.714.488-1.816.763-1.765,2.546.052,1.848-.073,3.7-.116,5.551-.01.4,0,.808,0,1.212l.379.049c.2-.609.392-1.217.584-1.827.284-.9.8-1.562,1.841-1.386,1.009.171,1.257.981,1.193,1.856a22.892,22.892,0,0,1-2.477,9.251c-.364.68-.932,1.3-1.786.865a1.44,1.44,0,0,1-.784-1.91,24.007,24.007,0,0,0,.527-3.138c-.478.378-.806.524-.948.775a7.846,7.846,0,0,0-.509,1.351,25.673,25.673,0,0,1-5.29,8.793c-6.057,6.794-13.883,9.834-22.853,10.2a35.856,35.856,0,0,1-16.8-3.023,41.089,41.089,0,0,1-4.817-2.949C63.149,77.833,62.511,77.272,61.836,76.754ZM81.457,36.468c-5.588.148-12.527.4-18.934,3.58a15.789,15.789,0,0,0-7.086,6.774,7.757,7.757,0,0,0-.94,4.109c.051,1.193-.73,2.406-.768,3.622a28.083,28.083,0,0,0,6.04,19.128,27.76,27.76,0,0,0,5.569,5.2,19.985,19.985,0,0,0,3.367,1.924,34.549,34.549,0,0,0,11.8,2.936c7.623.567,14.861-.706,21.436-4.763a27.665,27.665,0,0,0,9.687-10.439,29.961,29.961,0,0,0,3.551-10.67c.731-5.756-.4-10.886-5.111-14.783a23.739,23.739,0,0,0-8.444-4.317C95.5,36.925,89.185,36.444,81.457,36.468Zm89.267,0c-8.311.01-17.48.958-23.808,4.268-3.1,1.623-5.886,3.72-7.278,7a18.685,18.685,0,0,0-1.418,6.448,25.593,25.593,0,0,0,2.535,12.14A31.9,31.9,0,0,0,147.626,76a26.622,26.622,0,0,0,8.489,5.362,36.656,36.656,0,0,0,15.36,2.473A33.7,33.7,0,0,0,186.2,80.029a23.564,23.564,0,0,0,9.52-9.347,36.863,36.863,0,0,0,3.49-9.17c.69-2.824,1.185-5.8.016-8.772-.405-1.026.142-2.432-.275-3.446a16.1,16.1,0,0,0-3.856-6.231,22.551,22.551,0,0,0-9.649-4.988A60.183,60.183,0,0,0,170.724,36.465ZM194.811,73.8c-1,.813-1.9,1.509-2.75,2.262-.112.1-.063.572.074.732.886,1.03,1.794,2.042,2.742,3.014a5.678,5.678,0,0,0,1.393,1.049,2.493,2.493,0,0,0,3.053-.84,1.967,1.967,0,0,0-.235-2.536C197.565,76.157,196.032,74.847,194.811,73.8ZM61.5,76.459c-.736-.917-1.333-1.672-1.944-2.416-.322-.392-.641-.694-1.17-.2-1.236,1.163-2.532,2.263-3.763,3.431a2.007,2.007,0,0,0-.224,3.039,2.357,2.357,0,0,0,3.31.188C59.014,79.212,60.226,77.827,61.5,76.459Zm53.874-26.114a32.762,32.762,0,0,1,22.75.124l.312-1c-.2-.13-.346-.241-.5-.322a6.6,6.6,0,0,0-.71-.314,33.359,33.359,0,0,0-21.158.047C115.27,49.18,114.832,49.565,115.373,50.345Zm4.042,7.833c-.366-.518-.63-1.32-1.118-1.493-.862-.3-1.2.536-1.356,1.234-.265,1.185-.4,2.4-.672,3.584-.382,1.681-.885,3.336-1.218,5.025-.076.39.329.875.513,1.316.4-.257,1-.421,1.169-.785A32.053,32.053,0,0,0,119.415,58.178Zm14.936.115-.211.063c.674,2.644,1.328,5.293,2.036,7.927.225.838.658,1.8,1.692,1.522,1.111-.3.651-1.359.479-2.09-.583-2.479-1.242-4.942-1.9-7.405a3.73,3.73,0,0,0-.532-1.209,1.042,1.042,0,0,0-.794-.431c-.25.038-.528.374-.65.644A3.238,3.238,0,0,0,134.351,58.293Zm-80.3-7.4H48.953v2.095c1.534,0,2.973.02,4.409-.022a.784.784,0,0,0,.567-.483A10.362,10.362,0,0,0,54.047,50.9Zm145.62,2.11c1.454,0,2.813.007,4.172,0,.808-.006.565-.64.558-1.058s.253-1.058-.555-1.064c-1.426-.012-2.853,0-4.392,0C199.529,51.648,199.594,52.285,199.667,53.006Zm6.651-2.322c-.57.129-1.279.14-1.33.328a3.407,3.407,0,0,0,0,1.82c.068.217.8.225,1.327.35ZM47.22,53.1c1.165.136,1.26.007,1.218-1.653-.025-.964-.659-.6-1.218-.579Zm90.97,6.932a2.768,2.768,0,0,0-.1,2.688.517.517,0,0,0,.474.092.542.542,0,0,0,.156-.467C138.582,61.626,138.4,60.918,138.19,60.03Zm-22.464.193-.394-.089q-.31,1.334-.62,2.667l.458.1A3.436,3.436,0,0,0,115.726,60.223Z" transform="translate(119.991 70)"/><path d="M112.265,114.084h29.012a13.085,13.085,0,0,1-.555,1.393c-.493.9-1.068,1.76-1.544,2.67-1.644,3.143-3.066,6.424-4.957,9.409-1.261,1.991-.772,3.7-.328,5.632.365,1.584.5,3.222.716,4.838.778,5.735,1.513,11.475,2.333,17.2,1.075,7.514,2.214,15.019,3.326,22.527,1.02,6.885,1.952,13.785,3.133,20.642a3,3,0,0,1-1.067,3.077c-2.722,2.658-5.388,5.373-8.087,8.055q-3.143,3.121-6.318,6.211a14.452,14.452,0,0,1-1.24.97c-1.007-.942-1.992-1.818-2.926-2.746-1.731-1.719-3.406-3.494-5.151-5.2q-3.916-3.825-7.908-7.572a2.224,2.224,0,0,1-.819-2.225c.39-2.228.647-4.479.977-6.717q1.655-11.208,3.324-22.415,1.659-11.151,3.326-22.3,1.285-8.676,2.525-17.357a2.829,2.829,0,0,0-.246-1.575c-1.627-3.238-3.3-6.453-4.98-9.662-.649-1.237-1.372-2.435-2.045-3.659C112.6,114.974,112.49,114.63,112.265,114.084Zm14.3,102.229c1.668-1.6,3.137-2.988,4.574-4.4,3.789-3.733,7.579-7.466,11.322-11.244a2.074,2.074,0,0,0,.491-1.539c-.86-6.007-1.8-12-2.691-18.007q-1.7-11.426-3.365-22.857-2.013-13.911-3.964-27.832c-.1-.719-.375-.92-1.06-.916q-5.175.029-10.35-.019c-.691-.008-.97.2-1.071.9q-1.44,10.173-2.941,20.337c-1.094,7.436-2.223,14.866-3.308,22.3-.584,4-1.073,8.013-1.666,12.012-.694,4.683-1.472,9.353-2.16,14.036a1.966,1.966,0,0,0,.383,1.473c1.336,1.366,2.8,2.6,4.167,3.942q4.226,4.158,8.389,8.377C124.384,213.954,125.4,215.075,126.57,216.313ZM112.789,114.5c.838,1.443,1.578,2.617,2.221,3.844,1.749,3.341,3.443,6.711,5.2,10.046a1.393,1.393,0,0,0,.98.669c3.673.048,7.346.042,11.019.009a1.2,1.2,0,0,0,.865-.5c.784-1.333,1.514-2.7,2.234-4.067.569-1.084,1.069-2.2,1.646-3.283,1.174-2.2,2.379-4.381,3.651-6.717Z" transform="translate(119.991 70)"/><path class="cls-4" d="M81.457,36.468c7.728-.024,14.042.457,20.171,2.3a23.739,23.739,0,0,1,8.444,4.317c4.713,3.9,5.842,9.027,5.111,14.783a29.961,29.961,0,0,1-3.551,10.67,27.665,27.665,0,0,1-9.687,10.439c-6.575,4.057-13.813,5.33-21.436,4.763a34.549,34.549,0,0,1-11.8-2.936,19.985,19.985,0,0,1-3.367-1.924,27.76,27.76,0,0,1-5.569-5.2,28.083,28.083,0,0,1-6.04-19.128c.038-1.216.819-2.429.768-3.622a7.757,7.757,0,0,1,.94-4.109,15.789,15.789,0,0,1,7.086-6.774C68.93,36.872,75.869,36.616,81.457,36.468Zm.356,1.188c-1.487.094-4.308.179-7.108.473a33.533,33.533,0,0,0-10.749,2.642c-4.663,2.162-7.8,5.611-8.655,10.741a25.854,25.854,0,0,0,1.017,12.91,24.962,24.962,0,0,0,7.16,11.255,28.506,28.506,0,0,0,5.248,3.669,30.012,30.012,0,0,0,11.842,3.13c7.639.563,14.872-.725,21.337-5.014a26.6,26.6,0,0,0,9.76-12.056,31.936,31.936,0,0,0,2.076-8.037c.747-5.394-.332-10.3-5.007-13.768a26.675,26.675,0,0,0-10.236-4.4A74.93,74.93,0,0,0,81.813,37.656Z" transform="translate(119.991 70)"/><path class="cls-4" d="M170.724,36.465a60.183,60.183,0,0,1,14.721,1.61,22.551,22.551,0,0,1,9.649,4.988,16.1,16.1,0,0,1,3.856,6.231c.417,1.014-.13,2.42.275,3.446,1.169,2.967.674,5.948-.016,8.772a36.863,36.863,0,0,1-3.49,9.17,23.564,23.564,0,0,1-9.52,9.347,33.7,33.7,0,0,1-14.724,3.806,36.656,36.656,0,0,1-15.36-2.473A26.622,26.622,0,0,1,147.626,76a31.9,31.9,0,0,1-6.871-9.684,25.593,25.593,0,0,1-2.535-12.14,18.685,18.685,0,0,1,1.418-6.448c1.392-3.275,4.174-5.372,7.278-7C153.244,37.423,162.413,36.475,170.724,36.465ZM169.6,37.646c-7.487.276-15.382.666-22.6,4.493-3.649,1.935-6.315,4.771-7.215,8.895a20.4,20.4,0,0,0,.851,11.24c1.052,3.028,2.122,6.014,4.18,8.507a64.42,64.42,0,0,0,4.753,5.234A16.553,16.553,0,0,0,153.1,78.5a34.714,34.714,0,0,0,20.308,3.938,28.181,28.181,0,0,0,15.922-6.114,24.14,24.14,0,0,0,6.6-8.776,27.89,27.89,0,0,0,2.029-16.322,12.476,12.476,0,0,0-2.871-6.251,18.449,18.449,0,0,0-9.415-5.543C180.571,37.973,175.3,37.767,169.6,37.646Z" transform="translate(119.991 70)"/><path class="cls-4" d="M194.811,73.8c1.221,1.049,2.754,2.359,4.277,3.681a1.967,1.967,0,0,1,.235,2.536,2.493,2.493,0,0,1-3.053.84,5.678,5.678,0,0,1-1.393-1.049c-.948-.972-1.856-1.984-2.742-3.014-.137-.16-.186-.632-.074-.732C192.909,75.307,193.807,74.611,194.811,73.8Z" transform="translate(119.991 70)"/><path class="cls-4" d="M61.5,76.459c-1.273,1.368-2.485,2.753-3.791,4.045a2.357,2.357,0,0,1-3.31-.188,2.007,2.007,0,0,1,.224-3.039c1.231-1.168,2.527-2.268,3.763-3.431.529-.5.848-.2,1.17.2C60.166,74.787,60.763,75.542,61.5,76.459Z" transform="translate(119.991 70)"/><path class="cls-4" d="M115.373,50.345c-.541-.78-.1-1.165.689-1.467a33.359,33.359,0,0,1,21.158-.047,6.6,6.6,0,0,1,.71.314c.159.081.3.192.5.322l-.312,1A32.762,32.762,0,0,0,115.373,50.345Z" transform="translate(119.991 70)"/><path class="cls-4" d="M119.415,58.178a32.053,32.053,0,0,1-2.682,8.881c-.169.364-.769.528-1.169.785-.184-.441-.589-.926-.513-1.316.333-1.689.836-3.344,1.218-5.025.269-1.185.407-2.4.672-3.584.157-.7.494-1.539,1.356-1.234C118.785,56.858,119.049,57.66,119.415,58.178Z" transform="translate(119.991 70)"/><path class="cls-4" d="M134.351,58.293a3.238,3.238,0,0,1,.125-.979c.122-.27.4-.606.65-.644a1.042,1.042,0,0,1,.794.431,3.73,3.73,0,0,1,.532,1.209c.653,2.463,1.312,4.926,1.9,7.405.172.731.632,1.792-.479,2.09-1.034.277-1.467-.684-1.692-1.522-.708-2.634-1.362-5.283-2.036-7.927Z" transform="translate(119.991 70)"/><path class="cls-4" d="M54.047,50.9a10.362,10.362,0,0,1-.118,1.59.784.784,0,0,1-.567.483c-1.436.042-2.875.022-4.409.022V50.9Z" transform="translate(119.991 70)"/><path class="cls-4" d="M199.667,53.006c-.073-.721-.138-1.358-.217-2.127,1.539,0,2.966-.009,4.392,0,.808.006.549.65.555,1.064s.25,1.052-.558,1.058C202.48,53.013,201.121,53.006,199.667,53.006Z" transform="translate(119.991 70)"/><path class="cls-4" d="M206.318,50.684v2.5c-.523-.125-1.259-.133-1.327-.35a3.407,3.407,0,0,1,0-1.82C205.039,50.824,205.748,50.813,206.318,50.684Z" transform="translate(119.991 70)"/><path class="cls-4" d="M47.22,53.1V50.866c.559-.019,1.193-.385,1.218.579C48.48,53.105,48.385,53.234,47.22,53.1Z" transform="translate(119.991 70)"/><path class="cls-4" d="M138.19,60.03c.21.888.392,1.6.534,2.313a.542.542,0,0,1-.156.467.517.517,0,0,1-.474-.092A2.768,2.768,0,0,1,138.19,60.03Z" transform="translate(119.991 70)"/><path class="cls-4" d="M115.726,60.223a3.436,3.436,0,0,1-.556,2.675l-.458-.1q.309-1.334.62-2.667Z" transform="translate(119.991 70)"/><path class="cls-4" d="M126.57,216.313c-1.17-1.238-2.186-2.359-3.25-3.432q-4.174-4.208-8.389-8.377c-1.363-1.341-2.831-2.576-4.167-3.942a1.966,1.966,0,0,1-.383-1.473c.688-4.683,1.466-9.353,2.16-14.036.593-4,1.082-8.012,1.666-12.012,1.085-7.438,2.214-14.868,3.308-22.3q1.5-10.165,2.941-20.337c.1-.708.38-.912,1.071-.9q5.175.054,10.35.019c.685,0,.959.2,1.06.916q1.95,13.92,3.964,27.832,1.654,11.433,3.365,22.857c.894,6,1.831,12,2.691,18.007a2.074,2.074,0,0,1-.491,1.539c-3.743,3.778-7.533,7.511-11.322,11.244C129.707,213.325,128.238,214.709,126.57,216.313Z" transform="translate(119.991 70)"/><path class="cls-4" d="M112.789,114.5h27.82c-1.272,2.336-2.477,4.518-3.651,6.717-.577,1.08-1.077,2.2-1.646,3.283-.72,1.369-1.45,2.734-2.234,4.067a1.2,1.2,0,0,1-.865.5c-3.673.033-7.346.039-11.019-.009a1.393,1.393,0,0,1-.98-.669c-1.761-3.335-3.455-6.7-5.2-10.046C114.367,117.118,113.627,115.944,112.789,114.5Z" transform="translate(119.991 70)"/><path d="M81.813,37.656A74.93,74.93,0,0,1,98.5,39.205a26.675,26.675,0,0,1,10.236,4.4c4.675,3.47,5.754,8.374,5.007,13.768a31.936,31.936,0,0,1-2.076,8.037,26.6,26.6,0,0,1-9.76,12.056c-6.465,4.289-13.7,5.577-21.337,5.014a30.012,30.012,0,0,1-11.842-3.13,28.506,28.506,0,0,1-5.248-3.669,24.962,24.962,0,0,1-7.16-11.255A25.854,25.854,0,0,1,55.3,51.512c.857-5.13,3.992-8.579,8.655-10.741a33.533,33.533,0,0,1,10.749-2.642C77.505,37.835,80.326,37.75,81.813,37.656Zm31.626,16.526c-.379,0-.6-.012-.814,0q-12.269.735-24.536,1.478a18.939,18.939,0,0,0-13.084,6.248c-1.814,1.948-3.543,3.975-5.328,5.95-1.355,1.5-2.752,2.965-4.1,4.471-.756.843-1.454,1.739-2.394,2.87,1.972,1.312,3.691,2.67,5.6,3.677a29.671,29.671,0,0,0,11.951,3.157c7.566.53,14.761-.705,21.1-5.069a27.544,27.544,0,0,0,10.286-13.939c.3-.859.274-1.837.577-2.7A17.615,17.615,0,0,0,113.439,54.182Zm-57.9-1.955c19.35.683,38.492,1.089,57.7-.231a11.294,11.294,0,0,0-4.961-8.178,24.854,24.854,0,0,0-9.735-4.156,73.238,73.238,0,0,0-21.9-1.26c-6.326.541-12.57,1.443-17.409,6.177C57.121,46.639,56.283,49.335,55.536,52.227Zm25.242,2.517a4.019,4.019,0,0,0-.518-.076c-7.974-.14-15.948-.266-23.922-.43-.824-.017-.95.306-.985,1.034a27.432,27.432,0,0,0,1.965,10.622,16.592,16.592,0,0,0,3.115,5.543c3.251-2.847,6.473-5.662,9.688-8.486C73.469,60.01,76.533,56.693,80.778,54.744ZM62.93,74.661c2.377-2.623,4.565-5.067,6.788-7.479q3.184-3.454,6.43-6.853a15.825,15.825,0,0,1,9.458-4.707c1.6-.238,3.207-.458,4.81-.687-1.618-.216-3.242-.086-4.838-.243-3.3-.326-6.032.992-8.514,2.885-2.138,1.63-4.114,3.471-6.152,5.23-1.813,1.567-3.624,3.137-5.415,4.728-1.622,1.439-3.216,2.908-4.923,4.455Zm21.429-20.3,0-.055c2.374,0,4.749.05,7.121-.01q10.565-.267,21.128-.626c.267-.009.523-.33.784-.506-.276-.2-.543-.552-.831-.571-.847-.055-1.7.019-2.556.046-7.338.232-14.677.663-22.016.65-10.457-.019-20.913-.369-31.37-.546-.379-.007-.764.322-1.147.5.358.19.713.538,1.075.546Q70.454,54.1,84.359,54.357Z" transform="translate(119.991 70)"/><path d="M169.6,37.646c5.7.121,10.968.327,16.078,1.783a18.449,18.449,0,0,1,9.415,5.543,12.476,12.476,0,0,1,2.871,6.251,27.89,27.89,0,0,1-2.029,16.322,24.14,24.14,0,0,1-6.6,8.776,28.181,28.181,0,0,1-15.922,6.114A34.714,34.714,0,0,1,153.1,78.5a16.553,16.553,0,0,1-3.527-2.482,64.42,64.42,0,0,1-4.753-5.234c-2.058-2.493-3.128-5.479-4.18-8.507a20.4,20.4,0,0,1-.851-11.24c.9-4.124,3.566-6.96,7.215-8.895C154.221,38.312,162.116,37.922,169.6,37.646Zm20.438,37.518.266-.607a10.163,10.163,0,0,1-1.8-1.288c-2.846-3.151-5.563-6.422-8.478-9.506a43.3,43.3,0,0,0-5.831-5.215,12.372,12.372,0,0,0-4.629-2.008,65.368,65.368,0,0,0-9.009-1.3c-6.618-.462-13.251-.726-19.878-1.065a7.068,7.068,0,0,0-.889.083c.188,2.088-.187,4.172,1.014,6.054a4.3,4.3,0,0,1,.415,1.361,11.191,11.191,0,0,0,.478,2.25c.9,1.931,1.905,3.812,2.9,5.7a22.866,22.866,0,0,0,5.031,5.865A18.586,18.586,0,0,0,153.136,78a31.75,31.75,0,0,0,13.843,4.055c6.721.424,13.17-.538,19.08-3.951A42.271,42.271,0,0,0,190.041,75.164Zm-50.1-23.17c19.385,1.383,38.523.891,57.719.267a12.15,12.15,0,0,0-3.851-8.032c-3.108-3-7.019-4.329-11.151-5.064a72.5,72.5,0,0,0-20.5-.628c-6.675.717-13.235,1.853-18.507,6.586C141.6,46.962,140.821,49.431,139.938,51.994Zm53.083,19.531c3.809-5.233,5.114-10.972,4.836-17.252l-25.011.438c2.167,1.575,4.558,3.1,6.7,4.917,3.964,3.368,7.78,6.912,11.663,10.377C191.779,70.514,192.38,70.989,193.021,71.525ZM162.457,54.711l.04.3c.659.071,1.327.093,1.974.223,2.5.5,5.042.865,7.465,1.614,3.247,1,5.54,3.485,7.779,5.879,3,3.209,5.83,6.581,8.769,9.85a23.052,23.052,0,0,0,2.115,1.849l2.183-2.482c-1.427-1.227-2.8-2.385-4.153-3.576-3.542-3.127-7.038-6.31-10.625-9.385a29.115,29.115,0,0,0-4.344-3.039,8.022,8.022,0,0,0-3.323-1.175C167.72,54.594,165.085,54.711,162.457,54.711Zm4.7-1.285c-4.489-.128-10.68-.294-16.87-.486-3.151-.1-6.3-.26-9.452-.338-.309-.008-.627.373-.941.574.3.175.589.489.894.5,4.409.215,8.819.537,13.229.545,11.166.022,22.332-.09,33.5-.175,3.079-.024,6.157-.137,9.234-.23.419-.013,1.132.232,1.013-.565-.034-.222-.69-.439-1.084-.5a9.969,9.969,0,0,0-1.666,0Z" transform="translate(119.991 70)"/><path class="cls-4" d="M113.439,54.182a17.615,17.615,0,0,1-.749,6.147c-.3.86-.273,1.838-.577,2.7a27.544,27.544,0,0,1-10.286,13.939c-6.338,4.364-13.533,5.6-21.1,5.069a29.671,29.671,0,0,1-11.951-3.157c-1.906-1.007-3.625-2.365-5.6-3.677.94-1.131,1.638-2.027,2.394-2.87,1.351-1.506,2.748-2.97,4.1-4.471,1.785-1.975,3.514-4,5.328-5.95a18.939,18.939,0,0,1,13.084-6.248q12.266-.762,24.536-1.478C112.842,54.17,113.06,54.182,113.439,54.182Z" transform="translate(119.991 70)"/><path class="cls-4" d="M55.536,52.227c.747-2.892,1.585-5.588,3.69-7.648,4.839-4.734,11.083-5.636,17.409-6.177a73.238,73.238,0,0,1,21.905,1.26,24.854,24.854,0,0,1,9.735,4.156A11.294,11.294,0,0,1,113.236,52C94.028,53.316,74.886,52.91,55.536,52.227Z" transform="translate(119.991 70)"/><path class="cls-4" d="M80.778,54.744c-4.245,1.949-7.309,5.266-10.657,8.207-3.215,2.824-6.437,5.639-9.688,8.486a16.592,16.592,0,0,1-3.115-5.543,27.432,27.432,0,0,1-1.965-10.622c.035-.728.161-1.051.985-1.034,7.974.164,15.948.29,23.922.43A4.019,4.019,0,0,1,80.778,54.744Z" transform="translate(119.991 70)"/><path class="cls-4" d="M62.93,74.661,60.574,71.99c1.707-1.547,3.3-3.016,4.923-4.455,1.791-1.591,3.6-3.161,5.415-4.728,2.038-1.759,4.014-3.6,6.152-5.23,2.482-1.893,5.21-3.211,8.514-2.885,1.6.157,3.22.027,4.838.243-1.6.229-3.208.449-4.81.687a15.825,15.825,0,0,0-9.458,4.707q-3.24,3.4-6.43,6.853C67.5,69.594,65.307,72.038,62.93,74.661Z" transform="translate(119.991 70)"/><path class="cls-4" d="M84.359,54.357q-13.9-.278-27.81-.577c-.362-.008-.717-.356-1.075-.546.383-.173.768-.5,1.147-.5,10.457.177,20.913.527,31.37.546,7.339.013,14.678-.418,22.016-.65.853-.027,1.709-.1,2.556-.046.288.019.555.371.831.571-.261.176-.517.5-.784.506q-10.563.348-21.128.626c-2.372.06-4.747.01-7.121.01Z" transform="translate(119.991 70)"/><path class="cls-4" d="M190.041,75.164a42.271,42.271,0,0,1-3.982,2.94c-5.91,3.413-12.359,4.375-19.08,3.951A31.75,31.75,0,0,1,153.136,78a18.586,18.586,0,0,1-3.51-2.512,22.866,22.866,0,0,1-5.031-5.865c-.991-1.887-2-3.768-2.9-5.7a11.191,11.191,0,0,1-.478-2.25,4.3,4.3,0,0,0-.415-1.361c-1.2-1.882-.826-3.966-1.014-6.054a7.068,7.068,0,0,1,.889-.083c6.627.339,13.26.6,19.878,1.065a65.368,65.368,0,0,1,9.009,1.3,12.372,12.372,0,0,1,4.629,2.008,43.3,43.3,0,0,1,5.831,5.215c2.915,3.084,5.632,6.355,8.478,9.506a10.163,10.163,0,0,0,1.8,1.288Z" transform="translate(119.991 70)"/><path class="cls-4" d="M139.938,51.994c.883-2.563,1.657-5.032,3.705-6.871,5.272-4.733,11.832-5.869,18.507-6.586a72.5,72.5,0,0,1,20.5.628c4.132.735,8.043,2.068,11.151,5.064a12.15,12.15,0,0,1,3.851,8.032C178.461,52.885,159.323,53.377,139.938,51.994Z" transform="translate(119.991 70)"/><path class="cls-4" d="M193.021,71.525c-.641-.536-1.242-1.011-1.813-1.52-3.883-3.465-7.7-7.009-11.663-10.377-2.141-1.819-4.532-3.342-6.7-4.917l25.011-.438C198.135,60.553,196.83,66.292,193.021,71.525Z" transform="translate(119.991 70)"/><path class="cls-4" d="M162.457,54.711c2.628,0,5.263-.117,7.88.055a8.022,8.022,0,0,1,3.323,1.175A29.115,29.115,0,0,1,178,58.98c3.587,3.075,7.083,6.258,10.625,9.385,1.349,1.191,2.726,2.349,4.153,3.576L190.6,74.423a23.052,23.052,0,0,1-2.115-1.849c-2.939-3.269-5.767-6.641-8.769-9.85-2.239-2.394-4.532-4.876-7.779-5.879-2.423-.749-4.968-1.109-7.465-1.614-.647-.13-1.315-.152-1.974-.223Z" transform="translate(119.991 70)"/><path class="cls-4" d="M167.159,53.426l27.854-.664a9.969,9.969,0,0,1,1.666,0c.394.058,1.05.275,1.084.5.119.8-.594.552-1.013.565-3.077.093-6.155.206-9.234.23-11.165.085-22.331.2-33.5.175-4.41-.008-8.82-.33-13.229-.545-.3-.015-.6-.329-.894-.5.314-.2.632-.582.941-.574,3.151.078,6.3.241,9.452.338C156.479,53.132,162.67,53.3,167.159,53.426Z" transform="translate(119.991 70)"/></g><g class="cls-5"><path class="cls-4" d="M-119.991,292.281V-35.741H402.62V292.28ZM46.952,68.649c-.444.372-.787.643-1.112.934-1.439,1.292-2.916,2.546-4.3,3.9a2.832,2.832,0,0,0-.008,4.142,3.353,3.353,0,0,0,5.026-.176l4.084-4.381c1.737,1.216,3.356,2.5,5.122,3.543a36.735,36.735,0,0,0,5.676,2.79,44.634,44.634,0,0,0,21.112,2.239c9.309-1.083,17.344-4.855,23.556-11.969a30.792,30.792,0,0,0,6.144-10.241,10.512,10.512,0,0,1,.6-1.609,3.9,3.9,0,0,1,.809-.808,9.221,9.221,0,0,1-.289,3.581,1.687,1.687,0,0,0,.987,2.248c.945.471,1.623-.207,2.039-.973a27.188,27.188,0,0,0,2.989-10.989c.087-1.082-.178-2.106-1.462-2.3-1.243-.188-1.827.633-2.161,1.7-.222.709-.456,1.414-.684,2.121l-.438-.068c0-.489-.006-.978,0-1.467.036-2.333.223-4.676.055-6.993-.091-1.267.255-1.9,1.355-2.275a7.58,7.58,0,0,1,1.255-.4,90.979,90.979,0,0,1,9.137-1.312A31.508,31.508,0,0,1,140.217,41.9a1.333,1.333,0,0,1,.955,1.57c-.084,2.547.024,5.1.046,7.652,0,.424-.044.849-.068,1.273l-.387.064a19.131,19.131,0,0,0-1.251-2.659,2.522,2.522,0,0,0-1.544-1.155c-.449-.034-1.012.652-1.426,1.109-.761.841-.172,1.748.027,2.6.637,2.745,1.294,5.488,2,8.215a3.419,3.419,0,0,0,.9,1.726,1.605,1.605,0,0,0,2.888-1.038,5.932,5.932,0,0,0-.224-1.951q-.157-1.109-.32-2.216l.436-.135a6.482,6.482,0,0,1,.52.893A40.911,40.911,0,0,0,148.53,68.27a33.3,33.3,0,0,0,9.506,8.431,39.318,39.318,0,0,0,19.3,5.244c8.681.208,16.955-1.219,24.226-6.388,1.128-.8,2.223-1.648,3.288-2.44.668.63,1.332,1.2,1.927,1.834.633.675,1.143,1.472,1.814,2.1a7.275,7.275,0,0,0,2.018,1.4,3.527,3.527,0,0,0,4.083-1.338,2.709,2.709,0,0,0-.449-3.617c-1.546-1.424-3.158-2.779-4.78-4.117-.621-.511-.845-.942-.244-1.615,2.468-2.766,3.512-6.283,4.687-9.643a37.214,37.214,0,0,0,1.292-7.8,31.834,31.834,0,0,0,.029-3.91,3.031,3.031,0,0,1,.534-.218c1.719-.051,3.446-.022,5.155-.178a3.051,3.051,0,0,0,2.066-.831,2.725,2.725,0,0,0-2.371-4.2c-1.676,0-3.354-.036-5.029.022-.765.027-1.01-.3-1.306-.96-1.3-2.916-2.654-5.754-5.191-7.943a27.337,27.337,0,0,0-11.357-5.639,70.049,70.049,0,0,0-18.376-1.888c-9.435.1-18.8.767-27.467,5.031-4.191,2.062-7.662,4.954-9.576,9.388-.131.3-.313.583-.422.784a39.814,39.814,0,0,0-28.007-.042c-.411-.7-.831-1.5-1.345-2.249a22.082,22.082,0,0,0-2.816-3.812c-4.425-4.1-9.869-6.208-15.674-7.421a92.025,92.025,0,0,0-26.868-1.315,44.063,44.063,0,0,0-13.9,3.037c-5.638,2.438-10.078,6.045-11.851,12.253a1.507,1.507,0,0,1-1.147.73c-1.539.084-3.086.03-4.63.031-2.722,0-2.79.179-2.93,2.9-.08,1.544.5,2.046,2.194,2.133,1.5.078,3,.12,4.5.1.85-.01,1.129.27,1.138,1.147.02,1.937.087,3.883.292,5.808A32.856,32.856,0,0,0,46.952,68.649Zm64,48.783-.3.364c1.012,1.776,2.073,3.527,3.026,5.334q3.078,5.834,6.046,11.724a2.924,2.924,0,0,1,.21,1.633q-1.481,10.391-3.028,20.772-1.956,13.2-3.936,26.389-1.983,13.327-3.953,26.656c-.4,2.706-.714,5.425-1.177,8.119a2.541,2.541,0,0,0,.943,2.53q4.7,4.41,9.312,8.909c2.107,2.058,4.131,4.2,6.218,6.278,1.113,1.107,2.284,2.157,3.621,3.413L148.062,219.7c-.187-.907-.372-1.627-.481-2.358q-1.809-12.083-3.595-24.168c-1.33-8.972-2.687-17.941-3.971-26.92-.98-6.856-1.859-13.726-2.794-20.589-.255-1.877-.46-3.767-.846-5.618-.457-2.195-1.164-4.163.329-6.458,2.1-3.225,3.626-6.818,5.427-10.239.774-1.471,1.632-2.9,2.425-4.359a16.651,16.651,0,0,0,.64-1.561Z" transform="translate(119.991 70)"/><path d="M46.952,68.649a32.856,32.856,0,0,1-6.1-15.557c-.2-1.925-.272-3.871-.292-5.808-.009-.877-.288-1.157-1.138-1.147-1.5.016-3-.026-4.5-.1-1.693-.087-2.274-.589-2.194-2.133.14-2.724.208-2.9,2.93-2.9,1.544,0,3.091.053,4.63-.031a1.507,1.507,0,0,0,1.147-.73c1.773-6.208,6.213-9.815,11.851-12.253a44.063,44.063,0,0,1,13.9-3.037,92.025,92.025,0,0,1,26.868,1.315c5.8,1.213,11.249,3.317,15.674,7.421a22.082,22.082,0,0,1,2.816,3.812c.514.745.934,1.554,1.345,2.249a39.814,39.814,0,0,1,28.007.042c.109-.2.291-.481.422-.784,1.914-4.434,5.385-7.326,9.576-9.388,8.666-4.264,18.032-4.929,27.467-5.031a70.049,70.049,0,0,1,18.376,1.888,27.337,27.337,0,0,1,11.357,5.639c2.537,2.189,3.892,5.027,5.191,7.943.3.664.541.987,1.306.96,1.675-.058,3.353-.017,5.029-.022a2.725,2.725,0,0,1,2.371,4.2,3.051,3.051,0,0,1-2.066.831c-1.709.156-3.436.127-5.155.178a3.031,3.031,0,0,0-.534.218,31.834,31.834,0,0,1-.029,3.91,37.214,37.214,0,0,1-1.292,7.8c-1.175,3.36-2.219,6.877-4.687,9.643-.6.673-.377,1.1.244,1.615,1.622,1.338,3.234,2.693,4.78,4.117a2.709,2.709,0,0,1,.449,3.617,3.527,3.527,0,0,1-4.083,1.338,7.275,7.275,0,0,1-2.018-1.4c-.671-.63-1.181-1.427-1.814-2.1-.595-.634-1.259-1.2-1.927-1.834-1.065.792-2.16,1.639-3.288,2.44-7.271,5.169-15.545,6.6-24.226,6.388a39.318,39.318,0,0,1-19.3-5.244,33.3,33.3,0,0,1-9.506-8.431,40.911,40.911,0,0,1-5.754-10.421,6.482,6.482,0,0,0-.52-.893l-.436.135q.161,1.108.32,2.216a5.932,5.932,0,0,1,.224,1.951,1.605,1.605,0,0,1-2.888,1.038,3.419,3.419,0,0,1-.9-1.726c-.71-2.727-1.367-5.47-2-8.215-.2-.856-.788-1.763-.027-2.6.414-.457.977-1.143,1.426-1.109a2.522,2.522,0,0,1,1.544,1.155,19.131,19.131,0,0,1,1.251,2.659l.387-.064c.024-.424.072-.849.068-1.273-.022-2.551-.13-5.1-.046-7.652a1.333,1.333,0,0,0-.955-1.57,31.508,31.508,0,0,0-13.765-2.013,90.979,90.979,0,0,0-9.137,1.312,7.58,7.58,0,0,0-1.255.4c-1.1.374-1.446,1.008-1.355,2.275.168,2.317-.019,4.66-.055,6.993-.007.489,0,.978,0,1.467l.438.068c.228-.707.462-1.412.684-2.121.334-1.064.918-1.885,2.161-1.7,1.284.194,1.549,1.218,1.462,2.3a27.188,27.188,0,0,1-2.989,10.989c-.416.766-1.094,1.444-2.039.973a1.687,1.687,0,0,1-.987-2.248,9.221,9.221,0,0,0,.289-3.581,3.9,3.9,0,0,0-.809.808,10.512,10.512,0,0,0-.6,1.609,30.792,30.792,0,0,1-6.144,10.241C99.9,76.784,91.866,80.556,82.557,81.639A44.634,44.634,0,0,1,61.445,79.4a36.735,36.735,0,0,1-5.676-2.79c-1.766-1.039-3.385-2.327-5.122-3.543l-4.084,4.381a3.353,3.353,0,0,1-5.026.176,2.832,2.832,0,0,1,.008-4.142c1.379-1.353,2.856-2.607,4.3-3.9C46.165,69.292,46.508,69.021,46.952,68.649ZM74.138,25.1c-6.759.171-15.01.485-22.628,4.263A18.619,18.619,0,0,0,43.1,37.429a8.269,8.269,0,0,0-1.062,4.361c.067,1.593-.915,3.211-.966,4.832-.264,8.4,1.822,16.062,7.189,22.745a33.114,33.114,0,0,0,6.626,6.179,23.317,23.317,0,0,0,4.005,2.286,42.559,42.559,0,0,0,16.946,3.626,40.445,40.445,0,0,0,22.583-5.81,33.1,33.1,0,0,0,11.514-12.421,35.931,35.931,0,0,0,4.221-12.691c.985-7.586-.844-14.169-7.483-18.582A35.211,35.211,0,0,0,98,27.876C90.753,25.556,83.216,25.073,74.138,25.1Zm106.279,0c-9.864-.01-21.1,1.165-28.481,5.049-3.657,1.923-6.844,4.4-8.648,8.162a18.192,18.192,0,0,0-1.673,6.207,29.069,29.069,0,0,0,3.253,16.6c1.121,2.073,2.323,4.11,3.608,6.085a28.909,28.909,0,0,0,8.462,8.2,33.361,33.361,0,0,0,9.953,4.473,46.142,46.142,0,0,0,23.29.255,32.244,32.244,0,0,0,13.139-6.48,26.648,26.648,0,0,0,6.583-7.8,45.261,45.261,0,0,0,4.072-10.385c.875-3.578,1.538-7.33.1-11.083-.47-1.229.166-2.893-.333-4.1-1.111-2.685-2.3-5.313-4.619-7.391a26.833,26.833,0,0,0-11.366-5.866A70.632,70.632,0,0,0,180.417,25.1Zm28.429,44.4c-1.195.958-2.24,1.749-3.213,2.622a1.008,1.008,0,0,0,.06.96q1.48,1.748,3.084,3.389a8.041,8.041,0,0,0,1.722,1.375,2.963,2.963,0,0,0,3.661-.887,2.327,2.327,0,0,0-.173-3.025C212.157,72.322,210.294,70.746,208.846,69.5ZM50.3,72.665c-.876-1.1-1.593-2.1-2.438-2.982a1.281,1.281,0,0,0-1.25-.069c-1.55,1.291-3.047,2.65-4.511,4.04a2.369,2.369,0,0,0-.309,3.515,2.774,2.774,0,0,0,3.922.36C47.316,75.982,48.779,74.3,50.3,72.665ZM141.828,40.49c-.527-.247-.981-.5-1.465-.681a34.951,34.951,0,0,0-12.451-2.027A36.13,36.13,0,0,0,115.2,39.854c-1.008.383-1.488.88-.7,1.893,5.4-2.762,18.182-3.777,26.906.053ZM119.163,50.837c-.417-.586-.718-1.487-1.274-1.689-1.036-.375-1.433.593-1.641,1.425-.254,1.017-.4,2.06-.6,3.09-.2.992-.38,1.988-.616,2.972-.344,1.437-.814,2.851-1.046,4.305-.072.451.453,1,.7,1.5.439-.3,1.092-.508,1.286-.925A37.182,37.182,0,0,0,119.163,50.837Zm20.591,2.581.391-.128c-.414-1.189-.779-2.4-1.277-3.552a1.232,1.232,0,0,0-1.01-.6c-.314.052-.676.528-.793.89a2.86,2.86,0,0,0-.044,1.433q1.028,4.624,2.142,9.23a2.066,2.066,0,0,0,.6,1.145,2.137,2.137,0,0,0,1.488.468c.288-.063.656-.854.588-1.25-.25-1.451-.638-2.881-1.03-4.3C140.5,55.625,140.109,54.526,139.754,53.418Zm-98.3-11.163H35.4v2.45h5.889Zm178.658.057h-5.621c-.165,2.459-.165,2.458,2.065,2.458.57,0,1.14.007,1.71.007,2.14,0,2.14,0,1.93-2.194A2.4,2.4,0,0,0,220.115,42.312Zm2.4-.275c-.633.139-1.492.125-1.589.39a3.066,3.066,0,0,0-.024,2.038c.127.319.985.348,1.613.538ZM33.326,44.877c1.384.159,1.5.014,1.448-1.965-.029-1.145-.782-.712-1.448-.693Zm108.228,8.437c-.955.975-.483,1.952-.21,2.911.036.126.341.176.522.261.1-.212.3-.444.268-.632C141.978,55,141.754,54.16,141.554,53.314Zm-28,3.256a2.4,2.4,0,0,0,.808-3.518C114.083,54.268,113.847,55.3,113.554,56.57Z" transform="translate(119.991 70)"/><path d="M110.95,117.432H145.2a16.651,16.651,0,0,1-.64,1.561c-.793,1.461-1.651,2.888-2.425,4.359-1.8,3.421-3.33,7.014-5.427,10.239-1.493,2.295-.786,4.263-.329,6.458.386,1.851.591,3.741.846,5.618.935,6.863,1.814,13.733,2.794,20.589,1.284,8.979,2.641,17.948,3.971,26.92q1.79,12.086,3.595,24.168c.109.731.294,1.451.481,2.358l-20.129,19.851c-1.337-1.256-2.508-2.306-3.621-3.413-2.087-2.078-4.111-4.22-6.218-6.278q-4.611-4.5-9.312-8.909a2.541,2.541,0,0,1-.943-2.53c.463-2.694.777-5.413,1.177-8.119q1.966-13.329,3.953-26.656,1.964-13.2,3.936-26.389,1.539-10.381,3.028-20.772a2.924,2.924,0,0,0-.21-1.633q-2.97-5.889-6.046-11.724c-.953-1.807-2.014-3.558-3.026-5.334ZM127.9,238.771c1.789-1.719,3.537-3.366,5.247-5.051,4.475-4.408,8.926-8.84,13.409-13.239a2.034,2.034,0,0,0,.678-1.977q-1.674-10.7-3.257-21.406-2.014-13.521-3.987-27.05-2.4-16.543-4.716-33.1c-.121-.87-.377-1.211-1.294-1.2q-6.155.053-12.308-.019c-.844-.009-1.136.279-1.252,1.1q-1.707,12.032-3.482,24.054c-1.307,8.886-2.646,17.768-3.954,26.654-.43,2.924-.777,5.859-1.214,8.782-1.106,7.4-2.257,14.792-3.333,22.2a2.333,2.333,0,0,0,.474,1.746c1.59,1.623,3.336,3.091,4.956,4.687,3.441,3.391,6.831,6.835,10.26,10.24C125.3,236.358,126.535,237.479,127.9,238.771Zm16.375-120.812H111.335c.965,1.662,1.847,3.06,2.612,4.52,2.081,3.973,4.095,7.982,6.189,11.948a1.651,1.651,0,0,0,1.172.784c4.323.057,8.648.053,12.972.011a1.737,1.737,0,0,0,1.155-.612,11.64,11.64,0,0,0,1.24-1.988C139.192,127.789,141.69,122.948,144.272,117.959Z" transform="translate(119.991 70)"/><path class="cls-4" d="M74.138,25.1c9.078-.027,16.615.456,23.861,2.776a35.211,35.211,0,0,1,8.671,4.078c6.639,4.413,8.468,11,7.483,18.582a35.931,35.931,0,0,1-4.221,12.691A33.1,33.1,0,0,1,98.418,75.648a40.445,40.445,0,0,1-22.583,5.81,42.559,42.559,0,0,1-16.946-3.626,23.317,23.317,0,0,1-4.005-2.286,33.114,33.114,0,0,1-6.626-6.179c-5.367-6.683-7.453-14.347-7.189-22.745.051-1.621,1.033-3.239.966-4.832A8.269,8.269,0,0,1,43.1,37.429a18.619,18.619,0,0,1,8.413-8.066C59.128,25.585,67.379,25.271,74.138,25.1ZM75.55,79.973c10.37-.139,18.784-2.242,26.372-8.957a30.746,30.746,0,0,0,8.023-11.453,39.107,39.107,0,0,0,2.477-9.556c.79-5.9-.074-11.44-5-15.617-3.842-3.256-8.406-4.962-13.2-6.042A78.876,78.876,0,0,0,73.85,26.572c-7.636.288-15.255.739-22.219,4.47a15.812,15.812,0,0,0-8.191,9.846,29.21,29.21,0,0,0,.7,17.4,29.7,29.7,0,0,0,8.578,13.5,31.754,31.754,0,0,0,6.021,4.222A37.074,37.074,0,0,0,75.55,79.973Z" transform="translate(119.991 70)"/><path class="cls-4" d="M180.417,25.1a70.632,70.632,0,0,1,17.344,1.926,26.833,26.833,0,0,1,11.366,5.866c2.315,2.078,3.508,4.706,4.619,7.391.5,1.205-.137,2.869.333,4.1,1.434,3.753.771,7.5-.1,11.083A45.261,45.261,0,0,1,209.9,65.848a26.648,26.648,0,0,1-6.583,7.8,32.244,32.244,0,0,1-13.139,6.48,46.142,46.142,0,0,1-23.29-.255,33.361,33.361,0,0,1-9.953-4.473,28.909,28.909,0,0,1-8.462-8.2c-1.285-1.975-2.487-4.012-3.608-6.085a29.069,29.069,0,0,1-3.253-16.6,18.192,18.192,0,0,1,1.673-6.207c1.8-3.763,4.991-6.239,8.648-8.162C159.321,26.264,170.553,25.089,180.417,25.1Zm-1.579,1.4c-8.9.332-18.29.8-26.869,5.352-4.295,2.278-7.445,5.627-8.53,10.467a24.332,24.332,0,0,0,.984,13.5c1.272,3.7,2.667,7.284,5.138,10.326a65.185,65.185,0,0,0,5.5,6,20.045,20.045,0,0,0,4.2,2.948c7.408,4.091,15.4,5.368,23.759,4.7,7.15-.57,13.742-2.718,19.323-7.319a28.623,28.623,0,0,0,7.847-10.442,33.188,33.188,0,0,0,2.4-19.412,14.81,14.81,0,0,0-3.425-7.429c-3.025-3.514-6.923-5.357-11.2-6.577C191.882,26.886,185.619,26.648,178.838,26.5Z" transform="translate(119.991 70)"/><path class="cls-4" d="M208.846,69.5c1.448,1.245,3.311,2.821,5.141,4.434a2.327,2.327,0,0,1,.173,3.025,2.963,2.963,0,0,1-3.661.887,8.041,8.041,0,0,1-1.722-1.375q-1.6-1.638-3.084-3.389a1.008,1.008,0,0,1-.06-.96C206.606,71.25,207.651,70.459,208.846,69.5Z" transform="translate(119.991 70)"/><path class="cls-4" d="M50.3,72.665c-1.525,1.631-2.988,3.317-4.586,4.864a2.774,2.774,0,0,1-3.922-.36,2.369,2.369,0,0,1,.309-3.515c1.464-1.39,2.961-2.749,4.511-4.04a1.281,1.281,0,0,1,1.25.069C48.711,70.564,49.428,71.568,50.3,72.665Z" transform="translate(119.991 70)"/><path class="cls-4" d="M141.828,40.49l-.421,1.31c-8.724-3.83-21.5-2.815-26.906-.053-.786-1.013-.306-1.51.7-1.893a36.13,36.13,0,0,1,12.709-2.072,34.951,34.951,0,0,1,12.451,2.027C140.847,39.987,141.3,40.243,141.828,40.49Z" transform="translate(119.991 70)"/><path class="cls-4" d="M119.163,50.837a37.182,37.182,0,0,1-3.187,10.679c-.194.417-.847.622-1.286.925-.252-.5-.777-1.05-.7-1.5.232-1.454.7-2.868,1.046-4.3.236-.984.42-1.98.616-2.972.2-1.03.347-2.073.6-3.09.208-.832.6-1.8,1.641-1.425C118.445,49.35,118.746,50.251,119.163,50.837Z" transform="translate(119.991 70)"/><path class="cls-4" d="M139.754,53.418c.355,1.108.747,2.207,1.056,3.328.392,1.423.78,2.853,1.03,4.3.068.4-.3,1.187-.588,1.25a2.137,2.137,0,0,1-1.488-.468,2.066,2.066,0,0,1-.6-1.145q-1.108-4.606-2.142-9.23a2.86,2.86,0,0,1,.044-1.433c.117-.362.479-.838.793-.89a1.232,1.232,0,0,1,1.01.6c.5,1.153.863,2.363,1.277,3.552Z" transform="translate(119.991 70)"/><path class="cls-4" d="M41.457,42.255l-.168,2.45H35.4v-2.45Z" transform="translate(119.991 70)"/><path class="cls-4" d="M220.115,42.312a2.4,2.4,0,0,1,.084.271c.21,2.191.21,2.191-1.93,2.194-.57,0-1.14-.007-1.71-.007-2.23,0-2.23,0-2.065-2.458Z" transform="translate(119.991 70)"/><path class="cls-4" d="M222.515,42.037V45c-.628-.19-1.486-.219-1.613-.538a3.066,3.066,0,0,1,.024-2.038C221.023,42.162,221.882,42.176,222.515,42.037Z" transform="translate(119.991 70)"/><path class="cls-4" d="M33.326,44.877V42.219c.666-.019,1.419-.452,1.448.693C34.823,44.891,34.71,45.036,33.326,44.877Z" transform="translate(119.991 70)"/><path class="cls-4" d="M141.554,53.314c.2.846.424,1.687.58,2.54.035.188-.172.42-.268.632-.181-.085-.486-.135-.522-.261C141.071,55.266,140.6,54.289,141.554,53.314Z" transform="translate(119.991 70)"/><path class="cls-4" d="M113.554,56.57c.293-1.274.529-2.3.808-3.518A2.4,2.4,0,0,1,113.554,56.57Z" transform="translate(119.991 70)"/><path class="cls-4" d="M127.9,238.771c-1.362-1.292-2.593-2.413-3.773-3.585-3.429-3.405-6.819-6.849-10.26-10.24-1.62-1.6-3.366-3.064-4.956-4.687a2.333,2.333,0,0,1-.474-1.746c1.076-7.4,2.227-14.8,3.333-22.2.437-2.923.784-5.858,1.214-8.782,1.308-8.886,2.647-17.768,3.954-26.654q1.769-12.022,3.482-24.054c.116-.82.408-1.108,1.252-1.1q6.153.067,12.308.019c.917-.008,1.173.333,1.294,1.2q2.319,16.554,4.716,33.1,1.959,13.53,3.987,27.05,1.595,10.708,3.257,21.406a2.034,2.034,0,0,1-.678,1.977c-4.483,4.4-8.934,8.831-13.409,13.239C131.434,235.405,129.686,237.052,127.9,238.771Z" transform="translate(119.991 70)"/><path class="cls-4" d="M144.272,117.959c-2.582,4.989-5.08,9.83-7.6,14.663a11.64,11.64,0,0,1-1.24,1.988,1.737,1.737,0,0,1-1.155.612c-4.324.042-8.649.046-12.972-.011a1.651,1.651,0,0,1-1.172-.784c-2.094-3.966-4.108-7.975-6.189-11.948-.765-1.46-1.647-2.858-2.612-4.52Z" transform="translate(119.991 70)"/><path d="M75.55,79.973a37.074,37.074,0,0,1-16.814-3.964,31.754,31.754,0,0,1-6.021-4.222,29.7,29.7,0,0,1-8.578-13.5,29.21,29.21,0,0,1-.7-17.4,15.812,15.812,0,0,1,8.191-9.846c6.964-3.731,14.583-4.182,22.219-4.47a78.876,78.876,0,0,1,20.375,1.776c4.79,1.08,9.354,2.786,13.2,6.042,4.927,4.177,5.791,9.716,5,15.617a39.107,39.107,0,0,1-2.477,9.556,30.746,30.746,0,0,1-8.023,11.453C94.334,77.731,85.92,79.834,75.55,79.973ZM52.482,70.8A20.776,20.776,0,0,0,58.9,75.522a36.48,36.48,0,0,0,14.347,3.772c9,.615,17.548-.871,25.078-6.075a32.724,32.724,0,0,0,12.112-16.353,25.6,25.6,0,0,0,1.144-4.578c.317-1.977.44-3.985.65-6.01a6.463,6.463,0,0,0-.8-.122c-11.025.285-22.057.526-32.975,2.292a17.855,17.855,0,0,0-9.405,4.493c-1.806,1.664-3.493,3.461-5.177,5.251-1.5,1.6-2.921,3.278-4.392,4.907C57.191,65.633,54.887,68.154,52.482,70.8ZM43.148,43.843c23.137.8,45.893,1.3,68.685-.28-.423-4.342-2.778-7.477-6.076-9.844-4.45-3.194-9.631-4.69-14.98-5.535a91.889,91.889,0,0,0-24.661-.6c-6.752.757-13.344,2.07-18.484,7.124C45.1,37.2,44.3,40.449,43.148,43.843ZM49.016,66.7c2.624-2.286,5.218-4.517,7.778-6.787,2.005-1.778,3.944-3.631,5.956-5.4,1.411-1.243,2.843-2.475,4.359-3.585,1.963-1.437,4.018-2.747,6.01-4.095a1.2,1.2,0,0,0-.351-.081q-14.355-.255-28.712-.513c-.833-.016-1.045.291-1.051,1.074A30.647,30.647,0,0,0,44.45,57.44C45.546,60.705,46.656,63.926,49.016,66.7ZM84.653,47.071l.022-.269c-1.98,0-3.974.146-5.938-.03-4.043-.362-7.319,1.356-10.289,3.719-2.95,2.347-5.7,4.951-8.545,7.426-1.586,1.378-3.219,2.7-4.8,4.09-1.937,1.707-3.836,3.458-5.9,5.326l2.8,3.179c2.786-3.062,5.306-5.867,7.865-8.636,2.708-2.929,5.418-5.859,8.194-8.724a18.446,18.446,0,0,1,10.587-5.229C80.645,47.592,82.652,47.352,84.653,47.071ZM80.337,45.3c-13.78-.335-24.847-.612-35.915-.843-.425-.008-.859.435-1.289.668.412.2.82.561,1.237.571,21.959.528,43.919,1.117,65.874-.118.608-.034,1.782.54,1.722-.7-.057-1.168-1.188-.614-1.807-.595C99.317,44.619,88.477,45.009,80.337,45.3Z" transform="translate(119.991 70)"/><path d="M178.838,26.5c6.781.149,13.044.387,19.122,2.118,4.282,1.22,8.18,3.063,11.2,6.577a14.81,14.81,0,0,1,3.425,7.429,33.188,33.188,0,0,1-2.4,19.412,28.623,28.623,0,0,1-7.847,10.442c-5.581,4.6-12.173,6.749-19.323,7.319-8.363.666-16.351-.611-23.759-4.7a20.045,20.045,0,0,1-4.2-2.948,65.185,65.185,0,0,1-5.5-6c-2.471-3.042-3.866-6.63-5.138-10.326a24.332,24.332,0,0,1-.984-13.5c1.085-4.84,4.235-8.189,8.53-10.467C160.548,27.3,169.936,26.831,178.838,26.5Zm-35.4,19.765c.151,2.562-.2,5.086,1.263,7.35a4.5,4.5,0,0,1,.417,1.505,12.233,12.233,0,0,0,.487,2.428c.883,1.993,1.857,3.95,2.876,5.879a28.451,28.451,0,0,0,9.416,10.129,29.65,29.65,0,0,0,9.441,4.3c10.675,2.733,21.062,2.216,30.9-3.143a48.405,48.405,0,0,0,5.132-3.731c-.791-.808-1.412-1.4-1.985-2.034q-6.09-6.735-12.161-13.485a20.907,20.907,0,0,0-12.889-7.09A254.7,254.7,0,0,0,148,46.27C146.551,46.223,145.1,46.264,143.435,46.264Zm.15-2.7c23.05,1.645,45.81,1.06,68.641.318a14.453,14.453,0,0,0-4.577-9.549c-3.694-3.565-8.344-5.155-13.259-6.024a87.612,87.612,0,0,0-27.274-.415c-6.944.952-13.7,2.543-19.123,7.492C145.574,37.593,144.639,40.513,143.585,43.564Zm39.137,3.228c2.588,1.884,5.434,3.7,7.977,5.862,4.842,4.129,9.507,8.465,14.257,12.7.567.506,1.206.933,1.784,1.375,4.551-6.166,6.015-13.012,5.74-20.456Zm-12.363,0-.019.314c1.465.182,2.928.4,4.4.541,4.963.48,9.459,2.1,13.075,5.627,2.478,2.417,4.835,4.964,7.167,7.524,2.191,2.4,4.257,4.921,6.422,7.349.69.773,1.523,1.418,2.353,2.181l2.67-3.049c-1.7-1.46-3.337-2.838-4.941-4.254-4.212-3.719-8.369-7.5-12.635-11.161a34.577,34.577,0,0,0-5.168-3.612,9.537,9.537,0,0,0-3.952-1.395C176.617,46.656,173.484,46.794,170.359,46.794Zm7.611-1.578,0-.173c-4.9,0-9.8.1-14.688-.025-6.173-.158-12.341-.5-18.512-.759-.559-.023-1.294-.172-1.181.725.031.243.664.569,1.034.586,5.375.256,10.753.67,16.129.648,16.851-.067,33.7-.3,50.552-.475a1.51,1.51,0,0,0,.651-.044c.194-.1.449-.363.432-.53a.9.9,0,0,0-.422-.678,3.766,3.766,0,0,0-1.18-.041Q194.375,44.831,177.97,45.216Z" transform="translate(119.991 70)"/><path class="cls-4" d="M52.482,70.8c2.405-2.645,4.709-5.166,7-7.7,1.471-1.629,2.888-3.308,4.392-4.907,1.684-1.79,3.371-3.587,5.177-5.251a17.855,17.855,0,0,1,9.405-4.493c10.918-1.766,21.95-2.007,32.975-2.292a6.463,6.463,0,0,1,.8.122c-.21,2.025-.333,4.033-.65,6.01a25.6,25.6,0,0,1-1.144,4.578A32.724,32.724,0,0,1,98.323,73.219c-7.53,5.2-16.081,6.69-25.078,6.075A36.48,36.48,0,0,1,58.9,75.522,20.776,20.776,0,0,1,52.482,70.8Z" transform="translate(119.991 70)"/><path class="cls-4" d="M43.148,43.843c1.15-3.394,1.954-6.643,4.484-9.131,5.14-5.054,11.732-6.367,18.484-7.124a91.889,91.889,0,0,1,24.661.6c5.349.845,10.53,2.341,14.98,5.535,3.3,2.367,5.653,5.5,6.076,9.844C89.041,45.143,66.285,44.646,43.148,43.843Z" transform="translate(119.991 70)"/><path class="cls-4" d="M49.016,66.7c-2.36-2.774-3.47-6-4.566-9.26a30.647,30.647,0,0,1-1.445-10.129c.006-.783.218-1.09,1.051-1.074q14.357.28,28.712.513a1.2,1.2,0,0,1,.351.081c-1.992,1.348-4.047,2.658-6.01,4.095-1.516,1.11-2.948,2.342-4.359,3.585-2.012,1.771-3.951,3.624-5.956,5.4C54.234,62.183,51.64,64.414,49.016,66.7Z" transform="translate(119.991 70)"/><path class="cls-4" d="M84.653,47.071c-2,.281-4.008.521-6,.852a18.446,18.446,0,0,0-10.587,5.229c-2.776,2.865-5.486,5.8-8.194,8.724-2.559,2.769-5.079,5.574-7.865,8.636l-2.8-3.179c2.067-1.868,3.966-3.619,5.9-5.326,1.576-1.389,3.209-2.712,4.8-4.09,2.849-2.475,5.6-5.079,8.545-7.426,2.97-2.363,6.246-4.081,10.289-3.719,1.964.176,3.958.03,5.938.03Z" transform="translate(119.991 70)"/><path class="cls-4" d="M80.337,45.3c8.14-.286,18.98-.676,29.822-1.019.619-.019,1.75-.573,1.807.595.06,1.242-1.114.668-1.722.7-21.955,1.235-43.915.646-65.874.118-.417-.01-.825-.373-1.237-.571.43-.233.864-.676,1.289-.668C55.49,44.683,66.557,44.96,80.337,45.3Z" transform="translate(119.991 70)"/><path class="cls-4" d="M143.435,46.264c1.669,0,3.116-.041,4.56.006a254.7,254.7,0,0,1,28.339,2.1,20.907,20.907,0,0,1,12.889,7.09q6.067,6.755,12.161,13.485c.573.634,1.194,1.226,1.985,2.034a48.405,48.405,0,0,1-5.132,3.731c-9.84,5.359-20.227,5.876-30.9,3.143a29.65,29.65,0,0,1-9.441-4.3,28.451,28.451,0,0,1-9.416-10.129c-1.019-1.929-1.993-3.886-2.876-5.879a12.233,12.233,0,0,1-.487-2.428,4.5,4.5,0,0,0-.417-1.505C143.236,51.35,143.586,48.826,143.435,46.264Z" transform="translate(119.991 70)"/><path class="cls-4" d="M143.585,43.564c1.054-3.051,1.989-5.971,4.408-8.178,5.425-4.949,12.179-6.54,19.123-7.492a87.612,87.612,0,0,1,27.274.415c4.915.869,9.565,2.459,13.259,6.024a14.453,14.453,0,0,1,4.577,9.549C189.4,44.624,166.635,45.209,143.585,43.564Z" transform="translate(119.991 70)"/><path class="cls-4" d="M182.722,46.792l29.758-.517c.275,7.444-1.189,14.29-5.74,20.456-.578-.442-1.217-.869-1.784-1.375-4.75-4.237-9.415-8.573-14.257-12.7C188.156,50.487,185.31,48.676,182.722,46.792Z" transform="translate(119.991 70)"/><path class="cls-4" d="M170.359,46.794c3.125,0,6.258-.138,9.37.065a9.537,9.537,0,0,1,3.952,1.395,34.577,34.577,0,0,1,5.168,3.612c4.266,3.657,8.423,7.442,12.635,11.161,1.6,1.416,3.242,2.794,4.941,4.254l-2.67,3.049c-.83-.763-1.663-1.408-2.353-2.181-2.165-2.428-4.231-4.945-6.422-7.349-2.332-2.56-4.689-5.107-7.167-7.524-3.616-3.528-8.112-5.147-13.075-5.627-1.47-.142-2.933-.359-4.4-.541Z" transform="translate(119.991 70)"/><path class="cls-4" d="M177.97,45.216q16.406-.384,32.812-.766a3.766,3.766,0,0,1,1.18.041.9.9,0,0,1,.422.678c.017.167-.238.425-.432.53a1.51,1.51,0,0,1-.651.044c-16.851.172-33.7.408-50.552.475-5.376.022-10.754-.392-16.129-.648-.37-.017-1-.343-1.034-.586-.113-.9.622-.748,1.181-.725,6.171.259,12.339.6,18.512.759,4.893.125,9.792.025,14.688.025Z" transform="translate(119.991 70)"/></g></g></svg>