<svg id="Capa_1" data-name="Capa 1" xmlns="http://www.w3.org/2000/svg" xmlns:xlink="http://www.w3.org/1999/xlink" viewBox="0 0 388.381 261.455"><defs><style>.cls-1{fill:none;}.cls-2{clip-path:url(#clip-path);}.cls-3{fill:#fff;}</style><clipPath id="clip-path" transform="translate(63.569 -0.211)"><circle class="cls-1" cx="131" cy="131" r="127.5"/></clipPath></defs><title>casa-justicia-dibujo</title><g class="cls-2"><path class="cls-3" d="M-63.569,261.666V.211H324.812V261.666ZM208.19,110.177a9.449,9.449,0,0,1-1.626-.953Q194.05,97.487,181.586,85.7a2.2,2.2,0,0,1-.62-1.433q-.065-13.358-.028-26.715c.009-2.286-.583-4.716,1.274-6.76l.954-.131V45.5H163.751v5.073a5.316,5.316,0,0,1,1.118.411,4.031,4.031,0,0,1,.827.847,1.129,1.129,0,0,1,.228.554,14.331,14.331,0,0,1,.1,1.576q.007,8.025,0,16.05c0,.293-.051.585-.091,1.014l-43.64-40.383c-.364.308-.613.5-.844.717C109.694,42.227,97.9,53.064,86.191,63.984Q62.176,86.376,38.244,108.858a19.828,19.828,0,0,1-2.052,1.447,18.189,18.189,0,0,0,.034,2.782c.122.867-.773,2.235.985,2.475.023,0,.04.054.068.094l.184.989h6.016v1.574q0,34.529-.013,69.058c0,.6.388,1.487-.763,1.593-.068.007-.152.225-.168.352a23.664,23.664,0,0,0-.3,2.682c-.039,2.841-.014,5.683-.014,8.656H37.052c0,.968-.006,1.805,0,2.642.017,2.119-.214,1.817,1.769,1.819q35.375.024,70.748.03,39.756,0,79.511-.019c5.738,0,11.475-.015,17.212.016.824,0,1.144-.219,1.073-1.068a15,15,0,0,1,0-2.426c.065-.815-.268-1.033-1.033-1-1.359.05-2.72.014-4.175.014v-1.2c0-2.746.024-5.492-.023-8.236-.012-.752-.044-2.015-.409-2.155-1.283-.494-.784-1.446-.785-2.183q-.039-34.529-.016-69.058c0-.34.031-.679.052-1.122h5.98l.206-1.094c.477-.121.977-.387.991-.675C208.23,113.234,208.19,111.62,208.19,110.177Z" transform="translate(63.569 -0.211)"/><path d="M208.19,110.177c0,1.443.04,3.057-.037,4.666-.014.288-.514.554-.991.675l-.206,1.094h-5.98c-.021.443-.052.782-.052,1.122q-.006,34.528.016,69.058c0,.737-.5,1.689.785,2.183.365.14.4,1.4.409,2.155.047,2.744.022,5.49.023,8.236v1.2c1.455,0,2.816.036,4.175-.014.765-.028,1.1.19,1.033,1a15,15,0,0,0,0,2.426c.071.849-.249,1.073-1.073,1.068-5.737-.031-11.474-.017-17.212-.016q-39.756.01-79.511.019-35.374,0-70.748-.03c-1.983,0-1.752.3-1.769-1.819-.007-.837,0-1.674,0-2.642h5.167c0-2.973-.025-5.815.014-8.656a23.664,23.664,0,0,1,.3-2.682c.016-.127.1-.345.168-.352,1.151-.106.762-.991.763-1.593q.023-34.528.013-69.058v-1.574H37.463l-.184-.989c-.028-.04-.045-.091-.068-.094-1.758-.24-.863-1.608-.985-2.475a18.189,18.189,0,0,1-.034-2.782,19.828,19.828,0,0,0,2.052-1.447Q62.226,86.43,86.191,63.984c11.713-10.92,23.5-21.757,35.259-32.629.231-.214.48-.409.844-.717l43.64,40.383c.04-.429.09-.721.091-1.014q.009-8.025,0-16.05a14.331,14.331,0,0,0-.1-1.576,1.129,1.129,0,0,0-.228-.554,4.031,4.031,0,0,0-.827-.847,5.316,5.316,0,0,0-1.118-.411V45.5h19.415v5.161l-.954.131c-1.857,2.044-1.265,4.474-1.274,6.76q-.058,13.358.028,26.715a2.2,2.2,0,0,0,.62,1.433q12.457,11.8,24.978,23.528A9.449,9.449,0,0,0,208.19,110.177ZM85.119,169.2c.2-.366.425-.72.59-1.1q2.311-5.325,4.6-10.657a3.139,3.139,0,0,0-.722-3.621,3.124,3.124,0,0,1-.789-3.4,2.727,2.727,0,0,1,2.631-1.767,2.049,2.049,0,0,1,2.1,1.457,1.716,1.716,0,0,1-.872,2.152,3.474,3.474,0,0,0-.42.472c1.372,0,2.49.054,3.6-.009,3.689-.21,7.045-1.6,10.376-3.035,4.43-1.9,8.9-3.1,13.581-1.109a16.443,16.443,0,0,1,.909-1.373,1.307,1.307,0,0,0,.02-1.937,3.379,3.379,0,0,1-.8-2.171c.163-1.6,1.3-2.776,2.362-4.215a33.2,33.2,0,0,1,2.016,3.554,2.267,2.267,0,0,1-.109,1.967,2.3,2.3,0,0,0,0,3.6,2.421,2.421,0,0,1,.315.6c.689-.232,1.308-.482,1.949-.649,3.694-.957,7.161-.078,10.6,1.257,2.881,1.116,5.787,2.186,8.738,3.1a15.425,15.425,0,0,0,6.45.277c-1.2-.641-1.776-1.354-1.438-2.437a2.056,2.056,0,0,1,1.777-1.461,2.562,2.562,0,0,1,2.719,1.219,2.871,2.871,0,0,1,.077,3.111c-.483.839-1.464,1.377-1.471,2.512,0,.4-.251.858-.116,1.175q5.528,13.074,11.134,26.116a1.878,1.878,0,0,0,.732.794.967.967,0,0,1,.169,1.69,4.288,4.288,0,0,0-.862.736,8.332,8.332,0,0,1-4.574,3.391,25.337,25.337,0,0,1-14.154.324,9.81,9.81,0,0,1-4.906-2.76c-.573-.6-1.173-1.173-1.729-1.787a.921.921,0,0,1,.116-1.527,3.277,3.277,0,0,0,.961-1.118c2.514-5.7,4.991-11.41,7.481-17.118,1.376-3.156,2.76-6.309,4.216-9.635-.443-.2-.877-.582-1.255-.533-4.353.563-8.459-.384-12.508-1.86a33.3,33.3,0,0,0-4.749-1.412,10.8,10.8,0,0,0-8.758,1.688c-.714.508-1.041.915-.366,1.768.442.557.871,1.312.1,2.084a1.91,1.91,0,0,0-.552,1.208q.064,14.148.218,28.3a4.966,4.966,0,0,0,.427,1.224c.243.788,1.04,1.161,1.123,2.21.144,1.832.373,1.809,2.291,1.807q8.975-.009,17.95-.012h3.079l.2-.962c.089,1.083.81,1.026,1.589,1,1.265-.045,2.533-.018,3.8-.02,1.04,0,2.079,0,3.241,0v4.9h8.9a18.915,18.915,0,0,1-.013,2.023c-.12,1.042.222,1.371,1.322,1.367,10.734-.046,21.469-.029,32.2-.033.344,0,.688-.028,1.107-.046V190.467H161.072v-.294h40.305c.368-1.173-.33-1.073-.932-1.073q-17.685-.007-35.371-.018c-.368,0-.736-.036-1.1-.055l.021-.28h36.525V125.632h-1.088q-3.958,0-7.919,0c-10,0-19.991.011-29.987-.018-.78,0-1.344.227-1.544.929a8.774,8.774,0,0,0-.35,2.359q-.027,19.481-.009,38.961v1.04l-.342-.019V127.717c-.49-.026-.833-.059-1.177-.061-2.358-.008-4.717.036-7.073-.036-.971-.029-1.246.254-1.241,1.23.039,7.039.021,14.078.016,21.117,0,.463-.043.926-.065,1.388l-.271-.01v-1.336q0-10.558-.013-21.118a4.2,4.2,0,0,0-.269-1.408c-.288-.786-.742-1.518-.973-2.318a26.87,26.87,0,0,1-.514-2.788H96.68c-.18.985-.346,1.918-.524,2.848a.729.729,0,0,1-.164.375,4.241,4.241,0,0,0-1.016,3.291c-.037,7.145-.025,14.29-.033,21.434,0,.341-.042.682-.064,1.023l-.324-.025V127.742H85.138c0,13.9,0,27.7,0,41.487a4.309,4.309,0,0,1-.337-1.154c-.018-12.388-.006-24.776-.029-37.164,0-1.282-.216-2.562-.3-3.845-.065-1.02-.518-1.453-1.592-1.451q-18.952.038-37.9.017c-.341,0-.683.029-1.064.047v63.1h36.73v.318H42.976c-.341,1.283.48,1.06,1.063,1.06q19.162.009,38.325.009c.394,0,.788.057,1.181.087l-.013.272H42.647v9.96H77.289v-3.334h8.9c0-1.413.032-2.678-.013-3.94-.025-.691.21-.931.9-.913,1.512.04,3.026.012,4.539.012h2.911l.155-1.038.158-.01.2.986h22.69c.06-.151.1-.248.137-.343.439-1,.239-2.22,1.221-3.056a2.276,2.276,0,0,0,.689-1.537q.168-14.358.236-28.717c0-.29-.049-.716-.238-.851-.966-.691-.7-1.471-.155-2.181.653-.851.371-1.359-.4-1.888a9.911,9.911,0,0,0-7.3-1.828,37.978,37.978,0,0,0-6.2,1.632c-4.037,1.372-8.095,2.4-12.412,1.788-.956-.135-1.36.53-.954,1.456q5.712,13.053,11.429,26.105a1.948,1.948,0,0,0,.343.644c1.149,1.086,1.156,1.078-.105,2.218a1.068,1.068,0,0,0-.192.249,8.3,8.3,0,0,1-5.031,3.611,24.888,24.888,0,0,1-14.856-.1,8.279,8.279,0,0,1-4.334-3.047,5.837,5.837,0,0,0-1.011-1.019,1.014,1.014,0,0,1-.092-1.682,3.9,3.9,0,0,0,1.093-1.249c.587-1.2,1.072-2.449,1.582-3.684Q83.159,173.984,85.119,169.2ZM122.246,42.655c-.69.608-1.332,1.15-1.947,1.72Q103.037,60.382,85.8,76.414a2.17,2.17,0,0,0-.632,1.42q-.049,17.262-.02,34.522c0,.341.032.681.05,1.041H159.19c.02-.359.049-.633.049-.908q0-17.367-.029-34.733a2.18,2.18,0,0,0-.655-1.415q-14.01-13.068-28.069-26.085C127.756,47.723,125.012,45.205,122.246,42.655Zm70.882,71.61h-3.271V109.8h4.575L159.683,77.334v36.111l2.478.111a4.8,4.8,0,0,1-.209,1.179,9.113,9.113,0,0,0-1.135,2.173,26.28,26.28,0,0,0-.053,3.908H200.5v-4.21h-6.071c-.077-.4-.039-.792-.217-.979-.208-.218-.6-.256-.918-.372ZM43.849,120.784h39.7a10.668,10.668,0,0,0-.6-5.676c-.04-.089-.149-.144-.2-.231-.2-.368-.389-.742-.675-1.293l2.6-.155V77.4L49.921,109.837H54.57v4.5h-3.3l.152.264-1.07,1.1-.145-.127-.221,1.082H43.849v4.131Zm159.377-10.952.187-.334L122.268,33.89l-81.34,75.648.178.3c1.536,0,3.074.05,4.606-.028a2.5,2.5,0,0,0,1.459-.6c5.6-5.193,11.157-10.432,16.749-15.632q25.05-23.295,50.119-46.57c2.7-2.511,5.41-5.018,8.167-7.575,2.3,2.132,4.549,4.206,6.79,6.285q19.624,18.2,39.241,36.406,14.531,13.522,29,27.113a1.79,1.79,0,0,0,.952.571C199.864,109.863,201.546,109.832,203.226,109.832Zm-119.245,6.6c0,1.548.053,2.952-.019,4.349-.048.943.213,1.277,1.214,1.261,3.834-.061,7.669-.035,11.5-.036q22.272,0,44.542,0c6.016,0,12.032,0,18.047.055,1,.01,1.282-.3,1.2-1.254a17.344,17.344,0,0,1-.029-3.057c.1-1.078-.26-1.347-1.332-1.346q-36.943.048-73.885.025Zm38.3-85.292L37.988,109.6c1.794.691,2.764-.162,3.776-1.12q8.43-7.987,16.916-15.914Q73.841,78.408,89.032,64.281q14.154-13.149,28.354-26.249c1.594-1.475,3.2-2.937,4.847-4.449l4.24,3.922q20.265,18.747,40.521,37.505,18.195,16.943,36.244,34.042c.938.885,1.854.85,3.264.643Zm58.2,53.517V53.273H166.489a3.555,3.555,0,0,0-.071.474c-.007,5.734-.022,11.468.012,17.2a1.822,1.822,0,0,0,.584,1.139c3.038,2.88,6.1,5.73,9.164,8.585C177.553,81.954,178.935,83.229,180.476,84.657ZM47.233,109.728a3.2,3.2,0,0,0,3.079-.712c5.778-5.466,11.61-10.875,17.435-16.291Q92.45,69.756,117.164,46.8c1.664-1.546,3.355-3.063,5.046-4.6.454.414.82.741,1.18,1.074q8.567,7.92,17.13,15.843,14.162,13.145,28.3,26.312,12.591,11.731,25.138,23.512a3.014,3.014,0,0,0,3.153.746l-74.874-69.7Zm60.14,91.251H37.4v3.606H107.19C107.253,203.352,107.31,202.209,107.373,200.979ZM137.19,204.6h69.727v-3.646H136.986C137.056,202.194,137.121,203.366,137.19,204.6Zm24.418-90.6H82.539c.341.434.774.737.748.993-.13,1.254.665,1.124,1.461,1.124q36.408-.007,72.815,0c.915,0,1.832.028,2.743-.035a1.059,1.059,0,0,0,.736-.482A11.134,11.134,0,0,0,161.608,113.993ZM91.99,156.886l-.246.076a1.323,1.323,0,0,0-.062.285q0,12.763,0,25.526c0,.762.345.853.962.85,3.34-.014,6.68,0,10.021-.006.265,0,.531-.056,1.017-.11Zm60.644.053-.246-.072L140.7,183.537h11.938Zm.771,0-.292.09q0,12.93-.011,25.86c0,.765.448.735.964.733q3.483-.007,6.967-.006h3.789ZM91.231,157l-.248-.093c-3.771,8.829-7.542,17.658-11.372,26.627h11.62ZM86.6,197.082H113.78c-.064-1.039.463-1.388,1.32-1.671a4.233,4.233,0,0,0,2.539-2.685H86.6Zm40.169-4.366a4.463,4.463,0,0,0,2.19,2.558c.745.377,1.643.482,1.686,1.591,0,.089.335.216.523.236a14.223,14.223,0,0,0,1.474.075q12.025.011,24.05.009c.343,0,.686-.038,1.082-.062v-4.407Zm73.732-70.35h-39a7.512,7.512,0,0,0-.619,1.386,7.03,7.03,0,0,0-.022,1.449H200.5Zm-117.5,0H43.943v2.828h39.81Zm28.187,75.125h-.976l-29,.011c-.95,0-1.9-.036-2.847.022-.261.016-.7.291-.722.481-.08.818-.034,1.649-.034,2.42h32.517Zm55.613,2.99a18.7,18.7,0,0,1,.012-1.892c.1-.905-.286-1.111-1.139-1.109q-15.678.039-31.356.018h-1.114l1.016,2.983ZM120.52,157.785v30.127h3.264V157.785Zm3.825-4.149c4.086-3.041,8.265-2.8,12.559-1.341,1.8.61,3.589,1.251,5.413,1.772a18.97,18.97,0,0,0,9.385.55,7.473,7.473,0,0,0,3-1.565,2.173,2.173,0,0,0,.2-2.822,2.208,2.208,0,0,0-2.375-1.006,1.386,1.386,0,0,0-1.173,1.856,2.044,2.044,0,0,0,1.1.756c.145.053.675-.416.643-.5a4.891,4.891,0,0,0-.688-1.014,1.025,1.025,0,0,1,1.489.406,1.217,1.217,0,0,1-.429,1.829,5.667,5.667,0,0,1-2.093.621,20,20,0,0,1-9.2-1.368c-2.872-1.048-5.693-2.249-8.6-3.184a11.623,11.623,0,0,0-8.458.363,1.319,1.319,0,0,0-.74.83C124.294,151,124.345,152.2,124.345,153.636Zm-4.337-.405c0-.954.063-2.067-.034-3.166a1.418,1.418,0,0,0-.722-1.055,21.591,21.591,0,0,0-4.3-.913c-2.918-.2-5.583.9-8.244,1.934-2.127.83-4.24,1.721-6.422,2.376a15.754,15.754,0,0,1-8.215.615,2.35,2.35,0,0,1-1.369-.673,2.066,2.066,0,0,1-.188-1.6.853.853,0,0,1,1.246-.48,3.759,3.759,0,0,0-.366,1.208c.006.135.686.432.852.327a1.855,1.855,0,0,0,.844-1.028,1.331,1.331,0,0,0-1.06-1.493,2.16,2.16,0,0,0-2.768,1.435,2.774,2.774,0,0,0,2.213,3.585,25.3,25.3,0,0,0,5.63.572c3.566-.044,6.879-1.313,10.19-2.5a13.537,13.537,0,0,1,7.645-.934A43.979,43.979,0,0,1,120.008,153.231Zm-40.234,32.4a7.139,7.139,0,0,0,3.438,2.954c3.481,1.561,7.163,1.635,10.873,1.377a13.994,13.994,0,0,0,6.922-1.984,23.414,23.414,0,0,0,2.38-2.057l-.2-.29Zm61.113-.035c.405.508.617.817.871,1.087a9.57,9.57,0,0,0,4.822,2.675,26.6,26.6,0,0,0,10.264.431c2.5-.367,4.907-1.008,6.762-2.891a15.2,15.2,0,0,0,1.012-1.3ZM111,200.4h22.386c.14-1.813-.778-2.878-2.455-2.88q-8.7-.012-17.406.006C111.731,197.526,110.819,198.558,111,200.4Zm79.173-86.612h17.574v-3.479H190.172ZM36.623,113.8H54.178v-3.482H36.623Zm71.241,89.014h28.7c.094-1.465-.28-1.9-1.638-1.9q-12.771-.012-25.542,0C108.038,200.913,107.664,201.39,107.864,202.812ZM182.79,45.89H164.15v3.061h18.64ZM116.179,195.455h12.009a6.343,6.343,0,0,1-2.328-3.864A1.024,1.024,0,0,0,125.1,191c-1.93-.046-3.863-.045-5.793.019a1.122,1.122,0,0,0-.816.664A6.27,6.27,0,0,1,116.179,195.455ZM107.8,204.49H136.65l-.067-1.1H107.8Zm72.881-82.47v.005c6.3,0,12.6.007,18.9-.019a2.888,2.888,0,0,0,.989-.421,2.933,2.933,0,0,0-.942-.356q-18.9-.03-37.79-.021a2.12,2.12,0,0,0-.629.021c-.163.053-.287.227-.429.348.126.14.232.368.383.4a4.238,4.238,0,0,0,.945.04Zm-116.895,0v0H82.361A2.671,2.671,0,0,0,83.1,122a1.967,1.967,0,0,0,.527-.372,1.975,1.975,0,0,0-.493-.4,1.862,1.862,0,0,0-.627-.025l-37.369,0a3.846,3.846,0,0,0-.84.028c-.155.035-.381.229-.38.349a.554.554,0,0,0,.346.395,3.339,3.339,0,0,0,.839.037ZM95.8,123.428c-3.847,0-7.6-.024-11.346.019-.861.01-.445.8-.514,1.244-.1.672.37.7.872.7,3.336-.006,6.673-.027,10.009.021.859.012,1.147-.293,1.041-1.1C95.827,124.074,95.823,123.829,95.8,123.428Zm64.611.061H148.645c-.385,1.8-.3,1.905,1.371,1.9,3.015,0,6.031.012,9.047.009.442,0,.884-.055,1.344-.086Zm-55.8,60.719H78.594c.062.926.643.907,1.207.906q3.373-.006,6.747-.016,8.328-.008,16.656-.014C103.766,185.083,104.43,185.215,104.6,184.208Zm61.157.047H139.832l-.1.427a4.72,4.72,0,0,0,1.282.4c3.552.036,7.1.031,10.656.03q6.436,0,12.873-.02C165.1,185.086,165.7,185.134,165.761,184.255ZM120.61,148.468v6.673h3.156v-6.673Zm43.554-99.077c-.3,1.082.361.992.918.993q7.224.012,14.448.014c.879,0,1.76.018,2.635-.041.236-.016.454-.286.68-.439a3.079,3.079,0,0,0-.708-.509,2.614,2.614,0,0,0-.837-.029l-13.394.011C166.68,49.392,165.454,49.391,164.164,49.391ZM114.372,197.02h15.656c.071-1.022-.565-1.084-1.227-1.084-1.966,0-3.931.012-5.9.014-2.457,0-4.914,0-7.371,0C114.875,195.953,114.239,196.014,114.372,197.02ZM173.516,52.8v-.009c2.144,0,4.289.018,6.432-.023.286-.005.565-.311.848-.478-.255-.192-.509-.549-.766-.551q-6.484-.056-12.97-.009c-.263,0-.525.355-.787.545.27.175.537.5.81.5C169.227,52.818,171.372,52.8,173.516,52.8Zm-8.222-1.514a8.8,8.8,0,0,0,1.459.244q6.738.021,13.475-.015a9.22,9.22,0,0,0,1.485-.274C180.913,50.593,166.154,50.523,165.294,51.286ZM43.717,115.108v.006c2.111,0,4.223.016,6.334-.02.262,0,.52-.283.78-.435-.268-.139-.534-.4-.8-.4q-6.335-.04-12.668,0c-.262,0-.522.277-.782.424.268.143.534.405.8.41C39.494,115.123,41.606,115.108,43.717,115.108Zm156.858,0c2.146,0,4.293.015,6.438-.02.264,0,.523-.276.784-.424-.261-.145-.522-.414-.784-.416q-6.333-.033-12.667.013c-.265,0-.527.261-.791.4.264.148.526.421.792.425C196.422,115.128,198.5,115.112,200.575,115.113ZM122.181,139.7c-.616,1.059-1.187,1.933-1.645,2.863a1.329,1.329,0,0,0,.417,1.86,2.1,2.1,0,0,0,2.55-.084,1.987,1.987,0,0,0,.3-1.765A19.36,19.36,0,0,0,122.181,139.7ZM89.97,123.08v0c1.827,0,3.655.016,5.482-.016a2.643,2.643,0,0,0,.855-.348c-.275-.135-.55-.386-.827-.388q-5.588-.03-11.174.016a2.555,2.555,0,0,0-.858.354,2.456,2.456,0,0,0,.83.362C86.175,123.1,88.072,123.08,89.97,123.08Zm70.96-.111.041-.434a6.025,6.025,0,0,0-1.089-.2c-3.579-.009-7.157,0-10.736.011a2.14,2.14,0,0,0-.627.026,1.687,1.687,0,0,0-.447.336,1.708,1.708,0,0,0,.413.359,1.4,1.4,0,0,0,.52.02q5.474,0,10.947-.016A9.274,9.274,0,0,0,160.93,122.969Zm-6.338,3.345v-.031c-1.405,0-2.812-.026-4.216.021-.3.01-.582.29-.873.445.3.188.593.536.892.54,2.776.036,5.553.025,8.329-.012.267,0,.531-.278.8-.426-.272-.179-.539-.5-.818-.513C157.335,126.284,155.963,126.314,154.592,126.314Zm-64.752.99c1.405,0,2.811.027,4.214-.023.284-.011.558-.317.836-.487-.293-.162-.584-.459-.878-.463q-4.161-.054-8.324,0c-.279,0-.554.322-.831.494.291.159.578.444.874.455C87.1,127.33,88.47,127.3,89.84,127.3ZM43.808,116.283c1.717,0,3.435.018,5.152-.019.279-.006.552-.254.828-.39-.258-.147-.515-.419-.774-.422q-5.257-.042-10.516,0c-.278,0-.554.244-.831.374.294.153.585.431.883.438C40.3,116.3,42.055,116.282,43.808,116.283Zm156.932-.837v-.008c-1.793,0-3.586-.015-5.378.019-.227.005-.449.269-.674.412.2.136.407.389.611.39q5.377.042,10.756.009c.228,0,.454-.284.682-.436-.242-.128-.481-.364-.725-.369C204.255,115.431,202.5,115.446,200.74,115.446Zm-78.612,75.1v-.015c.874,0,1.751.039,2.621-.024.256-.019.491-.327.736-.5-.241-.147-.478-.415-.723-.421q-2.568-.067-5.139-.024c-.244,0-.484.27-.726.414.238.191.464.526.716.547C120.446,190.59,121.289,190.546,122.128,190.546Zm-26.977-64.6v-.221H84.479v.221Zm54.056-.245.019.226h10.657l0-.226ZM119.636,156.6c.776,1,4.544.964,5,0Zm.111,32.361h4.971C124.02,188.256,120.571,188.2,119.747,188.959Zm1.366-41.094h2.149c-.21-.535-.369-1.017-.589-1.469a2.51,2.51,0,0,0-.488-.532c-.175.175-.411.32-.513.531C121.464,146.821,121.328,147.282,121.113,147.865Zm3.23,8.136,0-.257h-4.279l0,.257Z" transform="translate(63.569 -0.211)"/><path class="cls-3" d="M85.138,169.232v-41.49h9.417v23.581l.324.025c.022-.341.063-.682.064-1.023.008-7.144,0-14.289.033-21.434a4.241,4.241,0,0,1,1.016-3.291.729.729,0,0,0,.164-.375c.178-.93.344-1.863.524-2.848H147.7a26.87,26.87,0,0,0,.514,2.788c.231.8.685,1.532.973,2.318a4.2,4.2,0,0,1,.269,1.408q.025,10.56.013,21.118v1.336l.271.01c.022-.462.064-.925.065-1.388.005-7.039.023-14.078-.016-21.117,0-.976.27-1.259,1.241-1.23,2.356.072,4.715.028,7.073.036.344,0,.687.035,1.177.061v41.164l.342.019v-1.04q0-19.481.009-38.961a8.774,8.774,0,0,1,.35-2.359c.2-.7.764-.931,1.544-.929,10,.029,19.992.018,29.987.018q3.96,0,7.919,0h1.088v63.115H163.99l-.021.28c.368.019.736.055,1.1.055q17.685.012,35.371.018c.6,0,1.3-.1.932,1.073H161.071v.294h40.662v10.049c-.419.018-.763.046-1.107.046-10.735,0-21.47-.013-32.2.033-1.1,0-1.442-.325-1.322-1.367a18.915,18.915,0,0,0,.013-2.023h-8.9v-4.9c-1.162,0-2.2,0-3.241,0-1.267,0-2.535-.025-3.8.02-.779.028-1.5.085-1.589-1l-.2.962H146.3q-8.976.006-17.95.012c-1.918,0-2.147.025-2.291-1.807-.083-1.049-.88-1.422-1.123-2.21a4.966,4.966,0,0,1-.427-1.224q-.147-14.148-.218-28.3a1.91,1.91,0,0,1,.552-1.208c.769-.772.34-1.527-.1-2.084-.675-.853-.348-1.26.366-1.768a10.8,10.8,0,0,1,8.758-1.688,33.3,33.3,0,0,1,4.749,1.412c4.049,1.476,8.155,2.423,12.508,1.86.378-.049.812.335,1.255.533-1.456,3.326-2.84,6.479-4.216,9.635-2.49,5.708-4.967,11.421-7.481,17.118a3.277,3.277,0,0,1-.961,1.118.921.921,0,0,0-.116,1.527c.556.614,1.156,1.187,1.729,1.787a9.81,9.81,0,0,0,4.906,2.76,25.337,25.337,0,0,0,14.154-.324,8.332,8.332,0,0,0,4.574-3.391,4.288,4.288,0,0,1,.862-.736.967.967,0,0,0-.169-1.69,1.878,1.878,0,0,1-.732-.794q-5.6-13.046-11.134-26.116c-.135-.317.114-.78.116-1.175.007-1.135.988-1.673,1.471-2.512a2.871,2.871,0,0,0-.077-3.111,2.562,2.562,0,0,0-2.719-1.219,2.056,2.056,0,0,0-1.777,1.461c-.338,1.083.237,1.8,1.438,2.437a15.425,15.425,0,0,1-6.45-.277c-2.951-.91-5.857-1.98-8.738-3.1-3.441-1.335-6.908-2.214-10.6-1.257-.641.167-1.26.417-1.949.649a2.421,2.421,0,0,0-.315-.6,2.3,2.3,0,0,1,0-3.6,2.267,2.267,0,0,0,.109-1.967,33.2,33.2,0,0,0-2.016-3.554c-1.065,1.439-2.2,2.61-2.362,4.215a3.379,3.379,0,0,0,.8,2.171,1.307,1.307,0,0,1-.02,1.937,16.443,16.443,0,0,0-.909,1.373c-4.685-1.989-9.151-.792-13.581,1.109-3.331,1.43-6.687,2.825-10.376,3.035-1.111.063-2.229.009-3.6.009a3.474,3.474,0,0,1,.42-.472,1.716,1.716,0,0,0,.872-2.152,2.049,2.049,0,0,0-2.1-1.457,2.727,2.727,0,0,0-2.631,1.767,3.124,3.124,0,0,0,.789,3.4,3.139,3.139,0,0,1,.722,3.621q-2.3,5.328-4.6,10.657c-.165.38-.392.734-.59,1.1Zm84.392-36.166V166.14l-1.319.171c.236.95.456,1.834.687,2.761h22.933l.605-2.746-1.366-.2V133.066Zm-25.974-6.288H100.883v24.228h.255V127.132h42.169v23.853l.249,0Zm-21.487,4.337v6.927h.292V131.19h17.385v18.262c.213-.063.259-.123.259-.183.006-5.913,0-11.825.024-17.738,0-.757-.427-.746-.953-.746q-16.84.006-33.681-.009c-.763,0-1.041.2-1.037,1.009.03,5.666.012,11.333.016,17a5.772,5.772,0,0,0,.091.737,1.6,1.6,0,0,0,.244-1.015c0-5.42.021-10.84-.009-16.26,0-.859.236-1.147,1.125-1.139,4.117.04,8.235.012,12.353.009Zm4.223,26.16-.256.008a4.682,4.682,0,0,0-.1.7c-.007,6.752,0,13.5-.024,20.257,0,.781.378.831.977.828,2.989-.015,5.979-.037,8.968.013.864.014,1.052-.294,1.049-1.095-.028-6.681-.018-13.363-.019-20.045v-1.958l-.359.013v22.621H126.292ZM107.81,134.993h10.372v12.323l.17-.008V134.533c-3.292,0-6.488.032-9.684-.02-.908-.016-1.2.2-1.191,1.161.057,3.9.023,7.806.027,11.708,0,.287.037.574.057.861l.249-.006Zm29.029-.373H126.013v12.525l.249,0V135h10.359v13.068l.218,0Zm6.691,22.5h-.2v17.288h.2Zm-3.751,24.6.164-.008V156.286h-.164Zm.289,5.991-.017-.2H126.287v.2Z" transform="translate(63.569 -0.211)"/><path class="cls-3" d="M85.119,169.2q-1.966,4.779-3.934,9.557c-.51,1.235-1,2.485-1.582,3.684a3.9,3.9,0,0,1-1.093,1.249,1.014,1.014,0,0,0,.092,1.682,5.837,5.837,0,0,1,1.011,1.019,8.279,8.279,0,0,0,4.334,3.047,24.888,24.888,0,0,0,14.856.1,8.3,8.3,0,0,0,5.031-3.611,1.068,1.068,0,0,1,.192-.249c1.261-1.14,1.254-1.132.105-2.218a1.948,1.948,0,0,1-.343-.644q-5.716-13.052-11.429-26.105c-.406-.926,0-1.591.954-1.456,4.317.608,8.375-.416,12.412-1.788a37.978,37.978,0,0,1,6.2-1.632,9.911,9.911,0,0,1,7.3,1.828c.77.529,1.052,1.037.4,1.888-.545.71-.811,1.49.155,2.181.189.135.24.561.238.851q-.09,14.359-.236,28.717a2.276,2.276,0,0,1-.689,1.537c-.982.836-.782,2.057-1.221,3.056-.041.095-.077.192-.137.343H95.049l-.2-.986-.158.01-.155,1.038H91.621c-1.513,0-3.027.028-4.539-.012-.694-.018-.929.222-.9.913.045,1.262.013,2.527.013,3.94h-8.9v3.334H42.647v-9.96H83.532l.013-.272c-.393-.03-.787-.087-1.181-.087q-19.163-.007-38.325-.009c-.583,0-1.4.223-1.063-1.06H80.642v-.318H43.912v-63.1c.381-.018.723-.047,1.064-.047q18.953,0,37.9-.017c1.074,0,1.527.431,1.592,1.451.083,1.283.3,2.563.3,3.845.023,12.388.011,24.776.029,37.164a4.326,4.326,0,0,0,.337,1.155Zm-10.329-3.04V133.086H53.257v33.021l-1.35.243.715,2.729H75.535c.251-.984.473-1.858.711-2.791Zm32.995,12.473V156.044c-.227.1-.256.207-.256.31-.013,7.284-.014,14.567-.047,21.85,0,.741.305.871.946.866,2.991-.022,5.982-.037,8.972.011.847.013,1.065-.259,1.061-1.081-.029-6.51-.012-13.019-.017-19.529a10.176,10.176,0,0,0-.109-1.054l-.276.021v21.2Zm-3.338,3.147.181.006V156.157h-.181Zm-3.33-24.874-.192-.01v17.5h.192Zm3.252,30.591,0,.157H118.3l0-.157ZM94.9,157.447l-.173-.011v2.805l.173-.01Z" transform="translate(63.569 -0.211)"/><path class="cls-3" d="M122.246,42.655c2.766,2.55,5.51,5.068,8.24,7.6q14.048,13.029,28.069,26.085a2.18,2.18,0,0,1,.655,1.415q.056,17.365.029,34.733c0,.275-.029.549-.049.908H85.2c-.018-.36-.05-.7-.05-1.041q-.006-17.26.02-34.522a2.17,2.17,0,0,1,.632-1.42q17.226-16.046,34.5-32.039C120.914,43.805,121.556,43.263,122.246,42.655ZM136.62,104.62v-3.249q0-2.481,0-4.963,0-2.428,0-4.857,0-2.481,0-4.963c0-1.654.006-3.308.006-4.963,0-1.619.082-3.244-.028-4.855-.107-1.551.394-3.091.017-4.638a.553.553,0,0,1,.151-.457,2.972,2.972,0,0,0,1.182-2.6,6.754,6.754,0,0,1,0-1.371c.136-.97-.293-1.157-1.19-1.154-9.679.031-19.359.02-29.038.021a2.035,2.035,0,0,0-.731.03.914.914,0,0,0-.514.5c-.465,2,.656,3.784.807,5.706,0,.059.093.106.117.169a3.787,3.787,0,0,1,.418,1.187c.022,9.187.058,18.374-.043,27.559-.012,1.038,1.252,3.045-1.377,3.05-.025,0-.051.045-.274.256.156.293.354.658.543,1.027.089.175.255.374.228.535-.188,1.113.457,1.159,1.3,1.157q14.149-.031,28.3-.022c.306,0,.612-.041.765-.051l1.085-2.875Z" transform="translate(63.569 -0.211)"/><path class="cls-3" d="M193.128,114.265l.163.99c.313.116.71.154.918.372.178.187.14.579.217.979H200.5v4.21H160.764a26.28,26.28,0,0,1,.053-3.908,9.113,9.113,0,0,1,1.135-2.173,4.8,4.8,0,0,0,.209-1.179l-2.478-.111V77.334L194.432,109.8h-4.575v4.462Z" transform="translate(63.569 -0.211)"/><path class="cls-3" d="M43.849,120.784v-4.131h6.135l.221-1.082.145.127,1.07-1.1-.152-.264h3.3v-4.5H49.921L84.673,77.4v36.027l-2.6.155c.286.551.475.925.675,1.293.047.087.156.142.2.231a10.668,10.668,0,0,1,.6,5.676Z" transform="translate(63.569 -0.211)"/><path class="cls-3" d="M203.226,109.832c-1.68,0-3.362.031-5.04-.027a1.79,1.79,0,0,1-.952-.571q-14.5-13.551-29-27.113Q148.644,63.888,129,45.715c-2.241-2.079-4.486-4.153-6.79-6.285-2.757,2.557-5.464,5.064-8.167,7.575Q88.977,70.288,63.92,93.575c-5.592,5.2-11.149,10.439-16.749,15.632a2.5,2.5,0,0,1-1.459.6c-1.532.078-3.07.028-4.606.028l-.178-.3,81.34-75.648L203.413,109.5Z" transform="translate(63.569 -0.211)"/><path class="cls-3" d="M83.981,116.432h1.24q36.942,0,73.885-.025c1.072,0,1.43.268,1.332,1.346a17.344,17.344,0,0,0,.029,3.057c.083.953-.2,1.264-1.2,1.254-6.015-.058-12.031-.053-18.047-.055q-22.271-.009-44.542,0c-3.834,0-7.669-.025-11.5.036-1,.016-1.262-.318-1.214-1.261C84.034,119.384,83.981,117.98,83.981,116.432Z" transform="translate(63.569 -0.211)"/><path class="cls-3" d="M122.279,31.14,206.5,109.7c-1.41.207-2.326.242-3.264-.643Q185.156,91.988,166.994,75.01q-20.2-18.815-40.521-37.505l-4.24-3.922c-1.648,1.512-3.253,2.974-4.847,4.449Q103.205,51.153,89.032,64.281,73.833,78.4,58.68,92.566q-8.485,7.927-16.916,15.914c-1.012.958-1.982,1.811-3.776,1.12Z" transform="translate(63.569 -0.211)"/><path class="cls-3" d="M180.476,84.657c-1.541-1.428-2.923-2.7-4.3-3.985-3.061-2.855-6.126-5.7-9.164-8.585a1.822,1.822,0,0,1-.584-1.139c-.034-5.733-.019-11.467-.012-17.2a3.555,3.555,0,0,1,.071-.474h13.987Z" transform="translate(63.569 -0.211)"/><path class="cls-3" d="M47.233,109.728,122.238,39.98l74.874,69.7a3.014,3.014,0,0,1-3.153-.746Q181.424,97.14,168.821,85.421q-14.136-13.172-28.3-26.312-8.55-7.937-17.13-15.843c-.36-.333-.726-.66-1.18-1.074-1.691,1.542-3.382,3.059-5.046,4.6Q92.451,69.756,67.747,92.725c-5.825,5.416-11.657,10.825-17.435,16.291A3.2,3.2,0,0,1,47.233,109.728Z" transform="translate(63.569 -0.211)"/><path class="cls-3" d="M107.373,200.979c-.063,1.23-.12,2.373-.183,3.606H37.4v-3.606Z" transform="translate(63.569 -0.211)"/><path class="cls-3" d="M137.19,204.6c-.069-1.229-.134-2.4-.2-3.646h69.931V204.6Z" transform="translate(63.569 -0.211)"/><path class="cls-3" d="M161.608,113.993a11.134,11.134,0,0,1-.566,1.6,1.059,1.059,0,0,1-.736.482c-.911.063-1.828.035-2.743.035q-36.406,0-72.815,0c-.8,0-1.591.13-1.461-1.124.026-.256-.407-.559-.748-.993Z" transform="translate(63.569 -0.211)"/><path class="cls-3" d="M91.99,156.886l11.692,26.621c-.486.054-.752.11-1.017.11-3.341,0-6.681-.008-10.021.006-.617,0-.964-.088-.962-.85q.025-12.762,0-25.526a1.323,1.323,0,0,1,.062-.285Z" transform="translate(63.569 -0.211)"/><path class="cls-3" d="M152.634,156.939v26.6H140.7l11.692-26.67Z" transform="translate(63.569 -0.211)"/><path class="cls-3" d="M153.405,156.937l11.417,26.677h-3.789q-3.483,0-6.967.006c-.516,0-.965.032-.964-.733q.025-12.93.011-25.86Zm5.924,24.871.137-.011v-8.341l-.137.009Z" transform="translate(63.569 -0.211)"/><path class="cls-3" d="M91.231,157V183.53H79.611c3.83-8.969,7.6-17.8,11.372-26.627Zm-6.345,24.776.183.021v-8.527h-.183Z" transform="translate(63.569 -0.211)"/><path class="cls-3" d="M86.6,197.082v-4.356h31.036a4.233,4.233,0,0,1-2.539,2.685c-.857.283-1.384.632-1.32,1.671Z" transform="translate(63.569 -0.211)"/><path class="cls-3" d="M126.772,192.716h31v4.407c-.4.024-.739.062-1.082.062q-12.025,0-24.05-.009a14.223,14.223,0,0,1-1.474-.075c-.188-.02-.52-.147-.523-.236-.043-1.109-.941-1.214-1.686-1.591A4.463,4.463,0,0,1,126.772,192.716Z" transform="translate(63.569 -0.211)"/><path class="cls-3" d="M200.5,122.366V125.2h-39.64a7.03,7.03,0,0,1,.022-1.449,7.512,7.512,0,0,1,.619-1.386Z" transform="translate(63.569 -0.211)"/><path class="cls-3" d="M83,122.364l.751,2.828H43.943v-2.828Z" transform="translate(63.569 -0.211)"/><path class="cls-3" d="M111.189,197.489l-1.067,2.934H77.605c0-.771-.046-1.6.034-2.42.019-.19.461-.465.722-.481.946-.058,1.9-.022,2.847-.022l29-.011Z" transform="translate(63.569 -0.211)"/><path class="cls-3" d="M166.8,200.479H134.221l-1.016-2.983h1.114q15.678,0,31.356-.018c.853,0,1.238.2,1.139,1.109A18.7,18.7,0,0,0,166.8,200.479Z" transform="translate(63.569 -0.211)"/><path class="cls-3" d="M120.52,157.785h3.264v30.127H120.52Z" transform="translate(63.569 -0.211)"/><path class="cls-3" d="M124.345,153.636c0-1.441-.051-2.634.035-3.818a1.319,1.319,0,0,1,.74-.83,11.623,11.623,0,0,1,8.458-.363c2.908.935,5.729,2.136,8.6,3.184a20,20,0,0,0,9.2,1.368,5.667,5.667,0,0,0,2.093-.621,1.217,1.217,0,0,0,.429-1.829,1.025,1.025,0,0,0-1.489-.406,4.891,4.891,0,0,1,.688,1.014c.032.085-.5.554-.643.5a2.044,2.044,0,0,1-1.1-.756,1.386,1.386,0,0,1,1.173-1.856,2.208,2.208,0,0,1,2.375,1.006,2.173,2.173,0,0,1-.2,2.822,7.473,7.473,0,0,1-3,1.565,18.97,18.97,0,0,1-9.385-.55c-1.824-.521-3.615-1.162-5.413-1.772C132.61,150.837,128.431,150.6,124.345,153.636Z" transform="translate(63.569 -0.211)"/><path class="cls-3" d="M120.008,153.231a43.979,43.979,0,0,0-5.066-1.8,13.537,13.537,0,0,0-7.645.934c-3.311,1.191-6.624,2.46-10.19,2.5a25.3,25.3,0,0,1-5.63-.572,2.774,2.774,0,0,1-2.213-3.585,2.16,2.16,0,0,1,2.768-1.435,1.331,1.331,0,0,1,1.06,1.493,1.855,1.855,0,0,1-.844,1.028c-.166.105-.846-.192-.852-.327a3.759,3.759,0,0,1,.366-1.208.853.853,0,0,0-1.246.48,2.066,2.066,0,0,0,.188,1.6,2.35,2.35,0,0,0,1.369.673,15.754,15.754,0,0,0,8.215-.615c2.182-.655,4.3-1.546,6.422-2.376,2.661-1.037,5.326-2.135,8.244-1.934a21.591,21.591,0,0,1,4.3.913,1.418,1.418,0,0,1,.722,1.055C120.071,151.164,120.008,152.277,120.008,153.231Z" transform="translate(63.569 -0.211)"/><path class="cls-3" d="M79.774,185.633h23.417l.2.29a23.414,23.414,0,0,1-2.38,2.057,13.994,13.994,0,0,1-6.922,1.984c-3.71.258-7.392.184-10.873-1.377A7.139,7.139,0,0,1,79.774,185.633Z" transform="translate(63.569 -0.211)"/><path class="cls-3" d="M140.887,185.6h23.731a15.2,15.2,0,0,1-1.012,1.3c-1.855,1.883-4.267,2.524-6.762,2.891a26.6,26.6,0,0,1-10.264-.431,9.57,9.57,0,0,1-4.822-2.675C141.5,186.415,141.292,186.106,140.887,185.6Z" transform="translate(63.569 -0.211)"/><path class="cls-3" d="M111,200.4c-.18-1.838.732-2.87,2.525-2.874q8.7-.018,17.406-.006c1.677,0,2.595,1.067,2.455,2.88Z" transform="translate(63.569 -0.211)"/><path class="cls-3" d="M190.172,113.784v-3.479h17.574v3.479Z" transform="translate(63.569 -0.211)"/><path class="cls-3" d="M36.623,113.8v-3.482H54.178V113.8Z" transform="translate(63.569 -0.211)"/><path class="cls-3" d="M107.864,202.812c-.2-1.422.174-1.9,1.516-1.9q12.771-.011,25.542,0c1.358,0,1.732.435,1.638,1.9Z" transform="translate(63.569 -0.211)"/><path class="cls-3" d="M182.79,45.89v3.061H164.15V45.89Z" transform="translate(63.569 -0.211)"/><path class="cls-3" d="M116.179,195.455a6.27,6.27,0,0,0,2.31-3.773,1.122,1.122,0,0,1,.816-.664c1.93-.064,3.863-.065,5.793-.019a1.024,1.024,0,0,1,.762.592,6.343,6.343,0,0,0,2.328,3.864Z" transform="translate(63.569 -0.211)"/><path class="cls-3" d="M107.8,204.49v-1.1h28.787l.067,1.1Z" transform="translate(63.569 -0.211)"/><path class="cls-3" d="M180.677,122.02H162.1a4.238,4.238,0,0,1-.945-.04c-.151-.034-.257-.262-.383-.4.142-.121.266-.3.429-.348a2.12,2.12,0,0,1,.629-.021q18.9,0,37.79.021a2.933,2.933,0,0,1,.942.356,2.888,2.888,0,0,1-.989.421c-6.3.026-12.6.019-18.9.019Z" transform="translate(63.569 -0.211)"/><path class="cls-3" d="M63.782,122.022H45.1a3.339,3.339,0,0,1-.839-.037.554.554,0,0,1-.346-.395c0-.12.225-.314.38-.349a3.846,3.846,0,0,1,.84-.028l37.369,0a1.862,1.862,0,0,1,.627.025,1.975,1.975,0,0,1,.493.4A1.967,1.967,0,0,1,83.1,122a2.671,2.671,0,0,1-.734.026H63.782Z" transform="translate(63.569 -0.211)"/><path class="cls-3" d="M95.8,123.428c.027.4.031.646.062.886.106.8-.182,1.107-1.041,1.1-3.336-.048-6.673-.027-10.009-.021-.5,0-.976-.025-.872-.7.069-.448-.347-1.234.514-1.244C88.2,123.4,91.949,123.428,95.8,123.428Z" transform="translate(63.569 -0.211)"/><path class="cls-3" d="M160.407,123.489v1.826c-.46.031-.9.086-1.344.086-3.016,0-6.032-.012-9.047-.009-1.669,0-1.756-.1-1.371-1.9Z" transform="translate(63.569 -0.211)"/><path class="cls-3" d="M104.6,184.208c-.174,1.007-.838.875-1.4.876q-8.328.013-16.656.014-3.373,0-6.747.016c-.564,0-1.145.02-1.207-.906Z" transform="translate(63.569 -0.211)"/><path class="cls-3" d="M165.761,184.255c-.061.879-.665.831-1.215.832q-6.436.017-12.873.02c-3.552,0-7.1.006-10.656-.03a4.72,4.72,0,0,1-1.282-.4l.1-.427Z" transform="translate(63.569 -0.211)"/><path class="cls-3" d="M120.61,148.468h3.156v6.673H120.61Z" transform="translate(63.569 -0.211)"/><path class="cls-3" d="M164.164,49.391c1.29,0,2.516,0,3.742,0L181.3,49.38a2.614,2.614,0,0,1,.837.029,3.079,3.079,0,0,1,.708.509c-.226.153-.444.423-.68.439-.875.059-1.756.041-2.635.041q-7.224,0-14.448-.014C164.525,50.383,163.859,50.473,164.164,49.391Z" transform="translate(63.569 -0.211)"/><path class="cls-3" d="M114.372,197.02c-.133-1.006.5-1.067,1.162-1.069,2.457-.006,4.914,0,7.371,0,1.965,0,3.93-.015,5.9-.014.662,0,1.3.062,1.227,1.084Z" transform="translate(63.569 -0.211)"/><path class="cls-3" d="M173.516,52.8c-2.144,0-4.289.018-6.433-.024-.273-.005-.54-.326-.81-.5.262-.19.524-.543.787-.545q6.486-.047,12.97.009c.257,0,.511.359.766.551-.283.167-.562.473-.848.478-2.143.041-4.288.023-6.432.023Z" transform="translate(63.569 -0.211)"/><path class="cls-3" d="M165.294,51.286c.86-.763,15.619-.693,16.419-.045a9.22,9.22,0,0,1-1.485.274q-6.738.034-13.475.015A8.8,8.8,0,0,1,165.294,51.286Z" transform="translate(63.569 -0.211)"/><path class="cls-3" d="M43.717,115.108c-2.111,0-4.223.015-6.333-.019-.271,0-.537-.267-.8-.41.26-.147.52-.422.782-.424q6.335-.037,12.668,0c.268,0,.534.262.8.4-.26.152-.518.43-.78.435-2.111.036-4.223.02-6.334.02Z" transform="translate(63.569 -0.211)"/><path class="cls-3" d="M200.575,115.112c-2.076,0-4.153.016-6.228-.02-.266,0-.528-.277-.792-.425.264-.14.526-.4.791-.4q6.333-.045,12.667-.013c.262,0,.523.271.784.416-.261.148-.52.42-.784.424C204.868,115.128,202.721,115.113,200.575,115.112Z" transform="translate(63.569 -0.211)"/><path class="cls-3" d="M122.181,139.7a19.36,19.36,0,0,1,1.625,2.874,1.987,1.987,0,0,1-.3,1.765,2.1,2.1,0,0,1-2.55.084,1.329,1.329,0,0,1-.417-1.86C120.994,141.635,121.565,140.761,122.181,139.7Z" transform="translate(63.569 -0.211)"/><path class="cls-3" d="M89.97,123.08c-1.9,0-3.8.015-5.692-.017a2.456,2.456,0,0,1-.83-.362,2.555,2.555,0,0,1,.858-.354q5.586-.045,11.174-.016c.277,0,.552.253.827.388a2.643,2.643,0,0,1-.855.348c-1.827.032-3.655.016-5.482.016Z" transform="translate(63.569 -0.211)"/><path class="cls-3" d="M160.93,122.969a9.274,9.274,0,0,1-.978.105q-5.474.016-10.947.016a1.4,1.4,0,0,1-.52-.02,1.708,1.708,0,0,1-.413-.359,1.687,1.687,0,0,1,.447-.336,2.14,2.14,0,0,1,.627-.026c3.579-.008,7.157-.02,10.736-.011a6.025,6.025,0,0,1,1.089.2Z" transform="translate(63.569 -0.211)"/><path class="cls-3" d="M154.592,126.314c1.371,0,2.743-.03,4.111.024.279.011.546.334.818.513-.266.148-.53.422-.8.426-2.776.037-5.553.048-8.329.012-.3,0-.595-.352-.892-.54.291-.155.578-.435.873-.445,1.4-.047,2.811-.021,4.216-.021Z" transform="translate(63.569 -0.211)"/><path class="cls-3" d="M89.84,127.3c-1.37,0-2.741.027-4.109-.022-.3-.011-.583-.3-.874-.455.277-.172.552-.49.831-.494q4.162-.055,8.324,0c.294,0,.585.3.878.463-.278.17-.552.476-.836.487C92.651,127.331,91.245,127.3,89.84,127.3Z" transform="translate(63.569 -0.211)"/><path class="cls-3" d="M43.808,116.282c-1.753,0-3.506.022-5.258-.02-.3-.007-.589-.285-.883-.438.277-.13.553-.372.831-.374q5.258-.039,10.516,0c.259,0,.516.275.774.422-.276.136-.549.384-.828.39C47.243,116.3,45.525,116.283,43.808,116.282Z" transform="translate(63.569 -0.211)"/><path class="cls-3" d="M200.74,115.446c1.757,0,3.515-.015,5.272.017.244.005.483.241.725.369-.228.152-.454.434-.682.436q-5.377.036-10.756-.009c-.2,0-.407-.254-.611-.39.225-.143.447-.407.674-.412,1.792-.034,3.585-.019,5.378-.019Z" transform="translate(63.569 -0.211)"/><path class="cls-3" d="M122.128,190.546c-.839,0-1.682.044-2.515-.026-.252-.021-.478-.356-.716-.547.242-.144.482-.41.726-.414q2.569-.043,5.139.024c.245.006.482.274.723.421-.245.176-.48.484-.736.5-.87.063-1.747.024-2.621.024Z" transform="translate(63.569 -0.211)"/><ellipse class="cls-3" cx="153.384" cy="125.628" rx="7.547" ry="0.156"/><path class="cls-3" d="M149.207,125.705H159.88l0,.226H149.226Z" transform="translate(63.569 -0.211)"/><path class="cls-3" d="M119.636,156.6h5C124.18,157.562,120.412,157.6,119.636,156.6Z" transform="translate(63.569 -0.211)"/><path class="cls-3" d="M119.747,188.959c.824-.764,4.273-.7,4.971,0Z" transform="translate(63.569 -0.211)"/><path class="cls-3" d="M121.113,147.865c.215-.583.351-1.044.559-1.47.1-.211.338-.356.513-.531a2.51,2.51,0,0,1,.488.532c.22.452.379.934.589,1.469Z" transform="translate(63.569 -0.211)"/><path class="cls-3" d="M124.343,156h-4.28l0-.257h4.279Z" transform="translate(63.569 -0.211)"/><path d="M169.53,133.066h21.54v33.059l1.366.2-.605,2.746H168.9c-.231-.927-.451-1.811-.687-2.761l1.319-.171Zm1.976,33.092v-1.286c0-9.574.02-19.148-.012-28.721,0-.93.239-1.2,1.174-1.188,5.033.044,10.066.021,15.1.019,1.389,0,1.389-.006,1.39,1.342q0,14.256.012,28.51v1.327h1.514V133.434H169.958v32.724Zm17.248-30.737H171.93v30.335h16.824Zm3.243,31.3H168.7c.2.714.382,1.34.564,1.982h22.142C191.617,167.99,191.8,167.4,192,166.717Z" transform="translate(63.569 -0.211)"/><path d="M143.556,126.778v24.2l-.249,0V127.132H101.138v23.875h-.255V126.778Z" transform="translate(63.569 -0.211)"/><path d="M122.069,131.115h-3.891c-4.118,0-8.236.031-12.353-.009-.889-.008-1.129.28-1.125,1.139.03,5.42.012,10.84.009,16.26a1.6,1.6,0,0,1-.244,1.015,5.772,5.772,0,0,1-.091-.737c0-5.666.014-11.333-.016-17,0-.811.274-1.01,1.037-1.009q16.841.027,33.681.009c.526,0,.956-.011.953.746-.024,5.913-.018,11.825-.024,17.738,0,.06-.046.12-.259.183V131.19H122.361v6.853h-.292Z" transform="translate(63.569 -0.211)"/><path d="M126.292,157.275v21.341h10.232V156l.359-.013v1.958c0,6.682-.009,13.364.019,20.045,0,.8-.185,1.109-1.049,1.095-2.989-.05-5.979-.028-8.968-.013-.6,0-.981-.047-.977-.828.027-6.752.017-13.5.024-20.257a4.682,4.682,0,0,1,.1-.7Z" transform="translate(63.569 -0.211)"/><path d="M107.81,134.993v13.244l-.249.006c-.02-.287-.057-.574-.057-.861,0-3.9.03-7.806-.027-11.708-.013-.957.283-1.177,1.191-1.161,3.2.052,6.392.02,9.684.02v12.775l-.17.008V134.993Z" transform="translate(63.569 -0.211)"/><path d="M136.839,134.62v13.447l-.218,0V135H126.262v12.143l-.249,0V134.62Z" transform="translate(63.569 -0.211)"/><path d="M143.53,157.121V174.41h-.2V157.121Z" transform="translate(63.569 -0.211)"/><path d="M139.779,181.717V156.286h.164v25.423Z" transform="translate(63.569 -0.211)"/><path d="M140.068,187.708h-13.78v-.2h13.764Z" transform="translate(63.569 -0.211)"/><path d="M74.79,166.163l1.456.125c-.238.933-.46,1.807-.711,2.791H52.622l-.715-2.729,1.35-.243V133.086H74.79Zm-.356,0V133.421H53.685V166.14H55.3V135.071H72.933v31.1Zm-18.792-.391H72.447V135.4h-16.8Zm20.047.954H52.473c.18.729.335,1.361.483,1.962H75.192Z" transform="translate(63.569 -0.211)"/><path d="M107.785,178.636h10.274v-21.2l.276-.021a10.176,10.176,0,0,1,.109,1.054c0,6.51-.012,13.019.017,19.529,0,.822-.214,1.094-1.061,1.081-2.99-.048-5.981-.033-8.972-.011-.641,0-.949-.125-.946-.866.033-7.283.034-14.566.047-21.85,0-.1.029-.206.256-.31Z" transform="translate(63.569 -0.211)"/><path d="M104.447,181.783V156.157h.181v25.632Z" transform="translate(63.569 -0.211)"/><path d="M101.117,156.909V174.4h-.192V156.9Z" transform="translate(63.569 -0.211)"/><ellipse cx="174.903" cy="187.367" rx="9.852" ry="0.112"/><path d="M94.9,157.447v2.784l-.173.01v-2.805Z" transform="translate(63.569 -0.211)"/><path d="M136.62,104.62l1.72.177-1.085,2.875c-.153.01-.459.051-.765.051q-14.15.009-28.3.022c-.845,0-1.49-.044-1.3-1.157.027-.161-.139-.36-.228-.535-.189-.369-.387-.734-.543-1.027.223-.211.249-.256.274-.256,2.629,0,1.365-2.012,1.377-3.05.1-9.185.065-18.372.043-27.559a3.787,3.787,0,0,0-.418-1.187c-.024-.063-.113-.11-.117-.169-.151-1.922-1.272-3.708-.807-5.706a.914.914,0,0,1,.514-.5,2.035,2.035,0,0,1,.731-.03c9.679,0,19.359.01,29.038-.021.9,0,1.326.184,1.19,1.154a6.754,6.754,0,0,0,0,1.371,2.972,2.972,0,0,1-1.182,2.6.553.553,0,0,0-.151.457c.377,1.547-.124,3.087-.017,4.638.11,1.611.029,3.236.028,4.855,0,1.655,0,3.309-.006,4.963s0,3.309,0,4.963q0,2.428,0,4.857,0,2.483,0,4.963Zm-2.712-31.675V104.7a11.53,11.53,0,0,1,1.278.008c.824.1,1.082-.2,1.08-1.053q-.039-15.362,0-30.724a16.424,16.424,0,0,1,.331-2.276H107.549a4.854,4.854,0,0,1,.579,1.485q.05,15.361.027,30.724c0,2.014.031,2.052,2.065,1.8.064-.008.121-.062.3-.159,0-.314,0-.691,0-1.067-.006-9.749,0-19.5-.045-29.247-.006-1.091.313-1.347,1.366-1.34,7,.046,14.007.023,21.011.026C133.157,72.878,133.464,72.916,133.908,72.945ZM110.97,73.3v30.977h22.467V73.3Zm26.537-6.278H106.894v3.07h30.613Zm.213,38.187H106.734l.74,2.2h1.049q12.442-.006,24.885-.012c1.019,0,2.041.052,3.056-.017.246-.016.538-.378.683-.649A12.462,12.462,0,0,0,137.72,105.206Z" transform="translate(63.569 -0.211)"/><path d="M159.329,181.808v-8.343l.137-.009V181.8Z" transform="translate(63.569 -0.211)"/><path d="M84.886,181.772v-8.506h.183v8.527Z" transform="translate(63.569 -0.211)"/><path class="cls-3" d="M171.506,166.158h-1.548V133.434h20.726v32.727H189.17v-1.327q-.006-14.255-.012-28.51c0-1.348,0-1.343-1.39-1.342-5.034,0-10.067.025-15.1-.019-.935-.008-1.177.258-1.174,1.188.032,9.573.015,19.147.012,28.721Z" transform="translate(63.569 -0.211)"/><path class="cls-3" d="M188.754,135.421v30.335H171.93V135.421Zm-.7,29.586V136.046c-2.136,0-4.2.044-6.265-.02-.91-.028-1.212.208-1.2,1.164.053,3.9.018,7.809.021,11.713,0,.271.051.541.083.857,1.473,0,2.876,0,4.28,0,.739,0,1.479-.026,2.215.027.206.015.394.269.591.413a2.411,2.411,0,0,1-.624.382,3.56,3.56,0,0,1-.84.015h-5.621v14.41Zm-15.46-14.451v14.433h7.316V150.556Zm7.32-.737v-13.7h-7.32v13.7Z" transform="translate(63.569 -0.211)"/><path class="cls-3" d="M192,166.717c-.2.678-.38,1.273-.591,1.982H169.264c-.182-.642-.361-1.268-.564-1.982Z" transform="translate(63.569 -0.211)"/><path class="cls-3" d="M74.434,166.167h-1.5v-31.1H55.3V166.14H53.685V133.421H74.434Z" transform="translate(63.569 -0.211)"/><path class="cls-3" d="M55.642,165.776V135.4H72.447v30.377Zm.731-.805H63.71V150.593c-1.647,0-3.226.075-4.792-.032-.753-.052-1.674.513-2.277-.421a17.115,17.115,0,0,1,2.226-.363c1.6-.056,3.205-.017,4.849-.017V136.114H56.373Zm8.094-15.208c2.136,0,4.207-.016,6.277.019.276,0,.547.266.821.409-.279.133-.556.377-.836.381-2.066.033-4.133.018-6.264.018v14.4h7.321V136.125H64.467Z" transform="translate(63.569 -0.211)"/><path class="cls-3" d="M75.689,166.73l-.5,1.962H52.956c-.148-.6-.3-1.233-.483-1.962Z" transform="translate(63.569 -0.211)"/><path class="cls-3" d="M133.908,72.945c-.444-.029-.751-.067-1.058-.067-7,0-14.008.02-21.011-.026-1.053-.007-1.372.249-1.366,1.34.05,9.749.039,19.5.045,29.247,0,.376,0,.753,0,1.067-.177.1-.234.151-.3.159-2.034.252-2.065.214-2.065-1.8q0-15.361-.027-30.724a4.854,4.854,0,0,0-.579-1.485H136.6a16.424,16.424,0,0,0-.331,2.276q-.033,15.361,0,30.724c0,.848-.256,1.154-1.08,1.053a11.53,11.53,0,0,0-1.278-.008Z" transform="translate(63.569 -0.211)"/><path class="cls-3" d="M110.97,73.3h22.467v30.977H110.97Zm11.749,15.916V103.4h9.722V74.209h-9.7V88.373h9.363c.28.809-.169.847-.734.845C128.529,89.207,125.685,89.213,122.719,89.213Zm-.948,14.2v-14.2c-.211-.009-.346-.02-.48-.02-2.745,0-5.49.02-8.234-.012-.284,0-.566-.3-.848-.453.27-.135.536-.374.812-.387,1.018-.046,2.04-.018,3.061-.017h5.677V74.2h-9.816v29.209Z" transform="translate(63.569 -0.211)"/><path class="cls-3" d="M137.507,67.019v3.07H106.894v-3.07Z" transform="translate(63.569 -0.211)"/><path class="cls-3" d="M137.72,105.206a12.462,12.462,0,0,1-.573,1.518c-.145.271-.437.633-.683.649-1.015.069-2.037.016-3.056.017q-12.442,0-24.885.012h-1.049l-.74-2.2Z" transform="translate(63.569 -0.211)"/><path d="M188.051,165.007h-7.359V150.6h5.621a3.56,3.56,0,0,0,.84-.015,2.411,2.411,0,0,0,.624-.382c-.2-.144-.385-.4-.591-.413-.736-.053-1.476-.026-2.215-.027-1.4,0-2.807,0-4.28,0-.032-.316-.082-.586-.083-.857,0-3.9.032-7.809-.021-11.713-.013-.956.289-1.192,1.2-1.164,2.062.064,4.129.02,6.265.02Zm-7.025-.361h6.661V150.983h-6.661Zm6.642-15.289v-12.88h-6.6v12.88Z" transform="translate(63.569 -0.211)"/><path d="M172.591,150.556h7.316v14.433h-7.316Zm.412.419v13.711h6.57V150.975Z" transform="translate(63.569 -0.211)"/><path d="M179.911,149.819h-7.32v-13.7h7.32Zm-6.948-.486h6.64V136.487h-6.64Z" transform="translate(63.569 -0.211)"/><path d="M56.373,164.971V136.114h7.343V149.76c-1.644,0-3.248-.039-4.849.017a17.115,17.115,0,0,0-2.226.363c.6.934,1.524.369,2.277.421,1.566.107,3.145.032,4.792.032v14.378Zm.368-14v13.69h6.6v-13.69Zm6.61-14.468H56.735v12.831h6.616Z" transform="translate(63.569 -0.211)"/><path d="M64.467,149.763V136.125h7.319v28.869H64.465v-14.4c2.131,0,4.2.015,6.264-.018.28,0,.557-.248.836-.381-.274-.143-.545-.405-.821-.409C68.674,149.747,66.6,149.763,64.467,149.763Zm.355,14.909h6.591V150.96H64.822Zm6.609-28.194H64.849v12.86h6.582Z" transform="translate(63.569 -0.211)"/><path d="M122.719,89.213c2.966,0,5.81-.006,8.654.005.565,0,1.014-.036.734-.845h-9.363V74.209h9.7V103.4h-9.722Zm.327,13.8h9.092V89.617h-9.092Zm.038-28.46V87.914h9.04V74.551Z" transform="translate(63.569 -0.211)"/><path d="M121.771,103.409h-9.828V74.2h9.816V88.323h-5.677c-1.021,0-2.043-.029-3.061.017-.276.013-.542.252-.812.387.282.158.564.45.848.453,2.744.032,5.489.014,8.234.012.134,0,.269.011.48.02ZM112.28,89.6v13.42h9.075V89.6Zm9.091-1.614V74.572h-9.162c0,4.327-.009,8.574.028,12.82,0,.2.408.567.629.57C115.672,88,118.479,87.988,121.371,87.988Z" transform="translate(63.569 -0.211)"/><path class="cls-3" d="M181.026,164.646V150.983h6.661v13.663Z" transform="translate(63.569 -0.211)"/><path class="cls-3" d="M187.668,149.357h-6.6v-12.88h6.6Z" transform="translate(63.569 -0.211)"/><path class="cls-3" d="M173,150.975h6.57v13.711H173Z" transform="translate(63.569 -0.211)"/><path class="cls-3" d="M172.963,149.333V136.487h6.64v12.846Z" transform="translate(63.569 -0.211)"/><path class="cls-3" d="M56.741,150.969h6.6v13.69h-6.6Z" transform="translate(63.569 -0.211)"/><path class="cls-3" d="M63.351,136.5v12.831H56.735V136.5Z" transform="translate(63.569 -0.211)"/><path class="cls-3" d="M64.822,164.672V150.96h6.591v13.712Z" transform="translate(63.569 -0.211)"/><path class="cls-3" d="M71.431,136.478v12.86H64.849v-12.86Z" transform="translate(63.569 -0.211)"/><path class="cls-3" d="M123.046,103.011V89.617h9.092v13.394Z" transform="translate(63.569 -0.211)"/><path class="cls-3" d="M123.084,74.551h9.04V87.914h-9.04Z" transform="translate(63.569 -0.211)"/><path class="cls-3" d="M112.28,89.6h9.075v13.42H112.28Z" transform="translate(63.569 -0.211)"/><path class="cls-3" d="M121.371,87.988c-2.892,0-5.7.013-8.5-.026-.221,0-.628-.369-.629-.57-.037-4.246-.028-8.493-.028-12.82h9.162Z" transform="translate(63.569 -0.211)"/></g></svg>